<?xml version="1.0" encoding="UTF-8"?>
<svg xmlns="http://www.w3.org/2000/svg" viewBox="0 0 85.28 85.29">
  <defs>
    <style>
      .cls-1 {
        fill: #231f20;
      }

      .cls-2, .cls-3, .cls-4 {
        stroke: #231f20;
        stroke-linecap: round;
        stroke-linejoin: round;
      }

      .cls-2, .cls-4 {
        fill: none;
      }

      .cls-3 {
        fill: #fff;
        stroke-width: .25px;
      }

      .cls-4 {
        stroke-width: 2px;
      }
    </style>
  </defs>
  <g id="guides">
    <polygon class="cls-3" points="85.16 42.64 85.13 41.17 85.06 39.69 84.93 38.22 84.75 36.76 84.52 35.3 84.24 33.85 83.91 32.41 83.53 30.99 83.1 29.57 82.62 28.18 82.1 26.8 81.52 25.44 80.9 24.1 80.23 22.78 79.52 21.49 78.77 20.22 77.97 18.98 77.12 17.77 76.24 16.59 75.32 15.44 74.35 14.32 73.35 13.24 72.31 12.19 71.24 11.18 70.13 10.2 68.98 9.27 67.81 8.37 66.6 7.52 65.37 6.71 64.11 5.94 62.82 5.22 61.51 4.54 60.18 3.91 58.82 3.32 57.45 2.79 56.06 2.3 54.65 1.86 53.23 1.46 51.79 1.12 50.34 .83 48.89 .59 47.43 .39 45.96 .25 44.48 .16 43.01 .12 41.53 .14 40.06 .2 38.59 .32 37.12 .48 35.66 .7 34.21 .97 32.77 1.29 31.34 1.65 29.92 2.07 28.52 2.54 27.14 3.05 25.77 3.61 24.43 4.22 23.1 4.88 21.81 5.58 20.53 6.32 19.28 7.11 18.07 7.94 16.88 8.82 15.72 9.73 14.59 10.69 13.5 11.68 12.44 12.71 11.42 13.77 10.44 14.87 9.49 16.01 8.59 17.18 7.73 18.37 6.9 19.6 6.13 20.85 5.39 22.13 4.7 23.44 4.06 24.77 3.46 26.12 2.91 27.49 2.41 28.87 1.96 30.28 1.55 31.7 1.2 33.13 .89 34.57 .64 36.03 .43 37.49 .28 38.96 .18 40.43 .12 41.91 .12 43.38 .18 44.86 .28 46.33 .43 47.8 .64 49.26 .89 50.71 1.2 52.16 1.55 53.59 1.96 55.01 2.41 56.41 2.91 57.8 3.46 59.17 4.06 60.52 4.7 61.85 5.39 63.15 6.13 64.43 6.9 65.69 7.73 66.91 8.59 68.11 9.49 69.28 10.44 70.41 11.42 71.51 12.44 72.58 13.5 73.61 14.59 74.6 15.72 75.56 16.88 76.47 18.07 77.34 19.28 78.18 20.53 78.96 21.81 79.71 23.1 80.41 24.43 81.07 25.77 81.67 27.14 82.24 28.52 82.75 29.92 83.22 31.34 83.63 32.77 84 34.21 84.32 35.66 84.59 37.12 84.8 38.59 84.97 40.06 85.08 41.53 85.15 43.01 85.16 44.48 85.12 45.96 85.03 47.43 84.89 48.89 84.7 50.34 84.46 51.79 84.17 53.23 83.82 54.65 83.43 56.06 82.99 57.45 82.5 58.82 81.96 60.18 81.38 61.51 80.74 62.82 80.07 64.11 79.34 65.37 78.58 66.6 77.76 67.81 76.91 68.98 76.02 70.13 75.08 71.24 74.11 72.31 73.1 73.35 72.05 74.35 70.97 75.32 69.85 76.24 68.7 77.12 67.52 77.97 66.3 78.77 65.06 79.52 63.8 80.23 62.5 80.9 61.19 81.52 59.85 82.1 58.49 82.62 57.11 83.1 55.71 83.53 54.3 83.91 52.87 84.24 51.44 84.52 49.99 84.75 48.53 84.93 47.06 85.06 45.59 85.13 44.12 85.16 42.64"/>
  </g>
  <g id="circle">
    <polygon class="cls-2" points="83.17 42.64 83.15 41.24 83.08 39.83 82.95 38.43 82.78 37.03 82.56 35.64 82.3 34.26 81.98 32.89 81.62 31.53 81.21 30.18 80.76 28.85 80.25 27.54 79.71 26.24 79.12 24.96 78.48 23.71 77.8 22.48 77.08 21.27 76.32 20.09 75.51 18.93 74.67 17.8 73.79 16.71 72.87 15.64 71.92 14.61 70.93 13.61 69.9 12.65 68.84 11.72 67.75 10.83 66.63 9.97 65.49 9.16 64.31 8.39 63.11 7.66 61.88 6.97 60.63 6.32 59.36 5.72 58.07 5.16 56.76 4.65 55.43 4.18 54.09 3.76 52.73 3.38 51.36 3.06 49.98 2.78 48.6 2.55 47.2 2.37 45.8 2.23 44.4 2.15 42.99 2.11 41.58 2.12 40.18 2.18 38.77 2.29 37.38 2.45 35.98 2.66 34.6 2.91 33.23 3.22 31.86 3.57 30.51 3.96 29.18 4.41 27.86 4.9 26.56 5.43 25.28 6.01 24.02 6.64 22.78 7.31 21.56 8.02 20.37 8.77 19.21 9.56 18.08 10.4 16.97 11.27 15.9 12.18 14.86 13.12 13.85 14.1 12.88 15.12 11.94 16.17 11.04 17.25 10.18 18.36 9.36 19.51 8.57 20.67 7.83 21.87 7.13 23.09 6.47 24.33 5.86 25.6 5.29 26.89 4.77 28.19 4.29 29.52 3.85 30.86 3.47 32.21 3.13 33.57 2.84 34.95 2.6 36.34 2.4 37.73 2.26 39.13 2.16 40.53 2.11 41.94 2.11 43.35 2.16 44.75 2.26 46.16 2.4 47.56 2.6 48.95 2.84 50.34 3.13 51.71 3.47 53.08 3.85 54.43 4.29 55.77 4.77 57.09 5.29 58.4 5.86 59.69 6.47 60.95 7.13 62.2 7.83 63.42 8.57 64.61 9.36 65.78 10.18 66.92 11.04 68.03 11.94 69.12 12.88 70.17 13.85 71.18 14.86 72.16 15.9 73.11 16.97 74.02 18.08 74.89 19.21 75.72 20.37 76.52 21.56 77.27 22.78 77.98 24.02 78.65 25.28 79.27 26.56 79.85 27.86 80.39 29.18 80.88 30.51 81.32 31.86 81.72 33.23 82.07 34.6 82.37 35.98 82.63 37.38 82.84 38.77 82.99 40.18 83.1 41.58 83.16 42.99 83.18 44.4 83.14 45.8 83.05 47.2 82.92 48.6 82.74 49.98 82.51 51.36 82.23 52.73 81.9 54.09 81.53 55.43 81.11 56.76 80.64 58.07 80.13 59.36 79.57 60.63 78.97 61.88 78.32 63.11 77.63 64.31 76.9 65.49 76.13 66.63 75.31 67.75 74.46 68.84 73.57 69.9 72.64 70.93 71.68 71.92 70.68 72.87 69.64 73.79 68.58 74.67 67.48 75.51 66.36 76.32 65.2 77.08 64.02 77.8 62.81 78.48 61.58 79.12 60.32 79.71 59.04 80.25 57.75 80.76 56.43 81.21 55.1 81.62 53.76 81.98 52.4 82.3 51.02 82.56 49.64 82.78 48.25 82.95 46.86 83.08 45.46 83.15 44.05 83.17 42.64"/>
  </g>
  <g id="characters">
    <g>
      <polyline class="cls-4" points="73.11 62.84 73.11 44.2 73.11 44.18 73.11 44.15 73.11 44.13 73.11 44.1 73.1 44.07 73.1 44.05 73.1 44.02 73.1 43.99 73.09 43.97 73.09 43.94 73.08 43.92 73.08 43.89 73.07 43.86 73.06 43.84 73.05 43.81 73.05 43.78 73.04 43.76 73.03 43.73 73.02 43.7 73.01 43.68 73 43.65 72.99 43.63 72.98 43.6 72.96 43.58 72.95 43.55 72.94 43.53 72.93 43.5 72.91 43.48 72.9 43.45 72.88 43.43 72.87 43.41 72.85 43.38 72.83 43.36 72.82 43.34 72.8 43.32 72.78 43.29 72.76 43.27 72.74 43.25 72.72 43.23 72.71 43.21 72.69 43.19 72.67 43.17 72.64 43.15 72.62 43.13 72.6 43.12 72.58 43.1 72.56 43.08 72.54 43.06 72.52 43.05 72.49 43.03 72.47 43.02 72.45 43 72.42 42.99 72.4 42.98 72.38 42.96 72.35 42.95 72.33 42.94 72.31 42.93 72.28 42.91 72.26 42.9 72.23 42.89 72.21 42.88 72.19 42.87 72.16 42.87 72.14 42.86 72.11 42.85 72.09 42.84 72.06 42.84 72.04 42.83 72.01 42.82 71.99 42.82 71.96 42.81 71.93 42.81 71.91 42.8 71.88 42.8 71.85 42.8 71.83 42.79 71.8 42.79 71.77 42.79 71.75 42.79 71.72 42.79 71.69 42.79 71.66 42.79 71.63 42.79 71.61 42.79 71.58 42.79 71.55 42.79 71.52 42.8 71.5 42.8 71.47 42.8 71.44 42.81 71.41 42.81 71.38 42.82 71.36 42.83 71.33 42.83 71.3 42.84 71.28 42.85 71.25 42.86 71.22 42.87 71.2 42.88 71.17 42.89 71.14 42.9 71.12 42.91 71.09 42.92 71.07 42.93 71.04 42.94 71.02 42.96 70.99 42.97 70.97 42.99 70.95 43 70.92 43.01 70.9 43.03 70.88 43.05 70.85 43.06 70.83 43.08 70.81 43.09 70.79 43.11 70.77 43.13 70.75 43.15 70.73 43.16 70.71 43.18 70.69 43.2 70.67 43.22 70.65 43.24 70.64 43.26 70.62 43.28 70.6 43.3 70.59 43.32 61.77 65.67 52.96 43.32 52.94 43.3 52.92 43.28 52.91 43.26 52.89 43.24 52.87 43.22 52.85 43.2 52.83 43.18 52.82 43.16 52.8 43.15 52.78 43.13 52.75 43.11 52.73 43.09 52.71 43.08 52.69 43.06 52.67 43.05 52.65 43.03 52.62 43.01 52.6 43 52.58 42.99 52.55 42.97 52.53 42.96 52.5 42.94 52.48 42.93 52.45 42.92 52.43 42.91 52.4 42.9 52.38 42.89 52.35 42.88 52.32 42.87 52.3 42.86 52.27 42.85 52.24 42.84 52.21 42.83 52.19 42.83 52.16 42.82 52.13 42.81 52.1 42.81 52.08 42.8 52.05 42.8 52.02 42.8 51.99 42.79 51.97 42.79 51.94 42.79 51.91 42.79 51.88 42.79 51.85 42.79 51.83 42.79 51.8 42.79 51.77 42.79 51.74 42.79 51.72 42.79 51.69 42.8 51.66 42.8 51.64 42.8 51.61 42.81 51.58 42.81 51.56 42.82 51.53 42.82 51.51 42.83 51.48 42.84 51.46 42.84 51.43 42.85 51.41 42.86 51.38 42.87 51.36 42.87 51.33 42.88 51.31 42.89 51.29 42.9 51.26 42.91 51.24 42.93 51.21 42.94 51.19 42.95 51.17 42.96 51.14 42.98 51.12 42.99 51.1 43 51.07 43.02 51.05 43.03 51.03 43.05 51.01 43.06 50.98 43.08 50.96 43.1 50.94 43.12 50.92 43.13 50.9 43.15 50.88 43.17 50.86 43.19 50.84 43.21 50.82 43.23 50.8 43.25 50.78 43.27 50.76 43.29 50.75 43.32 50.73 43.34 50.71 43.36 50.69 43.38 50.68 43.41 50.66 43.43 50.65 43.45 50.63 43.48 50.62 43.5 50.61 43.53 50.59 43.55 50.58 43.58 50.57 43.6 50.56 43.63 50.54 43.65 50.53 43.68 50.52 43.7 50.51 43.73 50.51 43.76 50.5 43.78 50.49 43.81 50.48 43.84 50.48 43.86 50.47 43.89 50.46 43.92 50.46 43.94 50.45 43.97 50.45 43.99 50.45 44.02 50.44 44.05 50.44 44.07 50.44 44.1 50.44 44.13 50.43 44.15 50.43 44.18 50.43 44.2 50.43 74.18"/>
      <g>
        <line class="cls-4" x1="46.18" y1="43" x2="46.18" y2="77.01"/>
        <polyline class="cls-4" points="46.18 34.49 46.18 8.98 54.69 8.98 54.85 8.98 55.02 8.99 55.19 9 55.35 9.01 55.52 9.02 55.7 9.04 55.87 9.06 56.04 9.08 56.21 9.11 56.39 9.14 56.56 9.18 56.73 9.21 56.91 9.26 57.08 9.3 57.25 9.35 57.42 9.4 57.6 9.46 57.77 9.52 57.94 9.59 58.1 9.65 58.27 9.73 58.43 9.8 58.6 9.88 58.76 9.96 58.92 10.05 59.07 10.14 59.22 10.23 59.38 10.33 59.52 10.43 59.67 10.53 59.81 10.64 59.95 10.75 60.08 10.86 60.21 10.97 60.34 11.09 60.46 11.21 60.58 11.33 60.7 11.45 60.81 11.58 60.91 11.71 61.02 11.84 61.11 11.97 61.21 12.1 61.3 12.24 61.38 12.37 61.46 12.51 61.53 12.65 61.6 12.79 61.67 12.93 61.73 13.07 61.79 13.21 61.84 13.35 61.89 13.49 61.93 13.63 61.97 13.77 62 13.91 62.03 14.05 62.06 14.19 62.08 14.33 62.1 14.46 62.11 14.6 62.12 14.74 62.12 14.87 62.13 15.01 62.12 15.14 62.12 15.27 62.11 15.41 62.1 15.55 62.08 15.68 62.06 15.82 62.03 15.96 62 16.1 61.97 16.24 61.93 16.38 61.89 16.52 61.84 16.66 61.79 16.8 61.73 16.94 61.67 17.08 61.6 17.22 61.53 17.36 61.46 17.5 61.38 17.64 61.3 17.77 61.21 17.91 61.11 18.04 61.02 18.17 60.91 18.3 60.81 18.43 60.7 18.56 60.58 18.68 60.46 18.8 60.34 18.92 60.21 19.04 60.08 19.15 59.95 19.26 59.81 19.37 59.67 19.48 59.52 19.58 59.38 19.68 59.22 19.78 59.07 19.87 58.92 19.96 58.76 20.05 58.6 20.13 58.43 20.21 58.27 20.28 58.1 20.36 57.94 20.42 57.77 20.49 57.6 20.55 57.42 20.61 57.25 20.66 57.08 20.71 56.91 20.75 56.73 20.8 56.56 20.83 56.39 20.87 56.21 20.9 56.04 20.93 55.87 20.95 55.7 20.97 55.52 20.99 55.35 21 55.19 21.02 55.02 21.02 54.85 21.03 54.69 21.03 54.65 21.03 54.62 21.03 54.59 21.03 54.56 21.03 54.53 21.04 54.49 21.04 54.46 21.05 54.43 21.05 54.39 21.06 54.36 21.07 54.33 21.07 54.3 21.08 54.26 21.09 54.23 21.1 54.2 21.12 54.16 21.13 54.13 21.14 54.1 21.16 54.07 21.17 54.03 21.19 54 21.2 53.97 21.22 53.94 21.24 53.91 21.26 53.88 21.28 53.85 21.3 53.82 21.32 53.79 21.35 53.76 21.37 53.74 21.39 53.71 21.42 53.68 21.44 53.66 21.47 53.63 21.5 53.61 21.52 53.59 21.55 53.56 21.58 53.54 21.61 53.52 21.64 53.5 21.67 53.48 21.7 53.46 21.73 53.44 21.76 53.43 21.8 53.41 21.83 53.4 21.86 53.38 21.89 53.37 21.92 53.36 21.96 53.34 21.99 53.33 22.02 53.32 22.06 53.31 22.09 53.31 22.12 53.3 22.16 53.29 22.19 53.29 22.22 53.28 22.25 53.28 22.29 53.27 22.32 53.27 22.35 53.27 22.38 53.27 22.41 53.27 22.45 53.27 22.48 53.27 22.51 53.27 22.54 53.27 22.57 53.28 22.61 53.28 22.64 53.29 22.67 53.29 22.7 53.3 22.74 53.31 22.77 53.31 22.8 53.32 22.84 53.33 22.87 53.34 22.9 53.36 22.94 53.37 22.97 53.38 23 53.4 23.03 53.41 23.07 53.43 23.1 53.44 23.13 53.46 23.16 53.48 23.19 53.5 23.22 53.52 23.25 53.54 23.28 53.56 23.31 53.59 23.34 53.61 23.37 53.63 23.4 53.66 23.42 53.68 23.45 53.71 23.47 53.74 23.5 53.76 23.52 53.79 23.55 53.82 23.57 53.85 23.59 53.88 23.61 53.91 23.63 53.94 23.65 53.97 23.67 54 23.69 54.03 23.71 54.07 23.72 54.1 23.74 54.13 23.75 54.16 23.76 54.2 23.78 54.23 23.79 54.26 23.8 54.3 23.81 54.33 23.82 54.36 23.83 54.39 23.83 54.43 23.84 54.46 23.85 54.49 23.85 54.53 23.85 54.56 23.86 54.59 23.86 54.62 23.86 54.65 23.86 54.69 23.86 68.86 23.86 69.02 23.87 69.19 23.87 69.36 23.88 69.53 23.89 69.7 23.91 69.87 23.93 70.04 23.96 70.21 23.99 70.39 24.02 70.56 24.06 70.73 24.1 70.91 24.15 71.08 24.2 71.25 24.26 71.43 24.32 71.6 24.39 71.77 24.46 71.94 24.53 72.11 24.61 72.28 24.69 72.44 24.78 72.61 24.88 72.77 24.97 72.93 25.08 73.09 25.18 73.24 25.29 73.4 25.41 73.55 25.53 73.7 25.65 73.84 25.78 73.98 25.91 74.12 26.04 74.25 26.18 74.39 26.32 74.51 26.47 74.64 26.61 74.75 26.77 74.87 26.92 74.98 27.07 75.09 27.23 75.19 27.39 75.29 27.56 75.38 27.72 75.47 27.89 75.55 28.05 75.63 28.22 75.71 28.39 75.78 28.57 75.84 28.74 75.9 28.91 75.96 29.08 76.01 29.26 76.06 29.43 76.1 29.6 76.14 29.78 76.18 29.95 76.21 30.12 76.23 30.29 76.25 30.47 76.27 30.64 76.28 30.8 76.29 30.97 76.3 31.14 76.3 31.3 76.3 31.47 76.29 31.64 76.28 31.8 76.27 31.97 76.25 32.14 76.23 32.31 76.21 32.49 76.18 32.66 76.14 32.83 76.1 33 76.06 33.18 76.01 33.35 75.96 33.53 75.9 33.7 75.84 33.87 75.78 34.04 75.71 34.21 75.63 34.39 75.55 34.55 75.47 34.72 75.38 34.89 75.29 35.05 75.19 35.22 75.09 35.38 74.98 35.53 74.87 35.69 74.75 35.84 74.64 35.99 74.51 36.14 74.39 36.29 74.25 36.43 74.12 36.57 73.98 36.7 73.84 36.83 73.7 36.96 73.55 37.08 73.4 37.2 73.24 37.32 73.09 37.43 72.93 37.53 72.77 37.63 72.61 37.73 72.44 37.83 72.28 37.91 72.11 38 71.94 38.08 71.77 38.15 71.6 38.22 71.43 38.29 71.25 38.35 71.08 38.41 70.91 38.46 70.73 38.51 70.56 38.55 70.39 38.59 70.21 38.62 70.04 38.65 69.87 38.68 69.7 38.7 69.53 38.72 69.36 38.73 69.19 38.74 69.02 38.74 68.86 38.75 50.43 38.75"/>
      </g>
      <g>
        <line class="cls-4" x1="11.46" y1="50.08" x2="11.46" y2="61.42"/>
        <line class="cls-4" x1="24.21" y1="48.27" x2="24.21" y2="72.76"/>
        <polyline class="cls-4" points="28.47 54.34 28.47 65.67 28.47 65.96 28.48 66.25 28.51 66.54 28.54 66.83 28.59 67.12 28.64 67.4 28.71 67.69 28.78 67.97 28.86 68.25 28.96 68.52 29.06 68.79 29.17 69.06 29.29 69.33 29.42 69.59 29.56 69.84 29.7 70.09 29.86 70.34 30.02 70.58 30.19 70.81 30.37 71.04 30.56 71.26 30.75 71.48 30.96 71.69 31.16 71.89 31.38 72.08 31.6 72.27 31.83 72.45 32.06 72.62 32.3 72.79 32.55 72.94 32.8 73.09 33.06 73.23 33.32 73.35 33.58 73.47 33.85 73.59 34.12 73.69 34.4 73.78 34.67 73.86 34.96 73.94 35.24 74 35.52 74.05 35.81 74.1 36.1 74.13 36.39 74.16 36.68 74.17 36.97 74.18 41.93 74.18"/>
        <line class="cls-4" x1="28.47" y1="64.26" x2="41.93" y2="64.26"/>
        <line class="cls-4" x1="11.46" y1="54.34" x2="41.93" y2="54.34"/>
      </g>
      <g>
        <line class="cls-4" x1="17.13" y1="43.51" x2="31.3" y2="43.51"/>
        <polygon class="cls-4" points="9.33 38.75 9.33 38.59 9.34 38.43 9.35 38.27 9.36 38.1 9.38 37.94 9.4 37.78 9.42 37.61 9.45 37.45 9.48 37.28 9.52 37.11 9.56 36.95 9.61 36.78 9.66 36.61 9.71 36.45 9.77 36.28 9.83 36.12 9.9 35.95 9.97 35.79 10.05 35.63 10.13 35.46 10.21 35.3 10.3 35.15 10.4 34.99 10.5 34.84 10.6 34.68 10.7 34.53 10.81 34.39 10.93 34.24 11.05 34.1 11.17 33.96 11.29 33.83 11.42 33.69 11.56 33.57 11.69 33.44 11.83 33.32 11.97 33.2 12.12 33.09 12.26 32.98 12.41 32.87 12.57 32.77 12.72 32.67 12.88 32.57 13.03 32.49 13.19 32.4 13.35 32.32 13.52 32.24 13.68 32.17 13.85 32.1 14.01 32.04 14.18 31.98 14.34 31.93 14.51 31.88 14.68 31.83 14.84 31.79 15.01 31.75 15.17 31.72 15.34 31.69 15.51 31.67 15.67 31.65 15.83 31.63 15.99 31.62 16.16 31.61 16.32 31.6 16.47 31.6 31.95 31.6 32.11 31.6 32.27 31.61 32.43 31.62 32.59 31.63 32.76 31.65 32.92 31.67 33.09 31.69 33.25 31.72 33.42 31.75 33.58 31.79 33.75 31.83 33.92 31.88 34.08 31.93 34.25 31.98 34.42 32.04 34.58 32.1 34.75 32.17 34.91 32.24 35.07 32.32 35.23 32.4 35.39 32.49 35.55 32.57 35.71 32.67 35.86 32.77 36.01 32.87 36.16 32.98 36.31 33.09 36.45 33.2 36.6 33.32 36.73 33.44 36.87 33.57 37 33.69 37.13 33.83 37.26 33.96 37.38 34.1 37.5 34.24 37.61 34.39 37.72 34.53 37.83 34.68 37.93 34.84 38.03 34.99 38.12 35.15 38.21 35.3 38.3 35.46 38.38 35.63 38.45 35.79 38.53 35.95 38.59 36.12 38.66 36.28 38.72 36.45 38.77 36.61 38.82 36.78 38.86 36.95 38.91 37.11 38.94 37.28 38.98 37.45 39 37.61 39.03 37.78 39.05 37.94 39.07 38.1 39.08 38.27 39.09 38.43 39.09 38.59 39.09 38.75 39.09 41.13 39.09 41.29 39.09 41.44 39.08 41.61 39.07 41.77 39.05 41.93 39.03 42.1 39 42.26 38.98 42.43 38.94 42.59 38.91 42.76 38.86 42.93 38.82 43.09 38.77 43.26 38.72 43.42 38.66 43.59 38.59 43.76 38.53 43.92 38.45 44.08 38.38 44.25 38.3 44.41 38.21 44.57 38.12 44.73 38.03 44.88 37.93 45.04 37.83 45.19 37.72 45.34 37.61 45.48 37.5 45.63 37.38 45.77 37.26 45.91 37.13 46.05 37 46.18 36.87 46.31 36.73 46.43 36.6 46.55 36.45 46.67 36.31 46.79 36.16 46.9 36.01 47 35.86 47.11 35.71 47.2 35.55 47.3 35.39 47.39 35.23 47.47 35.07 47.55 34.91 47.63 34.75 47.7 34.58 47.77 34.42 47.83 34.25 47.89 34.08 47.94 33.92 47.99 33.75 48.04 33.58 48.08 33.42 48.12 33.25 48.15 33.09 48.18 32.92 48.2 32.76 48.22 32.59 48.24 32.43 48.25 32.27 48.26 32.11 48.27 31.95 48.27 16.47 48.27 16.32 48.27 16.16 48.26 15.99 48.25 15.83 48.24 15.67 48.22 15.51 48.2 15.34 48.18 15.17 48.15 15.01 48.12 14.84 48.08 14.68 48.04 14.51 47.99 14.34 47.94 14.18 47.89 14.01 47.83 13.85 47.77 13.68 47.7 13.52 47.63 13.35 47.55 13.19 47.47 13.03 47.39 12.88 47.3 12.72 47.2 12.57 47.11 12.41 47 12.26 46.9 12.12 46.79 11.97 46.67 11.83 46.55 11.69 46.43 11.56 46.31 11.42 46.18 11.29 46.05 11.17 45.91 11.05 45.77 10.93 45.63 10.81 45.48 10.7 45.34 10.6 45.19 10.5 45.04 10.4 44.88 10.3 44.73 10.21 44.57 10.13 44.41 10.05 44.25 9.97 44.08 9.9 43.92 9.83 43.76 9.77 43.59 9.71 43.42 9.66 43.26 9.61 43.09 9.56 42.93 9.52 42.76 9.48 42.59 9.45 42.43 9.42 42.26 9.4 42.1 9.38 41.93 9.36 41.77 9.35 41.61 9.34 41.44 9.33 41.29 9.33 41.13 9.33 38.75"/>
        <line class="cls-4" x1="10.04" y1="25.99" x2="38.39" y2="25.99"/>
        <polyline class="cls-4" points="41.93 38.75 27.76 38.75 27.76 25.99"/>
        <polyline class="cls-4" points="6.5 38.75 20.67 38.75 20.67 25.99"/>
      </g>
      <polyline class="cls-4" points="12.87 22.15 24.21 13.65 35.55 22.15"/>
    </g>
    <polygon class="cls-1" points="46.18 37.33 46.13 37.33 46.08 37.33 46.03 37.34 45.99 37.34 45.94 37.35 45.89 37.36 45.84 37.37 45.79 37.38 45.75 37.4 45.7 37.41 45.65 37.43 45.61 37.45 45.56 37.47 45.52 37.49 45.48 37.52 45.43 37.54 45.39 37.57 45.35 37.6 45.31 37.63 45.27 37.66 45.24 37.69 45.2 37.72 45.17 37.76 45.13 37.79 45.1 37.83 45.07 37.87 45.04 37.91 45.01 37.95 44.98 37.99 44.96 38.03 44.93 38.07 44.91 38.12 44.89 38.16 44.87 38.21 44.85 38.25 44.84 38.3 44.82 38.35 44.81 38.39 44.8 38.44 44.79 38.49 44.78 38.54 44.77 38.59 44.77 38.63 44.77 38.68 44.76 38.73 44.76 38.78 44.77 38.83 44.77 38.88 44.78 38.93 44.78 38.98 44.79 39.03 44.8 39.07 44.82 39.12 44.83 39.17 44.84 39.22 44.86 39.26 44.88 39.31 44.9 39.35 44.92 39.4 44.95 39.44 44.97 39.48 45 39.52 45.02 39.56 45.05 39.6 45.08 39.64 45.12 39.68 45.15 39.72 45.18 39.75 45.22 39.79 45.26 39.82 45.29 39.85 45.33 39.88 45.37 39.91 45.41 39.94 45.46 39.96 45.5 39.99 45.54 40.01 45.59 40.03 45.63 40.05 45.68 40.07 45.72 40.09 45.77 40.1 45.82 40.12 45.86 40.13 45.91 40.14 45.96 40.15 46.01 40.15 46.06 40.16 46.11 40.16 46.16 40.16 46.21 40.16 46.26 40.16 46.3 40.16 46.35 40.15 46.4 40.15 46.45 40.14 46.5 40.13 46.55 40.12 46.59 40.1 46.64 40.09 46.69 40.07 46.73 40.05 46.78 40.03 46.82 40.01 46.87 39.99 46.91 39.96 46.95 39.94 46.99 39.91 47.03 39.88 47.07 39.85 47.11 39.82 47.14 39.79 47.18 39.75 47.21 39.72 47.25 39.68 47.28 39.64 47.31 39.6 47.34 39.56 47.37 39.52 47.39 39.48 47.42 39.44 47.44 39.4 47.46 39.35 47.48 39.31 47.5 39.26 47.52 39.22 47.53 39.17 47.55 39.12 47.56 39.07 47.57 39.03 47.58 38.98 47.59 38.93 47.59 38.88 47.6 38.83 47.6 38.78 47.6 38.73 47.6 38.68 47.59 38.63 47.59 38.59 47.58 38.54 47.58 38.49 47.57 38.44 47.55 38.39 47.54 38.35 47.53 38.3 47.51 38.25 47.49 38.21 47.47 38.16 47.45 38.12 47.43 38.07 47.4 38.03 47.38 37.99 47.35 37.95 47.32 37.91 47.29 37.87 47.26 37.83 47.23 37.79 47.2 37.76 47.16 37.72 47.13 37.69 47.09 37.66 47.05 37.63 47.01 37.6 46.97 37.57 46.93 37.54 46.89 37.52 46.84 37.49 46.8 37.47 46.76 37.45 46.71 37.43 46.66 37.41 46.62 37.4 46.57 37.38 46.52 37.37 46.47 37.36 46.43 37.35 46.38 37.34 46.33 37.34 46.28 37.33 46.23 37.33 46.18 37.33"/>
  </g>
</svg>