<?xml version="1.0" encoding="utf-8"?>
<!-- Generator: Adobe Illustrator 22.1.0, SVG Export Plug-In . SVG Version: 6.00 Build 0)  -->
<svg version="1.1" id="tw_plants" xmlns="http://www.w3.org/2000/svg" xmlns:xlink="http://www.w3.org/1999/xlink" x="0px" y="0px"
	 viewBox="0 0 507.1 702" style="enable-background:new 0 0 507.1 702;" xml:space="preserve">
<style type="text/css">
	.st0{fill:#473835;}
	.st1{fill:#8F4937;}
	.st2{fill:#B06F4D;}
	.st3{fill:#E69A52;}
	.st4{fill:#F0DA64;}
	.st5{fill:#908D60;}
	.st6{fill:#EFC29B;}
	.st7{fill:none;stroke:#B06F4D;stroke-miterlimit:10;}
</style>
<g>
	<path class="st0" d="M373.5,575.1c0.6-1.2,1.9-4.2,1.8-6.8c0-0.1,0-0.2,0.1-0.3c0.1,0,0.2,0,0.3,0c0.9,0.6,3.9,1.3,4.2,1
		c0.5-0.6,0.1-2,0-2.5c0-0.1,0-0.2-0.1-0.3c-0.1-0.3-0.3-1.3-0.5-1.6c-0.1-0.1-0.2-0.2-0.2-0.3c0-0.2,0.1-0.3,0.3-0.3l0,0l0,0
		c0,0,2.5-0.3,3-0.4c1.1-0.2,2.5-0.5,3.2-1c-1.5-1.4-4-1-5.1-0.7c-0.4,0.1-4.3,1.6-4.7,2c0,0,0,0.1-0.1,0.1c-0.1,0.1-0.3,0-0.5-0.1
		l0,0c0,0-0.4-1.3-1-2.3c-0.2-0.4-0.7-0.7-1.1-0.6c-0.5,0.1-1,0.2-1.2,0.2c1,1.3,2.5,3.3,2.6,3.7l0,0c0.1,0.5-0.4,1.4-1.3,2.8
		c-0.5,0.9-1.2,1.9-1.2,2.3C372,571.6,372.5,573.4,373.5,575.1L373.5,575.1z"/>
	<g>
		<path class="st1" d="M384.9,561.5c0.1,0,0.2-0.1,0.3-0.1c0,0.2-0.1,0.3-0.1,0.5c0,0.1,0,0.2,0.2,0.2c0.9,0,1.8-0.1,2.7-0.5
			c0.4-0.2,0.7-0.4,0.8-0.8c0.2,0,0.5,0,0.7,0c0.2,0.3,0.4,0.6,0.6,0.8c0.5,0.6,1.1,0.7,1.6,0.1c0.1-0.1,0.1-0.2,0-0.4
			s-0.3-0.2-0.4-0.4c0.1,0,0.1,0,0.2,0c0,0,0.1,0,0.1,0c0.4,0.2,0.7,0.2,1.1,0.4c-0.6,1.2-1.1,2.3-1.7,3.5c0.8,0,2.4-0.5,3-0.8
			c0.4-0.3,0.7-0.6,0.6-1.1c0.2,0.3,0.4,0.6,0.5,0.9c0,0,0,0.1-0.1,0.1c-0.6,1-1.2,2-1.7,3.1c-0.2,0.5-0.5,1.1-0.5,1.7
			c0,0.1,0,0.2,0,0.3c0.1,0,0.2,0,0.3-0.1c0.8-0.4,1.6-0.9,2.4-1.4c0,0.2,0,0.4-0.1,0.6c0.7-0.2,1.4-0.4,2.1-0.5c0,0.1,0,0.2,0,0.3
			c-0.1,0.5,0,1,0.2,1.4c0.3,0.5,0.4,0.5,0.9,0.4c0.1,0.4-0.1,0.8-0.4,1c-0.5,0.3-1.1,0.6-1.6,1c-0.1,0-0.1,0.1-0.2,0.2
			c1-0.2,2-0.3,2.9-0.5c-0.1,0.2-0.2,0.4-0.3,0.6c-0.3,0.8-0.3,1.6,0.2,2.4c0.1,0.2,0.2,0.2,0.3,0.2c0,0.2,0,0.3-0.3,0.2
			c-0.3,0-0.5,0-0.8-0.1c-0.1-0.3-0.2-0.7-0.3-1.1c-0.1-0.4-0.3-0.9-0.5-1.2c-0.2-0.3-0.4-0.4-0.7-0.1c-0.1,0.1-0.2,0.2-0.3,0.4
			c-0.5,0.8-0.9,1.6-1.2,2.5c-0.1,0.4-0.2,0.8-0.3,1.2c0,0.1,0,0.3,0.1,0.3c1,0.2,2.1,0.2,3.1-0.3c0.2-0.1,0.3-0.2,0.3-0.4
			c0.4-0.1,0.7-0.1,1.1-0.2c0,0.1-0.1,0.2-0.1,0.3c-0.3,0.5-0.4,1-0.4,1.6c0,0.5,0.2,0.9,0.5,1.3c-0.2,0-0.5,0-0.7,0
			c-0.2,0-0.5,0-0.7,0c-0.7-0.1-1.4-0.1-2,0.1c-0.2,0-0.4,0.1-0.5,0.3c-0.5,0.9-0.8,1.9-0.5,3c0.1,0.5,0.1,0.5,0.6,0.4
			c0.1,0,0.2,0,0.3-0.1c1.1-0.4,1.9-1.2,2.5-2.2c0.6,0,1.2,0.1,1.9,0.1c-0.1,0.1-0.2,0.2-0.2,0.3c-0.4,0.7-0.6,1.4-0.2,2.2
			c0,0.1,0.1,0.2,0.2,0.2c0,0.2-0.1,0.3-0.3,0.3c-0.7,0-1.4,0-2,0c-0.1,0-0.1,0-0.2,0c-0.3-0.1-0.7,0-1,0c0.3,0.2,0.5,0.4,0.8,0.6
			c-0.6,0.2-1.3,0.5-1.8,0.9c-0.1,0-0.1,0.1-0.2,0.2c-0.1,0.8-0.3,1.7-0.5,2.5c0,0.2,0,0.2,0.2,0.2c0.8-0.1,1.5-0.4,2.1-1
			c0.6-0.6,1-1.4,1.1-2.2c0.3,0.1,0.5,0.4,0.8,0.4c0.1,0,0.1,0.1,0.2,0c0.5,0.1,0.9,0,1.4,0c0.1,0,0.2,0,0.3,0
			c0,0.2-0.2,0.2-0.3,0.3c-0.3,0.3-0.7,0.7-0.9,1.1c0.5,0.2,1,0.4,1.6,0.6c-0.1,0.2-0.2,0-0.3,0c-0.1,0-0.1,0-0.2,0
			c-0.6-0.1-1.1-0.3-1.7-0.4c0,0,0,0,0,0c0.8,0.7,1.6,1.3,2.4,2c-0.4,0.1-0.8,0.2-1.3,0.2c-0.2,0-0.3,0.1-0.3,0.3
			c-0.1,0.6-0.1,1.1-0.3,1.7c-0.1,0.1-0.2,0-0.3,0c-0.7-0.8-1.3-1.6-2-2.5c0,0.3,0,0.6,0,0.9c0,0.2,0,0.5,0,0.7c0,0.2,0,0.2-0.2,0.2
			c-0.1-0.6,0-1.2-0.1-1.8c-0.5,0.5-1,1-1.5,1.5c-0.2,0.2-0.3,0.3-0.5,0.5c0-0.2,0.1-0.3,0.1-0.5c0-0.1,0-0.1,0-0.2
			c0.1-0.5,0.2-0.9,0.3-1.4c0.1-0.4,0.1-0.4-0.3-0.4c-0.2,0-0.4-0.1-0.5-0.3c-0.4-0.5-0.8-1.1-1.3-1.6c0,0.5,0,0.9,0.1,1.3
			c-0.1,0.1,0,0.2,0,0.3c0,0.5,0.1,0.9,0.1,1.4c0,0-0.1,0-0.1,0c-0.7-0.4-1.4-0.2-2,0.1c-0.2,0.1-0.4,0.3-0.6,0.4c0-0.1,0-0.2,0-0.3
			c0.1-0.1,0-0.1,0-0.2c0-0.5,0-0.9,0-1.4c0-0.1-0.1-0.1-0.2-0.1c-0.2,0-0.5,0-0.7,0c-0.1,0-0.1,0-0.2,0c-0.1,0-0.1,0.1-0.1,0.2
			c0,0.3,0,0.6,0,0.9c0,0.2,0,0.2-0.2,0.2c0-0.2-0.2-0.3-0.3-0.3c-0.6-0.3-1.3-0.1-1.9,0.2c-0.2,0.1-0.4,0.3-0.7,0.4
			c0-0.1,0-0.1,0-0.2c0.1-0.1,0.1-0.3,0-0.4c0,0,0.1-0.1,0-0.1l0,0c0.1-0.3,0.1-0.5,0.1-0.8c0-0.4,0-0.4-0.4-0.4c0,0-0.1,0-0.1,0
			c-0.3-0.1-0.6-0.1-0.9-0.2c-0.1,0-0.1,0.1-0.2,0.2c-0.1,0.3-0.1,0.7-0.2,1c0,0.1,0,0.2-0.1,0.3c0-0.1,0-0.2,0-0.3
			c0-0.3-0.1-0.4-0.3-0.5c-0.5-0.2-1.1-0.2-1.6,0.1c-0.2,0.1-0.4,0.3-0.6,0.3c-0.1-0.5-0.2-1-0.3-1.6c-0.1,0.2-0.3,0.3-0.4,0.4
			c-0.1,0.2-0.2,0.2-0.4,0.1c0-0.2,0.2-0.4,0-0.6c-0.1-0.1-0.3-0.3-0.5-0.3c-0.6-0.3-1.2-0.2-1.8,0c-0.1,0-0.3,0.1-0.4,0
			c0,0,0-0.1,0-0.1c0-0.4,0-0.5-0.4-0.5c0.4-0.6,0.7-1.2,0.9-1.9c-1,0-1.9,0.1-2.9,0.2c-0.7,0-1.4,0.1-2.1,0.1c0,0,0,0,0,0
			c0.3-0.1,0.4-0.3,0.6-0.5c0.3-0.5,0.4-1,0.5-1.6c0.1-0.5,0.2-1,0.2-1.6c-0.3,0.2-0.5,0.3-0.8,0.4c-0.6,0.3-1.2,0.7-1.9,1
			c-0.1-0.4-0.1-0.8-0.2-1.2c0.1,0.1,0.2,0.2,0.3,0.1c0.4-0.3,0.6-0.8,0.3-1.3c-0.2-0.3-0.6-0.5-0.9-0.7c0-0.2,0-0.4,0-0.6
			c0.3-0.3,0.5-0.8,0.6-1.2c0.2-0.7,0.2-1.5,0.2-2.2c0-0.2-0.1-0.2-0.2-0.2c-0.1,0-0.3,0.1-0.4,0.1c0-0.1,0-0.2,0-0.3
			c0.2-0.1,0.3-0.2,0.4-0.4c0.7-0.9,1.1-2,1.5-3.1c-0.4,0.1-0.7,0.3-1,0.4c0.1-0.3,0.3-0.7,0.5-1c0,0.1,0,0.2,0.1,0.4
			c0.6-0.6,1.2-1.2,1.7-2c0.3-0.5,0.6-1,0.5-1.6c0-0.1,0.1-0.1,0.1-0.1c0.4,0,0.7-0.2,1.1-0.4c0.6-0.3,1.1-0.8,1.6-1.2
			c0.5-0.5,1-1.1,1.6-1.7c-0.3,0-0.5,0.1-0.7,0c0.1-0.1,0.1-0.2,0.2-0.2c0.1-0.1,0.1-0.1,0.2-0.2c0.4-0.2,0.7-0.4,1.1-0.7
			c0.1-0.1,0.2,0,0.3-0.1c0,0.4-0.3,0.7-0.3,1c0.1,0,0.1,0,0.1,0c0.8-0.3,1.5-0.7,2.3-1.1C384.3,562.1,384.7,561.9,384.9,561.5
			L384.9,561.5z M389.1,578.4c-0.1,0.1-0.1,0.2-0.2,0.3c-0.8,1.4-0.9,2.9-0.9,4.5c0,0.2,0.1,0.1,0.2,0.1c1.9-0.7,3.6-1.7,4.8-3.4
			c0.5-0.8,0.8-1.6,1-2.5c0-0.2,0-0.2-0.2-0.3c-1.2-0.1-2.3,0.1-3.4,0.6C389.9,577.9,389.5,578.1,389.1,578.4L389.1,578.4z
			 M387.1,576.6c0.3-0.3,0.6-0.6,0.8-1c0.5-0.7,0.9-1.5,1.1-2.4c0.1-0.2,0-0.3-0.2-0.4c-0.3-0.1-0.6-0.1-1-0.1
			c-1.2,0.2-2.4,0.6-3.5,1.1c-0.1,0-0.1,0.1-0.2,0.2c-0.5,1.2-0.9,2.4-1.1,3.7c0,0.3,0,0.5,0.1,0.8c0.1,0.3,0.3,0.4,0.5,0.3
			C385,578.3,386.1,577.6,387.1,576.6L387.1,576.6z M380.5,580.3c0.1-0.1,0.3-0.3,0.4-0.5c0.7-0.8,1.1-1.8,1.4-2.8
			c0-0.2,0-0.2-0.1-0.3c-0.3-0.2-0.7-0.2-1-0.1c-1.2,0.2-2.4,0.6-3.5,1.1c-0.1,0-0.1,0.1-0.2,0.2c-0.5,1.2-0.9,2.4-1.1,3.7
			c0,0.3,0,0.5,0.1,0.8c0.1,0.2,0.2,0.3,0.5,0.2C378.3,582,379.5,581.3,380.5,580.3L380.5,580.3z M385.6,569
			c-0.1-0.1-0.1-0.1-0.2-0.1c-0.4-0.1-0.8-0.1-1.2,0c-1.1,0.2-2.2,0.6-3.2,1.1c-0.1,0-0.2,0.1-0.2,0.3c-0.4,0.9-0.7,1.9-0.9,2.9
			c-0.1,0.5-0.2,1-0.1,1.4c0.1,0.3,0.2,0.4,0.6,0.3c1.7-0.6,3.1-1.6,4.1-3.1c0.5-0.7,0.9-1.5,1.1-2.4
			C385.7,569.2,385.8,569.1,385.6,569L385.6,569z M385.2,583.4c0.8-0.8,1.4-1.9,1.8-3.2c0-0.2,0-0.3-0.2-0.4
			c-0.4-0.2-0.7-0.2-1.1-0.1c-1.2,0.2-2.3,0.6-3.4,1.1c-0.1,0-0.1,0.1-0.2,0.2c-0.4,1.2-0.9,2.3-1,3.6c0,0.3,0,0.6,0.1,0.9
			c0.1,0.3,0.2,0.3,0.5,0.2C382.9,585.2,384.1,584.5,385.2,583.4L385.2,583.4z M394.5,573.6c0.7-0.8,1.4-1.9,1.7-3.2
			c0.1-0.2,0-0.3-0.2-0.4c-0.4-0.2-0.7-0.1-1.1-0.1c-1.2,0.2-2.3,0.6-3.4,1.1c-0.1,0-0.1,0.1-0.2,0.2c-0.4,1.2-0.9,2.3-1,3.6
			c0,0.3-0.1,0.6,0.1,0.9c0.1,0.2,0.2,0.3,0.5,0.2C392.2,575.5,393.4,574.8,394.5,573.6L394.5,573.6z M390.8,569.8
			c0.9-1,1.6-2.1,1.9-3.3c0.1-0.3,0-0.4-0.3-0.5c-0.3-0.1-0.7-0.1-1,0c-0.9,0.1-1.8,0.5-2.7,0.8c-0.6,0.2-0.9,0.5-1.1,1.1
			c-0.3,1-0.6,1.9-0.8,2.9c0,0.3-0.1,0.7,0.1,1c0.1,0.2,0.2,0.3,0.5,0.2C388.7,571.4,389.9,570.7,390.8,569.8L390.8,569.8z M376,572
			L376,572c0.1-0.1,0.2-0.2,0.3-0.3c1-1.1,1.6-2.4,2.1-3.7c0.1-0.3,0-0.4-0.3-0.4s-0.5,0-0.8,0.2c-0.3,0.2-0.6,0.4-0.9,0.6
			c-0.5,0.4-0.7,0.8-0.8,1.4s-0.1,1.2,0,1.8c0.1,0.5-0.1,0.8-0.5,1.1c-0.6,0.4-1.1,0.9-1.3,1.7c-0.2,1.1-0.2,2.2,0.3,3.2
			c0.1,0.2,0.1,0.2,0.3,0.1c0.4-0.3,0.8-0.7,1.2-1.2c0.9-1.2,1.4-2.5,1.6-3.9c0-0.4-0.1-0.6-0.5-0.6
			C376.5,571.7,376.3,571.8,376,572L376,572z M388.4,564.8c0.5-0.5,0.9-1,1.3-1.5c0.2-0.2,0.1-0.5-0.1-0.6c-0.2-0.1-0.5-0.1-0.7-0.1
			c-0.9,0-1.7,0.2-2.6,0.4c-0.5,0.2-0.9,0.5-1.2,0.9c-0.6,0.9-0.7,1.9-0.6,2.9c0,0.2,0.1,0.2,0.2,0.2c0.5,0,1-0.2,1.4-0.4
			C386.9,566.2,387.7,565.6,388.4,564.8L388.4,564.8z M383,567c0.6-0.6,1.1-1.3,1.4-2.2c0.1-0.2,0-0.3-0.2-0.4s-0.5,0-0.7,0
			c-1,0.2-2,0.7-2.9,1.1c-0.2,0.1-0.3,0.2-0.4,0.4c-0.6,1-0.8,2.2-1,3.3c0,0.2,0.1,0.2,0.2,0.1C380.6,568.8,381.9,568.1,383,567
			L383,567z M392.2,586.5c0.6-0.7,1-1.5,1.2-2.4c0-0.1,0-0.2-0.1-0.2c-0.2,0-0.4-0.1-0.6-0.1c-0.7-0.1-1.4-0.1-2,0.1
			c-0.1,0-0.3,0.1-0.3,0.2c-0.6,1-0.9,2.2-0.5,3.4c0.1,0.2,0.2,0.2,0.3,0.2C390.9,587.5,391.6,587.1,392.2,586.5L392.2,586.5z
			 M387.3,587.2c0.6-0.7,0.7-1.7,0.6-2.4c0-0.1-0.1-0.2-0.2-0.2c-0.3,0-0.5,0-0.8,0c-1.2,0.2-2.3,0.6-3.3,1.4
			c-0.1,0.1-0.1,0.2,0,0.2c0.1,0.1,0.3,0.2,0.5,0.3c0.9,0.4,1.8,0.6,2.7,0.8C387.1,587.4,387.2,587.4,387.3,587.2L387.3,587.2z"/>
		<g>
			<path class="st2" d="M380.1,563.7c0.2,0,0.5-0.1,0.7,0c-0.5,0.6-1,1.1-1.6,1.7c-0.5,0.5-1,0.9-1.6,1.2c-0.3,0.2-0.7,0.4-1.1,0.4
				c-0.1,0-0.1,0-0.1,0.1c0.1,0.6-0.2,1.1-0.5,1.6c-0.5,0.7-1.1,1.3-1.7,2c-0.1-0.1,0-0.3-0.1-0.4c0-0.6,0-1.2-0.1-1.7
				c0-0.4,0.1-0.8,0.4-1c0.5-0.3,1-0.4,1.6-0.5c0.3,0,0.4-0.1,0.4-0.4c0-0.4,0.1-0.8,0.3-1.1c0.2-0.6,0.5-1.2,1.2-1.4
				c0.5-0.1,1.1-0.1,1.6-0.2C379.7,563.7,379.9,563.7,380.1,563.7L380.1,563.7z"/>
			<path class="st2" d="M398.7,576.3c0.1,0.2-0.1,0.3-0.3,0.4c-1,0.5-2,0.5-3.1,0.3c-0.2,0-0.1-0.2-0.1-0.3c0-0.4,0.1-0.8,0.3-1.2
				c0.3-0.9,0.7-1.7,1.2-2.5c0.1-0.1,0.2-0.3,0.3-0.4c0.3-0.3,0.5-0.2,0.7,0.1c0.2,0.4,0.4,0.8,0.5,1.2c0.1,0.3,0.2,0.7,0.3,1.1
				C398.6,575.4,398.6,575.8,398.7,576.3z"/>
			<path class="st2" d="M395.5,567.9c-0.8,0.5-1.6,1-2.4,1.4c-0.1,0-0.2,0.2-0.3,0.1c-0.1-0.1,0-0.2,0-0.3c0-0.6,0.3-1.2,0.5-1.7
				c0.5-1.1,1.1-2.1,1.7-3.1c0,0,0-0.1,0.1-0.1c0.1-0.2,0.3-0.3,0.3-0.5c0.1-0.2,0.2-0.1,0.3,0c0.1,0.2,0.3,0.4,0.3,0.6
				c0,0.1,0,0.2,0.1,0.2c-0.1,0.1,0,0.1,0.1,0.2c0.1,0.5,0.1,0.9,0.2,1.4c0.3,0.8-0.2,1.3-0.8,1.7
				C395.6,567.8,395.6,567.8,395.5,567.9L395.5,567.9z"/>
			<path class="st2" d="M398.7,580.7c-0.5,1-1.3,1.8-2.5,2.2c-0.1,0-0.2,0.1-0.3,0.1c-0.5,0.1-0.5,0.1-0.6-0.4c-0.2-1.1,0-2,0.5-3
				c0.1-0.2,0.3-0.3,0.5-0.3c0.7-0.2,1.4-0.1,2-0.1c0.2,0,0.5,0,0.7,0c0.1,0.1,0.1,0.2,0,0.3C399,579.9,398.9,580.3,398.7,580.7
				L398.7,580.7z"/>
			<path class="st2" d="M374.4,584.2c0.7,0,1.4-0.1,2.1-0.1c1,0,1.9-0.1,2.9-0.2c-0.2,0.7-0.5,1.3-0.9,1.9c-0.3,0.5-0.7,0.6-1.3,0.5
				c-0.1,0-0.2-0.1-0.3,0c0,0-0.1-0.1-0.1-0.1c-1-0.3-1.8-0.9-2.3-1.8C374.4,584.3,374.3,584.3,374.4,584.2L374.4,584.2z"/>
			<path class="st2" d="M399.5,574.9c-0.1,0-0.3-0.1-0.3-0.2c-0.5-0.8-0.5-1.6-0.2-2.4c0.1-0.2,0.2-0.4,0.3-0.6c0,0,0.1-0.1,0.1-0.1
				c0.3-0.5,0.6-0.5,1-0.1c0.4,0.3,0.7,0.8,0.9,1.3c0.2,0.4,0.4,0.9,0.5,1.3c0,0.2,0,0.2-0.1,0.3c-0.5,0.4-1,0.5-1.6,0.5
				C400,574.9,399.7,574.9,399.5,574.9L399.5,574.9z"/>
			<path class="st2" d="M399.8,579.2c-0.2-0.4-0.4-0.8-0.5-1.3c0-0.6,0.1-1.1,0.4-1.6c0-0.1,0.1-0.2,0.1-0.3
				c0.1-0.1,0.1-0.2,0.2-0.3c0.2-0.3,0.3-0.3,0.6-0.2c0.5,0.2,0.7,0.6,1,1c0.3,0.5,0.5,1.1,0.6,1.6c0,0.1,0,0.2-0.1,0.3
				c-0.2,0.2-0.4,0.3-0.6,0.3C401.1,579.2,400.4,579.3,399.8,579.2L399.8,579.2z"/>
			<path class="st2" d="M373.1,581.8c0.6-0.3,1.2-0.7,1.9-1c0.3-0.1,0.5-0.3,0.8-0.4c0,0.6-0.1,1.1-0.2,1.6
				c-0.1,0.5-0.3,1.1-0.5,1.6c-0.1,0.2-0.3,0.4-0.6,0.5c-0.5,0.1-0.8-0.2-1.1-0.5c-0.3-0.4-0.6-0.8-0.9-1.2c-0.1-0.1,0-0.2,0.1-0.2
				C372.6,582.1,372.9,582,373.1,581.8L373.1,581.8z"/>
			<path class="st2" d="M394.6,563.2c0.1,0.5-0.2,0.8-0.6,1.1c-0.6,0.4-2.3,0.8-3,0.8c0.6-1.2,1.1-2.3,1.7-3.5l0,0
				c0.4,0.3,0.8,0.5,1.1,0.7C394.2,562.6,394.4,562.9,394.6,563.2L394.6,563.2z"/>
			<path class="st2" d="M388.9,560.9c-0.1,0.4-0.4,0.6-0.8,0.8c-0.9,0.3-1.8,0.4-2.7,0.5c-0.1,0-0.2-0.1-0.2-0.2
				c0-0.2,0.1-0.3,0.1-0.5c0.2-0.3,0.4-0.5,0.7-0.8c0.2-0.3,0.5-0.4,0.8-0.3c0.1,0,0.2,0.1,0.3,0c0,0,0.1,0,0.1,0
				c0.2,0,0.4,0.1,0.6,0.1c0,0,0.1,0,0.2,0c0.1,0,0.3,0,0.4,0.1c0.1,0,0.1,0,0.2,0C388.8,560.5,388.8,560.7,388.9,560.9L388.9,560.9
				z"/>
			<path class="st2" d="M372.7,574.6c0.1,0,0.3-0.1,0.4-0.1c0.1,0,0.2,0.1,0.2,0.2c0,0.7,0,1.5-0.2,2.2c-0.1,0.5-0.3,0.9-0.6,1.2
				c-0.1,0-0.2,0.1-0.3,0.1c-0.3,0.1-0.4,0-0.4-0.3c-0.1-0.7-0.2-1.3-0.4-2c0-0.2,0-0.3,0.1-0.4
				C371.9,575.2,372.3,574.9,372.7,574.6L372.7,574.6z"/>
			<path class="st2" d="M378.8,586.5c0.1,0,0.3,0,0.4,0c0.6-0.2,1.2-0.3,1.8,0c0.2,0.1,0.3,0.2,0.5,0.3c0.2,0.2,0,0.4,0,0.6
				c-0.1,0.1-0.1,0.3-0.2,0.4c0,0.1-0.1,0.2-0.1,0.3c-0.6,0.9-0.6,0.7-1.3,0.3c-0.4-0.2-0.7-0.5-0.9-0.8c0-0.1-0.1-0.2-0.1-0.2
				C378.6,587,378.6,586.7,378.8,586.5L378.8,586.5z"/>
			<path class="st2" d="M386.9,589.4c0.3-0.1,0.5-0.3,0.7-0.4c0.6-0.3,1.2-0.4,1.9-0.2c0.1,0.1,0.3,0.2,0.3,0.3
				c-0.1,0.3-0.1,0.7-0.2,1c0,0.1,0,0.2-0.1,0.2c0,0.2-0.2,0.3-0.3,0.5l-0.1,0.1c-0.7-0.1-1.3-0.3-1.9-0.7c-0.1,0-0.1-0.1-0.2-0.2
				C386.9,589.9,386.8,589.7,386.9,589.4L386.9,589.4z"/>
			<path class="st2" d="M400.4,583.5c-0.1,0-0.2-0.1-0.2-0.2c-0.4-0.8-0.2-1.5,0.2-2.2c0.1-0.1,0.2-0.2,0.2-0.3
				c0.2-0.2,0.4-0.2,0.6,0c0.3,0.2,0.5,0.5,0.6,0.8c0.1,0.3,0.3,0.7,0.4,1c0,0.2,0,0.3-0.1,0.4c-0.2,0.2-0.5,0.3-0.7,0.3
				c0,0-0.1,0-0.1,0.1C401,583.5,400.7,583.5,400.4,583.5L400.4,583.5z"/>
			<path class="st2" d="M398.6,570.1c-0.5,0.2-0.6,0.1-0.9-0.4c-0.3-0.5-0.3-0.9-0.2-1.4c0-0.1,0-0.2,0-0.3c0-0.1,0.1-0.2,0.1-0.3
				c0.1-0.3,0.2-0.3,0.5-0.3c0.3,0.1,0.6,0.3,0.8,0.5c0.3,0.3,0.6,0.7,0.8,1.1c0.1,0.2,0.1,0.3,0,0.4c-0.3,0.3-0.6,0.5-0.9,0.7
				C398.8,570,398.7,570,398.6,570.1L398.6,570.1z"/>
			<path class="st2" d="M391.1,589.9c0.2-0.1,0.4-0.3,0.6-0.4c0.6-0.4,1.3-0.5,2-0.1c0,0,0.1,0,0.1,0c0,0.6,0,1.2-0.3,1.7
				c-0.2,0.4-0.2,0.4-0.6,0.3c-0.3-0.1-0.6-0.1-0.8-0.3c-0.1,0-0.1-0.1-0.2-0.1c-0.3-0.1-0.6-0.3-0.8-0.6
				C391.1,590.3,391,590.1,391.1,589.9L391.1,589.9z"/>
			<path class="st2" d="M382.5,588.4c0.2,0,0.4-0.2,0.6-0.3c0.5-0.2,1-0.3,1.6-0.1c0.2,0.1,0.4,0.2,0.3,0.5c0,0.1,0,0.2,0,0.3
				c-0.1,0.4-0.1,0.8-0.3,1.1c-0.1,0.3-0.3,0.4-0.6,0.3c0,0-0.1,0-0.1,0c0-0.1-0.1-0.1-0.2-0.1c-0.4-0.1-0.7-0.2-1.1-0.5
				c-0.1-0.1-0.2-0.2-0.3-0.3c-0.3-0.3-0.3-0.5,0-0.8C382.5,588.5,382.5,588.5,382.5,588.4L382.5,588.4z"/>
			<path class="st2" d="M399.9,591.3c0.1-0.5,0.2-1.1,0.3-1.7c0-0.2,0.1-0.3,0.3-0.3c0.4-0.1,0.8-0.2,1.3-0.2c0.2,0,0.3-0.1,0.5-0.1
				c0,0.7-0.1,1.4-0.5,2c-0.4,0.6-1.1,0.7-1.8,0.4C400,591.3,399.9,591.3,399.9,591.3L399.9,591.3z"/>
			<path class="st2" d="M384.9,561.5c-0.2,0.5-0.6,0.7-1,1c-0.7,0.4-1.5,0.8-2.3,1.1c0,0-0.1,0-0.1,0c0.1-0.4,0.3-0.7,0.3-1
				c0.2-0.3,0.3-0.7,0.4-1c0.1-0.2,0.1-0.2,0.3-0.2c0.7,0,1.5,0,2.2,0C384.8,561.4,384.9,561.4,384.9,561.5
				C384.9,561.4,385,561.5,384.9,561.5L384.9,561.5z"/>
			<path class="st2" d="M373.6,571.2c0.3-0.1,0.6-0.3,1-0.4c-0.4,1.1-0.8,2.2-1.5,3.1c-0.1,0.2-0.3,0.3-0.4,0.4
				c-0.1,0-0.2,0-0.2-0.1c0-0.8-0.1-1.5-0.1-2.3c0-0.2,0.1-0.2,0.2-0.2C373,571.5,373.3,571.4,373.6,571.2L373.6,571.2z"/>
			<path class="st2" d="M401.6,587.3c-0.5-0.2-1-0.4-1.6-0.6c0.2-0.4,0.6-0.7,0.9-1.1c0.1-0.1,0.2-0.2,0.3-0.3
				c0.2,0,0.4-0.2,0.6-0.3c0.3-0.1,0.4,0,0.4,0.3c0.1,0.6,0.1,1.1-0.2,1.6C402,587.1,401.9,587.4,401.6,587.3L401.6,587.3z"/>
			<path class="st2" d="M395.3,590.8c0.2-0.1,0.3-0.3,0.5-0.5c0.5-0.5,1-1,1.5-1.5c0.1,0.6,0,1.2,0.1,1.8c0,0.3-0.2,0.4-0.4,0.5
				c-0.2,0.1-0.5,0.2-0.7,0.3c0,0-0.1,0-0.2,0c-0.4,0-0.8,0-1.3-0.1C395,591.1,395.2,591,395.3,590.8L395.3,590.8z"/>
			<path class="st2" d="M372.6,578.8c0.3,0.2,0.6,0.4,0.9,0.7c0.3,0.5,0.1,1-0.3,1.3c-0.1,0.1-0.2,0-0.3-0.1c-0.3-0.3-0.6-0.6-0.8-1
				c-0.2-0.3-0.3-0.7-0.2-1c0-0.1,0.1-0.2,0.3-0.1C372.3,578.6,372.4,578.7,372.6,578.8L372.6,578.8z"/>
			<path class="st2" d="M391.3,561.1c0.1,0.2,0.3,0.2,0.4,0.4c0.1,0.1,0.1,0.2,0,0.4c-0.5,0.5-1.1,0.5-1.6-0.1
				c-0.2-0.3-0.4-0.6-0.6-0.8c0-0.2,0-0.3,0.2-0.3c0.5-0.1,0.8,0.1,1.2,0.3C391.1,561,391.2,561.1,391.3,561.1L391.3,561.1z"/>
			<path class="st2" d="M389.1,578.4c0.4-0.3,0.8-0.5,1.3-0.7c1.1-0.5,2.2-0.6,3.4-0.6c0.2,0,0.2,0.1,0.2,0.3
				c-0.1,0.9-0.5,1.7-1,2.5c-1.2,1.7-2.9,2.7-4.8,3.4c-0.1,0-0.2,0.1-0.2-0.1c0-1.5,0.1-3.1,0.9-4.5
				C389,578.6,389,578.5,389.1,578.4L389.1,578.4z"/>
			<path class="st2" d="M387.1,576.6c-1,1-2.1,1.7-3.5,2.1c-0.2,0.1-0.4,0-0.5-0.3c-0.1-0.2-0.1-0.5-0.1-0.8
				c0.1-1.3,0.6-2.5,1.1-3.7c0-0.1,0.1-0.1,0.2-0.2c1.1-0.5,2.3-1,3.5-1.1c0.3,0,0.7,0,1,0.1c0.2,0.1,0.3,0.2,0.2,0.4
				c-0.2,0.9-0.6,1.7-1.1,2.4C387.7,575.9,387.4,576.3,387.1,576.6L387.1,576.6z"/>
			<path class="st2" d="M380.5,580.3c-1,1-2.2,1.8-3.5,2.2c-0.2,0.1-0.4,0-0.5-0.2c-0.1-0.3-0.1-0.5-0.1-0.8
				c0.1-1.3,0.6-2.5,1.1-3.7c0-0.1,0.1-0.1,0.2-0.2c1.1-0.5,2.3-1,3.5-1.1c0.4,0,0.7,0,1,0.1c0.1,0.1,0.2,0.2,0.1,0.3
				c-0.3,1-0.7,2-1.4,2.8C380.8,580,380.7,580.2,380.5,580.3L380.5,580.3z"/>
			<path class="st2" d="M385.6,569c0.1,0.1,0.1,0.2,0,0.3c-0.2,0.9-0.6,1.7-1.1,2.4c-1,1.5-2.5,2.5-4.1,3.1c-0.3,0.1-0.5,0-0.6-0.3
				c-0.1-0.5,0-1,0.1-1.4c0.2-1,0.5-2,0.9-2.9c0-0.1,0.1-0.2,0.2-0.3c1-0.5,2.1-0.9,3.2-1.1c0.4-0.1,0.8-0.1,1.2,0
				C385.5,568.9,385.6,568.9,385.6,569L385.6,569z"/>
			<path class="st2" d="M385.2,583.4c-1.1,1.2-2.3,1.8-3.6,2.3c-0.3,0.1-0.4,0-0.5-0.2c-0.1-0.3-0.1-0.6-0.1-0.9
				c0.1-1.3,0.6-2.4,1-3.6c0-0.1,0.1-0.1,0.2-0.2c1.1-0.5,2.2-0.9,3.4-1.1c0.4,0,0.7-0.1,1.1,0.1c0.2,0.1,0.2,0.2,0.2,0.4
				C386.6,581.5,386,582.6,385.2,583.4L385.2,583.4z"/>
			<path class="st2" d="M394.5,573.6c-1.1,1.2-2.3,1.9-3.6,2.3c-0.2,0.1-0.4,0-0.5-0.2c-0.1-0.3-0.1-0.6-0.1-0.9
				c0.1-1.3,0.6-2.4,1-3.6c0-0.1,0.1-0.1,0.2-0.2c1.1-0.5,2.2-0.9,3.4-1.1c0.4,0,0.7-0.1,1.1,0.1c0.2,0.1,0.3,0.2,0.2,0.4
				C395.9,571.7,395.3,572.8,394.5,573.6L394.5,573.6z"/>
			<path class="st2" d="M390.8,569.8c-0.9,1-2.1,1.7-3.4,2.1c-0.2,0.1-0.4,0-0.5-0.2c-0.1-0.3-0.1-0.7-0.1-1c0.1-1,0.5-1.9,0.8-2.9
				c0.2-0.6,0.5-0.9,1.1-1.1c0.9-0.3,1.8-0.7,2.7-0.8c0.3,0,0.7-0.1,1,0c0.3,0.1,0.4,0.2,0.3,0.5
				C392.4,567.7,391.8,568.8,390.8,569.8L390.8,569.8z"/>
			<path class="st2" d="M376,572c0.3-0.1,0.5-0.2,0.8-0.2c0.4,0,0.6,0.2,0.5,0.6c-0.1,1.5-0.6,2.8-1.6,3.9c-0.4,0.4-0.8,0.8-1.2,1.2
				c-0.2,0.1-0.2,0.1-0.3-0.1c-0.5-1-0.5-2.1-0.3-3.2c0.1-0.8,0.6-1.3,1.3-1.7c0.4-0.3,0.6-0.5,0.5-1.1c-0.1-0.6,0-1.2,0-1.8
				c0.1-0.6,0.3-1,0.8-1.4c0.3-0.2,0.5-0.5,0.9-0.6c0.2-0.1,0.5-0.2,0.8-0.2c0.3,0,0.4,0.2,0.3,0.4c-0.5,1.3-1.2,2.6-2.1,3.7
				C376.2,571.7,376.1,571.8,376,572C376,571.9,376,571.9,376,572L376,572z"/>
			<path class="st2" d="M388.4,564.8c-0.7,0.7-1.4,1.4-2.3,1.8c-0.5,0.2-0.9,0.4-1.4,0.4c-0.1,0-0.2,0-0.2-0.2c0-1,0-2,0.6-2.9
				c0.3-0.4,0.7-0.8,1.2-0.9c0.8-0.3,1.7-0.4,2.6-0.4c0.3,0,0.5,0,0.7,0.1c0.3,0.1,0.3,0.3,0.1,0.6
				C389.3,563.9,388.9,564.4,388.4,564.8L388.4,564.8z"/>
			<path class="st2" d="M383,567c-1.1,1.1-2.3,1.8-3.6,2.4c-0.1,0-0.2,0.1-0.2-0.1c0.2-1.2,0.4-2.3,1-3.3c0.1-0.2,0.2-0.3,0.4-0.4
				c0.9-0.5,1.9-0.9,2.9-1.1c0.2,0,0.5-0.1,0.7,0s0.3,0.2,0.2,0.4C384,565.7,383.5,566.4,383,567L383,567z"/>
			<path class="st2" d="M392.2,586.5c-0.6,0.6-1.3,1-2.2,1.2c-0.2,0-0.3,0-0.3-0.2c-0.4-1.2-0.1-2.3,0.5-3.4
				c0.1-0.1,0.2-0.2,0.3-0.2c0.7-0.2,1.4-0.2,2-0.1c0.2,0,0.4,0.1,0.6,0.1c0.1,0,0.2,0.1,0.1,0.2C393.2,585,392.9,585.8,392.2,586.5
				L392.2,586.5z"/>
			<path class="st2" d="M398.5,585c-0.2,0.8-0.5,1.6-1.1,2.2c-0.6,0.6-1.3,0.8-2.1,1c-0.1,0-0.2,0-0.2-0.2c0.2-0.8,0.3-1.7,0.5-2.5
				c0-0.1,0.1-0.2,0.2-0.2c0.6-0.4,1.2-0.7,1.8-0.9c0.2,0,0.4,0,0.6,0C398.5,584.5,398.6,584.7,398.5,585L398.5,585z"/>
			<path class="st2" d="M387.3,587.2c-0.1,0.2-0.3,0.2-0.5,0.1c-0.9-0.2-1.9-0.4-2.7-0.8c-0.2-0.1-0.3-0.2-0.5-0.3
				c-0.1-0.1-0.1-0.2,0-0.2c1-0.8,2.1-1.2,3.3-1.4c0.3,0,0.5,0,0.8,0c0.1,0,0.2,0,0.2,0.2C388.1,585.5,388,586.6,387.3,587.2
				L387.3,587.2z"/>
		</g>
	</g>
</g>
<g>
	<g>
		<path class="st3" d="M461.4,139.3c0-2.4,3.1-6.5,4.3-8.6c1.2-2.1,0.2-6.3-0.9-9.3c-0.4-1.1-1.2-2.7-1.5-3.4
			c-0.1-0.3-0.6-0.3-0.7,0.1c-0.5,2.5-2.1,5.7-4.2,10.5c-1.8,4-0.8,7.4,0,9.1c1.1,0.5,2.2,1.1,3.1,1.9
			C461.4,139.5,461.4,139.4,461.4,139.3z"/>
		<path class="st3" d="M468.3,140.9c-0.1,0.1-0.3,0.2-0.4,0.3c-0.1,0.1-0.2,0.1-0.3,0.2c-0.1,0.1-0.3,0.2-0.4,0.2c0,0-0.1,0-0.1,0.1
			c-1.2,1.1-2,2.3-2.4,3.1c0.3,1,0.5,2,0.5,3.1c0,0.1,0,0.2,0,0.2c0.1,0,0.3,0,0.4,0c1.5-1.1,4.7-1.4,7.2-1.6c0.1,0,0.3-0.1,0.4-0.1
			c0.3-0.1,0.6-0.1,0.9-0.1c0.3,0,0.5-0.1,0.7-0.1c2.4-0.4,5.1-3.7,6.7-6.5c0.6-1,1.3-2.6,1.8-3.3c0.2-0.3-0.1-0.6-0.5-0.5
			c-2.3,1.1-5.8,1.9-10.9,3.2c-1,0.3-1.9,0.7-2.7,1.1c-0.1,0.1-0.1,0.1-0.2,0.2C468.9,140.4,468.7,140.6,468.3,140.9L468.3,140.9z"
			/>
		<path class="st3" d="M461,156.3c0.2,0.2,0.3,0.3,0.5,0.5c0.1,0.1,0.3,0.2,0.4,0.3c0.9,0.5,1.9,1.3,2.8,2.2c1,0.7,2,1.4,2.7,1.9
			c0.6,0.5,1,1.1,1.4,2c2,1.2,5.8,1.2,8.6,0.8c1.1-0.2,2.9-0.6,3.7-0.7c0.3-0.1,0.4-0.5,0.1-0.7c-2.3-1.1-5-3.4-9.3-6.5
			c-3.5-2.6-7-2.5-8.9-2.1C462.6,154.9,461.9,155.7,461,156.3L461,156.3z"/>
		<path class="st3" d="M454.6,174.1c0.6,0.8,1.3,1.5,2,2.1c0.8,0.8,2.3,1.9,2.9,2.5c0.3,0.2,0.6,0,0.6-0.3c-0.6-2.5-0.5-6-0.7-11.3
			c-0.1-4.4-2.5-7.1-3.9-8.3c-0.4,0-0.8,0.1-1.1,0.1c-0.7,0-1.5-0.1-2.2-0.2c0,0.1,0,0.2,0,0.3c0.5,1.3,0.4,3.4,0.2,5.4
			c0.1,0.9,0.1,1.8,0.2,2.4c0,0.7-0.2,1.5-0.6,2.3c0.1,0.9,0.5,1.8,1.1,2.8"/>
		<path class="st3" d="M445.6,160.5c0.1-0.2,0.2-0.4,0.3-0.6c0-0.1,0.1-0.1,0.1-0.2c0.2-0.3,0.3-0.6,0.5-0.9
			c0.4-0.9,0.6-1.9,0.7-2.6c-1-0.9-1.9-1.9-2.6-3.1c-1.6,1.9-5.3,3.7-7,4.9c-2,1.4-3,5.5-3.3,8.7c-0.1,1.2-0.1,2.9-0.1,3.8
			c0,0.4,0.4,0.5,0.6,0.2c1.6-2,4.4-4.1,8.5-7.6c0.8-0.7,1.5-1.4,2-2.2c0-0.1,0.1-0.2,0.1-0.3C445.5,160.7,445.5,160.6,445.6,160.5
			L445.6,160.5z"/>
		<path class="st3" d="M444,143.1c-0.8-0.1-1.3-0.1-2.3-0.4c-1.9-0.2-3.8-0.4-5-0.5c-1.1-0.2-2.3-1-3.5-2.1c-2.2,0.3-5,1.6-7,3
			c-1,0.6-2.4,1.8-3,2.2c-0.3,0.2-0.1,0.6,0.2,0.6c2.5,0,6,0.9,11.2,1.9c4.3,0.9,7.4-0.8,9-1.9c0.2-1,0.5-1.9,0.9-2.8
			C444.3,143.2,444.2,143.1,444,143.1L444,143.1z"/>
		<path class="st3" d="M444,136.7c0.1,0.1,0.2,0.1,0.3,0.2c0.1,0.1,0.2,0.2,0.3,0.3c0.2,0.1,0.3,0.3,0.5,0.5c0,0,0,0,0,0
			c0.3,0.3,0.6,0.6,0.9,1c0.5,0.3,0.9,0.5,1.3,0.7c1.1-0.9,2.3-1.5,3.6-1.9c-1.4-2.1-2.3-5.9-3.1-7.8c-0.9-2.3-4.7-4.2-7.8-5.2
			c-1.1-0.4-2.8-0.8-3.6-1c-0.3-0.1-0.6,0.3-0.4,0.6c1.6,2,3,5.2,5.4,10c0.4,0.8,0.8,1.4,1.3,2c0.1,0.1,0.3,0.2,0.6,0.4
			C443.8,136.5,443.9,136.6,444,136.7L444,136.7z"/>
	</g>
	<g>
		<path class="st4" d="M456,137.1c0.4-0.9,0.6-1.8,0.7-2.5c0-0.1,0-0.2,0-0.2c0-0.2,0.1-0.5,0.1-0.7c0-0.1,0-0.2,0-0.3
			c0-0.4,0-0.8,0-0.9c0-1.1-0.1-2.2-0.5-3.5c-0.7-2.4-1.4-4.5-1.9-6.3l-0.6-2.4c0-0.2-0.1-0.3-0.1-0.4c-0.1-0.4-0.2-1.1-0.3-1.5
			c0-0.1,0-0.2,0-0.4c0-0.2,0-0.4-0.1-0.6c0,0,0,0,0,0c0-0.2-0.1-0.3-0.3-0.3l0,0c0,0,0,0-0.1,0c0,0-0.1,0-0.1,0
			c-0.2,0.1-0.3,0.4-0.5,0.7c0,0,0,0,0,0.1c-0.1,0.2-0.4,0.6-0.7,1.1c-0.4,0.6-0.8,1.2-1,1.7c-0.2,0.3-0.3,0.7-0.5,1
			c-0.2,0.5-0.4,0.9-0.6,1.3l0,0c-1.1,2.6-1.9,5.6-1.1,7.4c0.5,1.2,1.4,2.9,2.1,4.6c0.3,1,0.6,1.5,0.8,2.2c0,0.1,0,0.1,0,0.2
			c0.9-0.2,1.8-0.4,2.8-0.4C454.9,136.9,455.5,137,456,137.1L456,137.1z"/>
		<path class="st4" d="M463.9,142.8c0.2,0,0.4-0.1,0.6-0.1c0,0,0.1,0,0.1,0c0.1,0,0.1-0.1,0.2-0.1c0.1,0,0.2-0.1,0.2-0.1
			c0.5-0.2,1-0.4,1.4-0.6c0,0,0,0,0.1,0c0.2-0.1,0.4-0.2,0.5-0.3c0.6-0.5,1.3-1,2-1.4c0.8-0.7,1.5-1.5,2.1-2.4
			c1.4-2.1,2.6-3.9,3.6-5.4l1.4-2.1c0.1-0.1,0.2-0.3,0.3-0.4c0.2-0.3,0.7-0.9,1-1.2c0.1-0.1,0.2-0.2,0.3-0.3
			c0.1-0.1,0.3-0.3,0.4-0.4l0,0l0,0c0-0.1,0.1-0.1,0.1-0.2c0,0,0-0.1,0-0.1s0-0.1,0-0.1c0,0,0,0,0-0.1c0,0,0,0,0,0
			c-0.2-0.4-0.6-0.1-1-0.1c0,0,0,0-0.1,0c-0.2,0-0.7,0.1-1.3,0.2c-0.7,0.1-1.4,0.2-2,0.3c-0.4,0.1-0.7,0.2-1.1,0.2
			c-0.5,0.1-1,0.2-1.4,0.4l0,0c-2.7,0.8-5.5,2.1-6.4,3.9c-0.6,1.1-1.3,2.9-2.2,4.6c-0.6,0.9-0.8,1.4-1.1,2.1
			c-0.1,0.2-0.3,0.4-0.4,0.6C462.4,140.5,463.3,141.6,463.9,142.8L463.9,142.8z"/>
		<path class="st4" d="M467.2,141.6c0.1-0.1,0.3-0.1,0.4-0.2c0.1-0.1,0.2-0.1,0.3-0.2c0.1-0.1,0.3-0.2,0.4-0.3
			c0.4-0.3,0.6-0.5,0.6-0.5c0.1-0.1,0.1-0.1,0.2-0.2C468.4,140.6,467.7,141.1,467.2,141.6C467.1,141.6,467.2,141.6,467.2,141.6
			L467.2,141.6z"/>
		<path class="st4" d="M468.2,147.6c-1,0.1-1.6,0.3-2.3,0.4c-0.1,0-0.2,0-0.3,0c-0.1,0-0.1,0.1-0.2,0.1c-0.1,0.1-0.2,0.1-0.3,0.2
			c-0.1,1.3-0.3,2.6-0.8,3.8c0.1,0.1,0.3,0.2,0.5,0.3c0,0,0.1,0.1,0.1,0.1c0.8,0.6,1.8,1,2.5,1.3c0.1,0,0.1,0.1,0.2,0.1
			c0.2,0.1,0.4,0.1,0.6,0.2c0.1,0,0.2,0.1,0.3,0.1c0.4,0.1,0.7,0.2,0.8,0.2c1.1,0.2,2.2,0.3,3.5,0.1c2.5-0.3,4.6-0.5,6.5-0.7
			l2.5-0.2c0.2,0,0.3,0,0.5,0c0.4,0,1.1,0,1.6,0c0.1,0,0.2,0,0.4,0c0.2,0,0.4,0,0.6,0c0,0,0,0,0,0c0.2,0,0.3-0.1,0.4-0.2l0,0
			c0.1-0.4-0.3-0.6-0.6-0.8c0,0,0,0-0.1-0.1c-0.1-0.1-0.5-0.5-1-0.9c-0.5-0.5-1.1-1-1.5-1.3c-0.3-0.2-0.6-0.4-0.9-0.7
			c-0.4-0.3-0.8-0.6-1.1-0.8l0,0c-2-1.3-4.3-2.4-6.1-2.5c-0.4,0.1-0.8,0.1-1.3,0.1C471.5,146.7,469.8,147.2,468.2,147.6L468.2,147.6
			z"/>
		<path class="st4" d="M473.1,146.3c-0.1,0-0.2,0.1-0.4,0.1c0.5-0.1,0.9-0.1,1.3-0.1C473.7,146.2,473.4,146.2,473.1,146.3
			L473.1,146.3z"/>
		<path class="st4" d="M465.4,148.1c0,0,0.1-0.1,0.2-0.1c-0.1,0-0.3,0-0.4,0c0,0.1,0,0.2,0,0.3C465.2,148.3,465.3,148.2,465.4,148.1
			z"/>
		<path class="st4" d="M464.8,159.4c-0.5-0.3-1-0.7-1.4-1c-0.5-0.6-1-0.9-1.4-1.2c-0.4-0.2-0.7-0.4-1.1-0.4c-0.1,0-0.2-0.1-0.3-0.1
			c-1,0.7-2,1.2-3.2,1.6c0,0.2,0,0.4,0,0.6c0,0.1,0,0.1,0,0.1c0,0.1,0,0.1,0,0.2s0,0.2,0,0.3c0.1,0.5,0.2,1.1,0.3,1.5c0,0,0,0,0,0.1
			c0.1,0.2,0.1,0.4,0.2,0.6c0,0.1,0.1,0.3,0.2,0.4c0,0.1,0.1,0.2,0.1,0.4c0.1,0.1,0.1,0.3,0.2,0.4c0.2,0.4,0.4,0.7,0.4,0.7
			c0.5,0.9,1.3,1.9,2.2,2.8c1.8,1.8,3.4,3.2,4.7,4.5l1.8,1.8c0.1,0.1,0.2,0.2,0.3,0.3c0.3,0.3,0.8,0.9,1,1.2
			c0.1,0.1,0.2,0.2,0.3,0.3c0.1,0.2,0.2,0.4,0.4,0.5l0,0l0,0c0,0,0.1,0.1,0.1,0.1c0,0,0.1,0,0.1,0c0,0,0.1,0,0.1,0c0,0,0,0,0,0
			c0,0,0,0,0,0c0,0,0,0,0.1-0.1c0,0,0.1,0,0.1-0.1c0.2-0.2,0.1-0.6,0.1-0.8c0,0,0-0.1,0-0.1c0-0.2,0-0.7,0-1.3c0-0.7,0.1-1.4,0-2
			c0-0.4,0-0.7,0-1.1c0-0.5-0.1-1-0.1-1.4l0,0c-0.2-1.8-0.6-3.6-1.3-5c-0.2-0.1-0.4-0.3-0.6-0.4C467.4,162,466.1,160.6,464.8,159.4
			L464.8,159.4z"/>
		<path class="st4" d="M460.9,156.8c0.3,0.1,0.7,0.2,1.1,0.4c-0.1-0.1-0.3-0.2-0.4-0.3c-0.2-0.2-0.3-0.3-0.5-0.5
			c-0.1,0.1-0.3,0.2-0.4,0.3C460.7,156.7,460.8,156.7,460.9,156.8L460.9,156.8z"/>
		<path class="st4" d="M467.5,161.3c-0.7-0.5-1.6-1.2-2.7-1.9c1.3,1.3,2.6,2.6,3.5,3.5c0.2,0.2,0.4,0.3,0.6,0.4
			C468.5,162.5,468.1,161.8,467.5,161.3L467.5,161.3z"/>
		<path class="st4" d="M452.2,164.2c-0.1-0.8-0.1-1.7-0.2-2.6c0.1-1,0-1.6,0-2.4c0-0.1,0-0.3,0-0.4c0-0.1,0-0.2-0.1-0.2
			c0-0.1,0-0.1,0-0.1c-1.3-0.3-2.5-0.8-3.6-1.5c-0.1,0.1-0.3,0.3-0.4,0.4c0,0-0.1,0.1-0.1,0.1c-0.5,0.4-0.9,0.9-1.2,1.4
			c-0.3,0.7-0.7,1.5-1.2,2.2c-0.1,0.3-0.2,0.5-0.2,0.5c-0.4,1-0.6,2.2-0.7,3.5c-0.2,2.5-0.3,4.7-0.4,6.5l-0.2,2.5
			c0,0.2,0,0.3-0.1,0.5c-0.1,0.4-0.2,1.1-0.3,1.6c0,0.1-0.1,0.3-0.1,0.4c-0.1,0.2-0.1,0.4-0.1,0.6l0,0l0,0c0,0.1,0,0.1,0,0.2
			c0,0,0,0.1,0,0.1c0,0,0,0.1,0.1,0.1c0,0,0,0,0,0c0,0,0,0,0,0c0.4,0.2,0.6-0.2,0.9-0.4c0,0,0,0,0.1-0.1c0.1-0.1,0.5-0.4,1.1-0.8
			c0.6-0.4,1.1-0.9,1.6-1.3c0.3-0.2,0.5-0.5,0.8-0.8c0.4-0.4,0.7-0.7,1-1l0,0c1.3-1.3,2.4-2.8,3.1-4.2c0-0.3-0.1-0.5,0-0.8
			C451.8,167.1,452,165.7,452.2,164.2L452.2,164.2z"/>
		<path class="st4" d="M451.9,158.6c0,0.1,0.1,0.1,0.1,0.2c0-0.1,0-0.2,0-0.3c-0.1,0-0.1,0-0.2,0
			C451.9,158.5,451.9,158.6,451.9,158.6L451.9,158.6z"/>
		<path class="st4" d="M452.2,164.2c-0.2,1.5-0.4,3-0.5,4c0,0.3,0,0.5,0,0.8c0.4-0.8,0.6-1.6,0.6-2.3
			C452.3,166,452.3,165.1,452.2,164.2L452.2,164.2z"/>
		<path class="st4" d="M446,159.7c0,0.1-0.1,0.1-0.1,0.2c-0.1,0.2-0.2,0.4-0.3,0.6c0,0.1-0.1,0.2-0.1,0.3c0,0.1-0.1,0.2-0.1,0.3
			c0.5-0.7,0.9-1.5,1.2-2.2C446.4,159.2,446.2,159.4,446,159.7L446,159.7z"/>
		<path class="st4" d="M443.3,148.2c0,0-0.1,0-0.1,0c-1-0.2-2-0.2-2.9-0.1c-0.1,0-0.2,0-0.2,0c-0.2,0-0.5,0.1-0.7,0.1
			c-0.1,0-0.2,0-0.3,0.1c-0.4,0.1-0.7,0.2-0.8,0.2c-1,0.3-2.1,0.7-3.3,1.4c-2.2,1.3-4,2.4-5.6,3.4l-2.2,1.3
			c-0.1,0.1-0.3,0.1-0.4,0.2c-0.4,0.2-1,0.5-1.4,0.7c-0.1,0.1-0.3,0.1-0.4,0.1c-0.2,0.1-0.4,0.1-0.5,0.2l0,0l0,0
			c0,0-0.1,0.1-0.1,0.1c0,0,0,0.1-0.1,0.1c0,0,0,0.1,0,0.1c0,0,0,0,0,0.1c0,0,0,0,0,0c0,0,0,0.1,0,0.1c0,0,0,0.1,0,0.1
			c0.1,0.2,0.5,0.2,0.8,0.3c0,0,0,0,0.1,0c0.2,0.1,0.6,0.2,1.3,0.4c0.7,0.2,1.4,0.4,1.9,0.6c0.4,0.1,0.7,0.2,1.1,0.2
			c0.5,0.1,1,0.2,1.4,0.2l0,0c2.8,0.4,5.9,0.4,7.5-0.8c1-0.8,2.4-2,3.9-3.2c0.9-0.5,1.3-0.9,1.9-1.4c0.1-0.1,0.2-0.1,0.3-0.1
			c-0.6-1.3-1-2.8-1-4.3C443.4,148.2,443.3,148.2,443.3,148.2L443.3,148.2z"/>
		<path class="st4" d="M435.1,140.2c2.3,0.7,6.9,2.9,9.3,2.4c0.1,0,0.2,0,0.3,0c0.6-1,1.3-2,2.2-2.8c-0.1-0.1-0.2-0.3-0.3-0.4
			c0,0,0-0.1-0.1-0.1c0-0.1-0.1-0.1-0.1-0.2c0-0.1-0.1-0.1-0.1-0.2c0-0.1-0.1-0.1-0.2-0.2c-1-0.6-2.1-1.5-3.1-2.7c0,0,0,0,0,0
			c-0.9-0.6-2-1-3.3-1.3c-2.5-0.6-4.5-1.1-6.3-1.6l-2.4-0.7c-0.1-0.1-0.3-0.1-0.4-0.1c-0.4-0.1-1.1-0.4-1.5-0.5
			c-0.1-0.1-0.3-0.1-0.4-0.2c-0.2-0.1-0.4-0.2-0.5-0.2l0,0l0,0c-0.1,0-0.1,0-0.2,0c0,0-0.1,0-0.1,0c0,0-0.1,0-0.1,0.1c0,0,0,0,0,0
			c0,0,0,0,0,0c-0.3,0.3,0.1,0.6,0.3,0.9c0,0,0,0.1,0,0.1c0.1,0.2,0.3,0.6,0.6,1.2c0.3,0.6,0.7,1.3,1,1.8c0.2,0.3,0.4,0.6,0.6,0.9
			c0.3,0.4,0.5,0.8,0.8,1.1l0,0c0.7,1,1.5,1.9,2.3,2.7C433.9,140,434.5,140,435.1,140.2L435.1,140.2z"/>
		<path class="st4" d="M441.7,142.7c1,0.3,1.6,0.3,2.3,0.4c0.1,0,0.2,0.1,0.3,0.1c0.1-0.2,0.2-0.4,0.3-0.6c-0.1,0-0.2,0-0.3,0
			c-2.4,0.5-7-1.7-9.3-2.4c-0.6-0.2-1.2-0.2-1.9-0.1c1.1,1.1,2.3,1.9,3.5,2.1C437.9,142.3,439.8,142.4,441.7,142.7L441.7,142.7z"/>
		<path class="st4" d="M446.1,138.6c-0.3-0.4-0.6-0.7-0.9-1c0,0,0,0,0,0c-0.2-0.2-0.3-0.3-0.5-0.5c-0.1-0.1-0.2-0.2-0.3-0.3
			c-0.1-0.1-0.2-0.2-0.3-0.2c-0.1-0.1-0.3-0.2-0.4-0.3c-0.3-0.2-0.5-0.4-0.6-0.4C444,137.2,445,138.1,446.1,138.6L446.1,138.6z"/>
	</g>
	<path class="st5" d="M464.7,144.7c-0.2-0.7-0.5-1.3-0.8-1.9c-0.6-1.2-1.5-2.3-2.5-3.2c0,0,0,0,0,0c-0.9-0.8-1.9-1.4-3.1-1.9
		c-0.7-0.3-1.5-0.5-2.3-0.6c-0.6-0.1-1.2-0.2-1.8-0.2c-1,0-1.9,0.1-2.8,0.4c-0.1,0-0.3,0.1-0.4,0.1c-1.3,0.4-2.6,1.1-3.6,1.9
		c-0.2,0.1-0.4,0.3-0.5,0.5c-0.9,0.8-1.6,1.7-2.2,2.8c-0.1,0.2-0.2,0.4-0.3,0.6c-0.4,0.9-0.7,1.8-0.9,2.8c-0.1,0.6-0.2,1.2-0.2,1.9
		c0,0.1,0,0.3,0,0.4c0,1.5,0.4,3,1,4.3c0.1,0.2,0.2,0.4,0.3,0.6c0.7,1.2,1.5,2.2,2.6,3.1c0.3,0.3,0.6,0.5,1,0.7
		c1.1,0.7,2.3,1.2,3.6,1.5c0.1,0,0.1,0,0.2,0c0.7,0.1,1.4,0.2,2.2,0.2c0.4,0,0.8,0,1.1-0.1c0.7-0.1,1.4-0.2,2-0.4
		c1.2-0.4,2.2-0.9,3.2-1.6c0.1-0.1,0.3-0.2,0.4-0.3c0.8-0.6,1.5-1.4,2.1-2.2c0.5-0.6,0.8-1.3,1.1-2c0.5-1.2,0.8-2.4,0.8-3.8
		c0-0.1,0-0.2,0-0.3c0-0.1,0-0.2,0-0.2C465.1,146.7,465,145.7,464.7,144.7L464.7,144.7z M460,149.5c0.2-0.3,0.4-0.5,0.7-0.8
		c0.1-0.1,0.3,0,0.3,0.2c-0.1,0.3-0.3,0.6-0.4,0.8c-0.1,0.2-0.3,0.4-0.5,0.5c-0.1,0-0.2,0-0.2-0.1
		C459.7,149.9,459.8,149.7,460,149.5L460,149.5z M461.2,152.1c-0.1,0-0.1,0-0.1-0.1c0-0.2,0.1-0.4,0.3-0.6c0.1-0.2,0.3-0.4,0.5-0.5
		c0.1-0.1,0.2,0,0.1,0.1c-0.1,0.2-0.2,0.4-0.3,0.7C461.6,151.8,461.5,152.1,461.2,152.1L461.2,152.1z M458.8,152.5
		c0.3-0.3,0.7-0.5,1.1-0.7c0.1-0.1,0.4,0.1,0.3,0.3c-0.2,0.3-0.5,0.6-0.8,0.9c-0.2,0.2-0.5,0.5-0.9,0.5c-0.1,0-0.2-0.1-0.2-0.2
		C458.3,152.9,458.5,152.7,458.8,152.5L458.8,152.5z M456,150.6c0.1,0,0.2,0.1,0.1,0.2c-0.3,0.2-0.6,0.4-0.9,0.5
		c-0.2,0.1-0.4,0.2-0.7,0.2c-0.1,0-0.2,0-0.4-0.1c-0.1-0.1-0.1-0.2-0.1-0.3c0.1-0.2,0.3-0.3,0.4-0.4c0.1-0.1,0.3-0.1,0.4-0.1
		C455.3,150.6,455.7,150.5,456,150.6L456,150.6z M456.1,153c-0.3,0.2-0.5,0.4-0.9,0.5c-0.2,0.1-0.5,0.2-0.7,0.2c-0.1,0-0.2,0-0.3,0
		c-0.1,0-0.1-0.1-0.1-0.2c0.1-0.1,0.2-0.2,0.4-0.3c0.1-0.1,0.3-0.1,0.5-0.2c0.3-0.1,0.6-0.2,1-0.2
		C456.1,152.8,456.2,152.9,456.1,153L456.1,153z M451.3,154.6c-0.3,0-0.6,0-0.9,0c-0.3,0-0.5,0-0.7-0.2c0-0.1-0.1-0.2,0-0.2
		c0.2-0.2,0.5-0.1,0.7-0.1c0.3,0.1,0.6,0.1,1,0.2C451.5,154.3,451.4,154.6,451.3,154.6L451.3,154.6z M451.4,152.6
		c-0.2-0.1-0.4-0.1-0.5-0.2c-0.1,0-0.1-0.1,0-0.1c0.2,0,0.4,0,0.6,0.1c0.2,0,0.4,0.1,0.5,0.2c0,0,0,0.1,0,0.1
		C451.7,152.7,451.5,152.7,451.4,152.6L451.4,152.6z M453.2,155.9c-0.1,0.1-0.2,0.1-0.4,0.1c0,0-0.1,0-0.1,0c-0.4,0-0.8-0.3-1-0.5
		c-0.1-0.1,0-0.1,0.1-0.1c0.2,0.1,0.5,0.1,0.7,0.2c0.1,0,0.2,0,0.3,0c0,0,0,0,0.1,0c0.1,0,0.2,0,0.3,0
		C453.3,155.6,453.3,155.8,453.2,155.9L453.2,155.9z M453.8,156.9c-0.1,0-0.1-0.1,0-0.1c0.2-0.1,0.4-0.1,0.5-0.2
		c0.1,0,0.2-0.1,0.3-0.1s0.2,0,0.3,0c0,0,0,0.1,0,0.1c-0.1,0.1-0.2,0.1-0.3,0.1c-0.1,0-0.1,0-0.2,0
		C454.2,156.8,454,156.8,453.8,156.9L453.8,156.9z M456.3,154.8c-0.3,0.4-1,0.8-1.5,0.4c-0.1-0.1,0-0.2,0.1-0.3c0.2-0.1,0.4,0,0.6,0
		c0.3,0,0.5-0.1,0.7-0.2C456.2,154.6,456.3,154.7,456.3,154.8L456.3,154.8z M459.5,154.2c-0.5,0.4-1,0.8-1.6,0.9
		c-0.1,0-0.2,0.1-0.3,0.1c-0.1,0-0.2-0.2-0.1-0.3c0.3-0.3,0.7-0.6,1.1-0.8c0.3-0.1,0.6-0.2,0.9-0.3c0.1,0,0.1,0,0.2,0.1c0,0,0,0,0,0
		C459.5,154.1,459.5,154.2,459.5,154.2L459.5,154.2z"/>
	<g>
		<path class="st6" d="M459.9,150.3c0.3-0.1,0.4-0.3,0.5-0.5c0.2-0.3,0.3-0.6,0.4-0.8c0.1-0.2-0.1-0.3-0.3-0.2
			c-0.2,0.2-0.5,0.5-0.7,0.8c-0.2,0.2-0.3,0.4-0.3,0.7C459.7,150.3,459.8,150.3,459.9,150.3L459.9,150.3z"/>
		<path class="st6" d="M450.3,154.6c0.3,0,0.6,0,0.9,0c0.2,0,0.2-0.3,0-0.3c-0.3-0.1-0.6-0.2-1-0.2c-0.3-0.1-0.5-0.1-0.7,0.1
			c-0.1,0.1,0,0.2,0,0.2C449.8,154.6,450.1,154.6,450.3,154.6L450.3,154.6z"/>
		<path class="st6" d="M458.4,153.5c0.4,0,0.7-0.3,0.9-0.5c0.3-0.3,0.6-0.6,0.8-0.9c0.1-0.2-0.1-0.3-0.3-0.3
			c-0.4,0.2-0.8,0.4-1.1,0.7c-0.3,0.2-0.5,0.4-0.5,0.8C458.2,153.4,458.3,153.4,458.4,153.5L458.4,153.5z"/>
		<path class="st6" d="M455.2,151.3c0.3-0.2,0.6-0.3,0.9-0.5c0.1-0.1,0-0.2-0.1-0.2c-0.4,0-0.7,0.1-1.1,0.1c-0.1,0-0.3,0.1-0.4,0.1
			v0.7C454.8,151.5,455,151.4,455.2,151.3L455.2,151.3z"/>
		<path class="st6" d="M454.1,151.1c0,0.1,0,0.2,0.1,0.3c0.1,0.1,0.2,0.1,0.4,0.1v-0.7C454.4,150.9,454.3,151,454.1,151.1
			L454.1,151.1z"/>
		<path class="st6" d="M455.3,153.5c0.3-0.1,0.6-0.3,0.9-0.5c0.1-0.1,0-0.2-0.1-0.2c-0.3,0-0.7,0.1-1,0.2c-0.1,0.1-0.3,0.1-0.5,0.2
			v0.5C454.8,153.7,455.1,153.6,455.3,153.5L455.3,153.5z"/>
		<path class="st6" d="M454.2,153.5c0,0.1,0,0.2,0.1,0.2c0.1,0,0.2,0,0.3,0v-0.5C454.4,153.3,454.3,153.4,454.2,153.5z"/>
		<path class="st6" d="M461.2,152.1c0.2-0.1,0.4-0.3,0.5-0.5c0.1-0.2,0.2-0.4,0.3-0.7c0-0.1-0.1-0.1-0.1-0.1
			c-0.2,0.2-0.4,0.3-0.5,0.5c-0.1,0.2-0.3,0.4-0.3,0.6C461.1,152.1,461.2,152.2,461.2,152.1L461.2,152.1z"/>
		<path class="st6" d="M451.4,152.6c0.1,0,0.4,0.1,0.5,0c0,0,0.1-0.1,0-0.1c-0.1-0.1-0.3-0.2-0.5-0.2c-0.2,0-0.4-0.1-0.6-0.1
			c-0.1,0-0.1,0.1,0,0.1C451,152.5,451.2,152.6,451.4,152.6L451.4,152.6z"/>
		<path class="st6" d="M454.9,156.6c0,0,0-0.1,0-0.1c-0.1-0.1-0.2-0.1-0.3,0v0.3C454.7,156.8,454.8,156.7,454.9,156.6z"/>
		<path class="st6" d="M453.8,156.7c-0.1,0,0,0.1,0,0.1c0.2,0,0.4,0,0.6,0c0.1,0,0.1,0,0.2,0v-0.3c-0.1,0-0.2,0-0.3,0.1
			C454.1,156.6,453.9,156.7,453.8,156.7L453.8,156.7z"/>
		<path class="st6" d="M458.3,154.4c0-0.1,0.1-0.1,0.1-0.2c-0.4,0.2-0.8,0.4-1.1,0.8c-0.1,0.1,0,0.3,0.1,0.3c0.1,0,0.2-0.1,0.3-0.1
			C457.9,154.9,458.1,154.7,458.3,154.4C458.2,154.4,458.2,154.4,458.3,154.4L458.3,154.4z"/>
		<path class="st6" d="M459.5,154C459.5,154,459.5,154,459.5,154C459.5,154,459.5,154,459.5,154z"/>
		<path class="st6" d="M459.5,154C459.5,154,459.5,154,459.5,154c0-0.1-0.1-0.1-0.2-0.1c-0.3,0.1-0.6,0.2-0.9,0.3
			c0,0.1-0.1,0.1-0.1,0.2c0,0,0,0,0,0c-0.2,0.3-0.3,0.5-0.4,0.7c0.6-0.2,1.2-0.5,1.6-0.9C459.5,154.2,459.5,154.1,459.5,154
			L459.5,154z"/>
		<path class="st6" d="M455.5,154.8c-0.2,0-0.4,0-0.6,0c-0.1,0-0.1,0.2-0.1,0.3c0.5,0.4,1.1,0,1.5-0.4c0.1-0.1,0-0.1-0.1-0.1
			C455.9,154.8,455.7,154.8,455.5,154.8L455.5,154.8z"/>
		<path class="st6" d="M452.8,156c0,0,0.1,0,0.1,0v-0.4c0,0,0,0-0.1,0C452.9,155.7,452.8,155.9,452.8,156L452.8,156z"/>
		<path class="st6" d="M453.2,155.9c0.1-0.1,0-0.2-0.1-0.3c-0.1,0-0.2,0-0.3,0v0.4C453,156,453.1,155.9,453.2,155.9z"/>
		<path class="st6" d="M451.9,155.4c-0.1,0-0.1,0.1-0.1,0.1c0.2,0.3,0.6,0.5,1,0.5c0-0.1,0.1-0.3,0-0.5c-0.1,0-0.2,0-0.3,0
			C452.3,155.5,452.1,155.5,451.9,155.4L451.9,155.4z"/>
	</g>
</g>
<g>
	<circle class="st5" cx="78.9" cy="468.5" r="51"/>
	<g>
		<g>
			<path class="st2" d="M108.8,466.1c-11.4-1-15.7,5.7-15.7,5.7c-1.3,5.3,0.2,10.8-0.7,16.1c-1.1,10.5-5.8,20.5-6.3,31
				c24.7-3.5,43.7-24.8,43.7-50.5c0-3-0.3-6-0.8-8.8C127.7,461.5,122.1,467.3,108.8,466.1L108.8,466.1z"/>
			<path class="st6" d="M86.2,519c0.4-10.5,5.2-20.5,6.3-31c0.8-5.4-0.6-10.8,0.7-16.1c-4.7,6.3-1.3,15.5-4.5,22.5
				c0,0.1,0,0.2,0,0.3c0.5,4.7-1.6,9.8-5.7,12.3c-4.5,2.1-10.8,1.9-16.1,1.1c0.8,2.6,1.6,6.1,3,8.4c0.4,0.9,0.9,1.7,1.5,2.5
				c2.5,0.4,5,0.6,7.5,0.6S83.8,519.3,86.2,519L86.2,519z"/>
			<path class="st0" d="M114.8,461.9c-0.7-1-2.8,0-3.5-1.3c-8.1,0.6-13.2-0.8-15-1.5c0,0.5,0.1,1.1,0,1.6c-0.6,3.8-1.7,7.6-3.1,11.2
				c0,0,4.3-6.7,15.7-5.7c13.3,1.1,18.9-4.6,20.3-6.5c0-0.1,0-0.2-0.1-0.4c-0.2,0.1-0.3,0.1-0.5,0.2
				C124.1,460.6,119.5,462.1,114.8,461.9L114.8,461.9z"/>
		</g>
		<g>
			<path class="st7" d="M71.7,512.9c0-3.8,2.7-5.7,5.9-5.7s5.9,1.9,5.9,5.7l-1.7,9.1c-2.3-1.3-6.1-1.3-8.6,0L71.7,512.9L71.7,512.9z
				"/>
			<path class="st3" d="M71.7,512.9c0-3.8,2.7-5.7,5.9-5.7s5.9,1.9,5.9,5.7l-1.7,9.1c-2.3-1.3-6.1-1.3-8.6,0L71.7,512.9L71.7,512.9z
				"/>
			<ellipse class="st4" cx="74.8" cy="512.3" rx="2.3" ry="3.2"/>
		</g>
		<g>
			<path class="st2" d="M33.1,443.1c6.8-0.6,11.6,6.3,18.5,5.5c0.1-1.5,1.7-3.8,0.2-4.6c-3.6,0.6-7.1-0.4-10.4-1.7
				c-5.8-2.6-13.1-2.8-18.5,1c-1.1,0.7-2.6,2.8-1.3,3.9c3.6,8.5,13.5,16,23.1,13.9c2.2,0,4.2-1.6,6-2.8c0.2-1,0.3-2.1,0.4-3.1
				c0-1,0.1-2,0.1-3.1c-4.6-2-0.4,6.8-5.4,4.7c-2-1.8-3.8,1.4-6,0.8c-1.3-1.2-0.5-2.9-0.5-4.4c-1.7,0.2-5.4-0.5-2.7-2.2
				c1-3-6.8-1-5-4.6C34.7,446.3,31.3,444.2,33.1,443.1L33.1,443.1z"/>
			<path class="st2" d="M111.3,460.6c4.9-1.9,8.9-6,10.8-10.9c-0.3-5.1-6.7-7.3-11.2-7c-6-0.7-11.2,4.4-17.2,2.7
				c0.2,1.3,0.7,2.5,0.9,3.7c0.2,0.8,0.3,1.5,0.5,2.3c4.4-3.5,10.2-4.3,15.4-6c3.3-0.7,2.1,2.3,0.1,2.6c5,2.9-6.4,4.1-0.9,4.9
				c1.9,3-2.7,3.5-4.6,2.7c1.4,2.8-2.5,4.1-3.6,1.7c-0.9-2.5-2,0.7-3.4-0.1c-2.9-0.8,0.8-4.5-2.9-4.5c0.2,2.1,0.8,4.2,1,6.3
				C98.1,459.8,103.2,461.2,111.3,460.6L111.3,460.6z"/>
			<path class="st0" d="M33.1,443.1c6.8-0.6,11.6,6.3,18.5,5.5c-0.3,1.1-0.5,2.3-0.5,3.5c-4.6-2-0.4,6.8-5.4,4.7
				c-2-1.8-3.8,1.4-6,0.8c-1.3-1.2-0.5-2.9-0.5-4.4c-1.7,0.2-5.4-0.5-2.7-2.2c1-3-6.8-1-5-4.6C34.7,446.3,31.3,444.2,33.1,443.1
				L33.1,443.1L33.1,443.1z"/>
			<path class="st0" d="M95.2,451.5c4.4-3.5,10.2-4.3,15.4-6c3.3-0.7,2.1,2.3,0.1,2.6c5,2.9-6.4,4.1-0.9,4.9c1.9,3-2.7,3.5-4.6,2.7
				c1.4,2.8-2.5,4.1-3.6,1.7c-0.9-2.5-2,0.7-3.4-0.1c-2.9-0.8,0.8-4.5-2.9-4.5C95.2,452.3,95.2,451.9,95.2,451.5L95.2,451.5
				L95.2,451.5z"/>
		</g>
		<g>
			<path class="st2" d="M92.9,454.2c-5.6,4.3-6.6,10.3-9.2,15.6c-1.5,4.7-4.1,11.2,0.2,15.2c2.5,2.5,3.9,5.9,4.7,9.3
				c0.7,5.3-1.9,11.3-7.1,13.3c-4.7,2.7-23.3-0.1-27.3-3.7c-6.4-4-5.4-13.5-0.1-17.9c3.9-1.1,8.5-4,7.8-8.8
				c-0.1-7.4-1.6-15.3-5.2-21.8c-1-1.1-2.6-0.8-3.9-0.9c-0.4,0-0.1-3.5,1.2-4.9c4.4-4.7,8.6,0.6,13,2.5c3.3,1.3-5-8.2-10.5-6.8
				c-3.4,0.1,2.9-4.9,3.9-4.6c6.6,2.1,8.7,0.1,10.5-4.8l0,0c0.2,4.1,1.3,1.8,2.7-0.6c0.1,1.3,0.1,4.8,1.1,2.1c1-2.4,1.8,0.6,2.2,1.7
				c1.9,1.6,1.1-3,2.6-2.7c0.1,2.2,1.3,5.1,4,4.8c2.6-1.2,3.2-0.4,4.5,4.4c0.7,2.8,5.3,2,4.9,4.9C92.8,450.6,94.5,453,92.9,454.2
				L92.9,454.2z"/>
			<path class="st6" d="M92.9,454.2c0.6-1.3,2.1-3.5,2.3-2.8c0,0.4,0.1,0.8,0.1,1.3c0.2,2.7,1.2,5.2,1,7.9
				c-0.6,3.8-1.7,7.6-3.1,11.2c-4.7,6.3-1.3,15.5-4.5,22.5c-0.8-3.4-2.2-6.8-4.7-9.3c-4.3-4-1.7-10.5-0.2-15.2
				C86.3,464.5,86.2,456.1,92.9,454.2L92.9,454.2L92.9,454.2z"/>
			<path class="st6" d="M62,477.3c-0.1-7.4-1.6-15.3-5.2-21.8c-0.5-0.6-1.2-0.8-2-0.8l0,0c0,0-2-0.1-2.1-0.6c-0.1-0.9-0.8-1.8-1.6-2
				c0,0-0.4,1.3-0.5,6.2c-0.5,9.5,5.1,18.3,3.6,27.8C58,484.9,62.7,482,62,477.3z"/>
		</g>
		<g>
			<path class="st0" d="M55.2,442.2l2.4-5.3c-5.1,0.4-8.5-2.8-9.2-7.4c-0.1-1.6-1.3-1.1-1.7,0.2C45.3,434.1,50.1,441.2,55.2,442.2
				L55.2,442.2z"/>
			<path class="st0" d="M89.2,443.5l-1.4-5.9c5.1,1.4,9.3-1.1,10.9-5.7c0.4-1.6,1.6-0.9,1.7,0.5C101,437.2,94.6,443.5,89.2,443.5z"
				/>
		</g>
		<g>
			<path class="st0" d="M95.4,454.1c0.2-2.9-1.5-7.4-1.7-8.7c-1.7-8-5.5-9.8-8.2-12.1c-1.6-1.4-4.9-5.8-9.5-5.9
				c-6.6-0.1-8.5,1.8-11.4,3.2c-1.9,0.9-5.7,4-6.7,4.5c-2.3,1.3-5.4,2.5-6.1,8.8l0,0c1.5,0.8,0,3.1-0.2,4.6
				c-0.3,1.1-0.5,2.3-0.5,3.5c0,1,0,2-0.1,3.1l1.9-0.6c0,0-0.1-3.3,1.2-4.6c4.4-4.7,8.6,0.3,13,2.2c3.3,1.3-5-8.2-10.5-6.8
				c-3.4,0.1,2.9-4.9,3.9-4.6c6.6,2.1,8.7,0.1,10.5-4.8c0.2,4.1,1.3,1.8,2.7-0.6c0.1,1.3,0.1,4.8,1.1,2.1c1-2.4,1.8,0.6,2.2,1.7
				c1.9,1.6,1.1-3,2.6-2.7c0.1,2.2,1.3,5.1,4,4.8c2.6-1.2,3.2-0.4,4.5,4.4c0.7,2.8,5.3,2,4.9,4.9c-3.5,0.1-9.7,1.6-10.2,7.4
				c0.4,0.3,2.8-3.8,6.1-4.9c1.1-0.4,4.2-1.2,4.2,0C92.8,455.4,93.6,455.1,95.4,454.1L95.4,454.1z"/>
			<path class="st0" d="M56.1,460.7c-0.3-1.4-1.5-2.3-2.7-2s-1.9,1.6-1.5,3c0.3,1.4,1.5,2.3,2.7,2S56.4,462.1,56.1,460.7z
				 M53.7,461.4c-0.4,0.1-0.8-0.2-0.9-0.7c-0.1-0.5,0.1-0.9,0.5-1c0.4-0.1,0.8,0.2,0.9,0.7C54.3,460.9,54,461.3,53.7,461.4z"/>
			<path class="st0" d="M91.2,458.7c-1.2-0.3-2.3,0.7-2.7,2c-0.3,1.4,0.4,2.7,1.6,3c1.2,0.3,2.3-0.7,2.7-2
				C93.1,460.3,92.4,458.9,91.2,458.7z M92,460.6c-0.1,0.5-0.5,0.8-0.9,0.7c-0.4-0.1-0.6-0.5-0.5-1s0.5-0.8,0.9-0.7
				C91.9,459.7,92.1,460.1,92,460.6z"/>
			<g>
				<path class="st0" d="M80.5,505.1l-22.6-2C63.8,506.6,74.5,508,80.5,505.1z"/>
				<path class="st0" d="M75.1,486.6c-4.8,2.7-9.3-1.5-14.2-0.3c-5.6,1.3-9.7,8.3-6.5,13.5c0.7,1.2,1.9,2.3,3.4,3.2
					c0.2,0,12.9-2.2,22.6,2c1.9-0.9,3.3-2.2,4-3.9C88.4,494.9,82.9,484.4,75.1,486.6L75.1,486.6z M62.1,497.9
					c-1.3,1.2-3.3-1-4.5-3.1c-1-2-1.5-4.7,0.4-5.1c1.8-0.4,3.5,1.3,4.3,2.9C63.2,494.3,63.4,496.6,62.1,497.9L62.1,497.9z
					 M81.1,494.8c-1.1,2.1-3.2,4.3-4.5,3.1c-1.3-1.2-1.1-3.6-0.2-5.2c0.9-1.6,2.5-3.3,4.3-2.9C82.5,490.1,82.1,492.8,81.1,494.8
					L81.1,494.8z"/>
				<polygon class="st0" points="80.5,505.1 80.5,505.1 80.5,505.1 				"/>
				<polygon class="st0" points="57.9,503.1 57.9,503.1 57.9,503.1 				"/>
			</g>
		</g>
	</g>
</g>
</svg>
