<?xml version="1.0" encoding="utf-8"?>
<!-- Generator: Adobe Illustrator 22.1.0, SVG Export Plug-In . SVG Version: 6.00 Build 0)  -->
<svg version="1.1" id="tw_plants" xmlns="http://www.w3.org/2000/svg" xmlns:xlink="http://www.w3.org/1999/xlink" x="0px" y="0px"
	 viewBox="0 0 507.1 702" style="enable-background:new 0 0 507.1 702;" xml:space="preserve">
<style type="text/css">
	.st0{fill:#908D60;}
	.st1{fill:#EFC29B;}
	.st2{fill:#473835;}
	.st3{fill:#FFE6CE;}
	.st4{fill:#E3DBD1;}
	.st5{fill:#B06F4D;}
	.st6{fill:#F0DA64;}
	.st7{fill:#395D51;}
</style>
<g>
	<circle class="st0" cx="361.5" cy="111.5" r="42.5"/>
	<g>
		<path class="st1" d="M385.8,112.7c-0.6-3.1-1.7-6.5-3.4-9.2c-1.1-1.7-2.6-3.3-4.4-4.1c2.1-2,3.5-7.8,3.9-10.4
			c0.9-4.9,0.8-10.3-0.2-15.5c-1.7-9.8-6-19-10.6-27.5c-0.8,0.6-0.7,2.1-0.5,3.4c0.8,6.3-0.4,12.3,0,18.5c0.4,5.5,1.9,10.9,3.4,16.2
			c1.4,5.1,2,9.8,2.6,14.9c-0.8-0.2-1.5-0.2-2.4-0.1c-1.5,0.2-2.7,0.9-3.8,1.8c-1.3-5-2.5-9.7-3.1-15c-0.6-5.5-1.1-11.1-2.9-16.3
			c-1.9-6-5.3-11.1-7-17.2c-0.3-1.2-0.8-2.7-1.8-2.9c-1.2,9.7-1.9,19.8,0.1,29.5c1.1,5.2,3,10.2,5.7,14.5c1.5,2.4,5.2,7.6,8.1,8.3
			c-0.5,0.6-0.9,1.3-1.2,2c-0.6-0.6-1.2-1.2-1.8-1.7c-3-2.9-6.1-5.7-9.5-8.3c-6.2-4.8-13.2-8.6-20.8-10.1c-4.5-0.8-9.1-2-13.6-1
			c-1.7,0.4-3.4,1-5,1.8c-0.3-0.8-0.4-1.7-0.8-2.6c-1-2-3.8-2.8-2.5-5.4c-2,1.5-3.6,4-3.6,6.6c0,1.6,0.8,3.3,2.1,4.3
			c0.1,0,0.1,0.1,0.1,0.2c-0.8,0.7-1.5,1.4-2.1,2.3c-1.5-0.6-3.5-0.5-4.7-0.2c-1.1,0.3-2.5,0.7-3-0.2c-0.5-0.9,0.4-2.3-0.4-3
			c-0.4-0.4-1-0.4-1.5-0.2s-0.9,0.7-1.3,1c-3.4,3.4-7.9,5.3-12.3,7.3c-0.8,0.4-1.6,0.8-2,1.6s-0.2,1.9,0.7,2.2c0.3,0.1,0.6,0,0.9,0
			c4-0.6,7.9-2.4,10.9-5.2c0.9-0.8,1.8-1.6,2.9-1.6c0.6,0,1.2,0.3,1.8,0.6c1.7,0.8,3.4,1.6,5.2,2.3c0,0,0,0,0.1,0
			c0,0.1,0,0.2-0.1,0.3c-0.3,2.2,0.3,3.4-2.2,4.3c-1.8,0.7-4.6,0.8-3.1-1.9c0.2-0.4,0.4-0.8,0.2-1.2c-0.2-0.4-0.6-0.5-1.1-0.5
			c-1,0.1-2.4,0.9-3.3,1.4c-2.8,1.4-5.5,3-8.1,4.6c-1.5,0.9-3.1,1.6-4.5,2.6c-1.1,0.8-2.8,1.3-3.5,2.6c-0.1,0.3-0.3,0.6-0.1,0.9
			c0.1,0.3,0.5,0.3,0.8,0.4c3.3,0.6,5.6-0.6,8.2-2.8c1.1-1,6.6-6,7.8-4c0.6,1-0.8,2.2-1,3c-0.4,1.5-0.3,2.9,0.2,4.4
			c0.9,2.8,3.2,5.2,6,5.9c5.3,1.3,10.7-3.2,16-3.2c2.6,0,5.1,0.5,7.6,1c4.3,0.9,8.5,1.8,12.8,2.7c2.2,0.5,4.5,0.9,6.6,1.9
			c4.8,2.2,6,5.7,8.6,9.8c2.4,3.7,6.2,7.5,9.3,10.8c0.8,0.8,2.7,2.5,3.8,2.7c2.3,0.4,0.7-1.6,0-2.4c-3.3-3.2-4.1-6-5.8-10.1
			c-0.2-0.6-0.4-1.4,0.1-1.7c3.5,2.7,5.4,6.8,8.5,9.8c0.5,0.5,3.2,3.3,3.7,1.5c0.4-1.2-2.3-2.8-2.9-3.7c-0.8-1.1-2.1-3-2-4.4
			c0.1-1.1,1-2.3,1.5-3.2c1-2.1,2.3-4.2,2.9-6.4c0.8,0.6,1.6,1.2,2.5,1.6c2,0.9,5,0.9,6.8-0.6C386.2,118.3,386.2,115.2,385.8,112.7
			L385.8,112.7z"/>
		<g>
			<path class="st2" d="M376.5,106.3c-0.4-0.8-1-1.4-1.6-1.6c-0.3-0.1-0.7-0.1-1,0c-0.8,0.4-1,1.7-0.4,2.9c0.4,0.8,1,1.4,1.6,1.6
				c0.2,0.1,0.3,0.1,0.5,0.1c0.2,0,0.3,0,0.5-0.1C376.9,108.9,377.1,107.6,376.5,106.3z M375.3,107.2c-0.2,0.4-0.8,0.6-1.2,0.3
				s-0.5-0.8-0.3-1.2c0.2-0.4,0.8-0.6,1.2-0.3S375.5,106.8,375.3,107.2z"/>
			<path class="st3" d="M375,106.1c-0.4-0.2-0.9-0.1-1.2,0.3c-0.2,0.4-0.1,0.9,0.3,1.2c0.4,0.2,0.9,0.1,1.2-0.3
				C375.5,106.8,375.4,106.3,375,106.1z"/>
		</g>
		<path class="st2" d="M383.6,116.8c-0.3,0-0.5,0.2-0.7,0.4c-0.5,0.6-0.1,1,0.4,1.4c0,0,0,0,0.1,0c0.1,0.1,0.2,0.1,0.4,0.1
			c-0.1,0.3-0.5,0.6-0.8,0.7c-0.4,0.2-0.7,0.3-1.1,0.3c-0.6,0-1.5,0-2.1-0.5c-0.4-0.4-0.5-0.9-0.8-1.3c-0.1-0.1-0.2-0.1-0.2,0
			c-0.4,0.5-0.2,1.2,0.3,1.6c1,0.7,2.6,0.7,3.2,0.6c0,0.2,0.1,0.6,0.9,0.7l-0.7-0.7c0.2-0.1,0.4-0.2,0.6-0.3c0.4-0.3,0.8-0.6,1.1-1
			c0,0,0,0,0,0c0.4,0,0.7,0,0.9-0.3C385.4,117.7,384.3,116.8,383.6,116.8L383.6,116.8z"/>
		<g>
			<path class="st4" d="M379.6,94.7c0.1,0.4,0.1,0.8,0,1.2c-0.1,0.4-0.3,0.8-0.5,1.1c-0.1,0.1-0.2,0-0.2-0.1c0-0.4,0.1-0.7,0.2-1
				c0.1-0.4,0.2-0.8,0.3-1.1C379.4,94.6,379.6,94.6,379.6,94.7L379.6,94.7z"/>
			<path class="st4" d="M380.3,90.6c0.1-0.1,0.2,0,0.2,0.1c0,0.8-0.3,1.6-0.4,2.4c0,0.2-0.3,0.1-0.3,0
				C379.8,92.2,379.7,91.2,380.3,90.6z"/>
			<path class="st4" d="M380.9,85.8c0.2-0.2,0.5-0.2,0.6,0.1c0.4,0.7-0.3,1.6-0.5,2.3c0,0.1-0.2,0.1-0.2-0.1
				C380.7,87.5,380.4,86.4,380.9,85.8L380.9,85.8z"/>
			<path class="st4" d="M381.5,80.6c0.1,0.5,0,1-0.1,1.5c0,0.2-0.3,0.2-0.3,0c-0.1-0.5-0.2-1-0.2-1.5
				C380.9,80.2,381.4,80.2,381.5,80.6L381.5,80.6z"/>
			<path class="st4" d="M381.5,83.4c0.1,0.2,0.1,0.5,0.2,0.7c0,0.2-0.3,0.2-0.3,0.1c0-0.1,0-0.3,0-0.4s0-0.2,0-0.4
				C381.3,83.3,381.4,83.3,381.5,83.4L381.5,83.4z"/>
			<path class="st4" d="M381.5,77.3c0.1,0.3,0.1,0.6,0.1,0.9c0,0.3,0.1,0.6,0.1,0.9c0,0.1-0.1,0.1-0.2,0.1c-0.3-0.5-0.5-1.3-0.2-1.9
				C381.3,77.2,381.4,77.2,381.5,77.3L381.5,77.3z"/>
			<path class="st4" d="M380.2,76.5c0.1-0.1,0.2-0.1,0.2,0c0.1,0.2,0,0.6,0,0.8c0,0.3,0,0.6,0,0.9c0,0.1-0.1,0.1-0.1,0
				c-0.1-0.3-0.3-0.5-0.3-0.8C380,77.2,380,76.8,380.2,76.5L380.2,76.5z"/>
			<path class="st4" d="M380.4,72.5c0.3,0.3,0.4,0.8,0.4,1.2c0,0.4,0,0.9,0,1.3c0,0.2-0.3,0.2-0.3,0c-0.1-0.4-0.2-0.8-0.3-1.2
				c-0.1-0.4-0.3-0.8-0.3-1.2C379.9,72.4,380.2,72.2,380.4,72.5L380.4,72.5z"/>
			<path class="st4" d="M379.8,69.4c0,0,0.1-0.1,0.2,0c0.3,0.2,0.3,0.5,0.3,0.8c0,0.3,0,0.7,0,1c0,0.1-0.1,0.1-0.1,0
				c-0.2-0.3-0.3-0.6-0.4-0.9C379.6,70,379.6,69.7,379.8,69.4L379.8,69.4z"/>
			<path class="st4" d="M379.2,65.4c0,0,0.1-0.1,0.2,0c0.4,0.2,0.3,0.7,0.3,1.1c0,0.5,0.1,1.1,0.1,1.6c0,0.1-0.2,0.2-0.2,0
				c-0.1-0.5-0.3-1-0.4-1.5C379.1,66.2,379,65.8,379.2,65.4z"/>
			<path class="st4" d="M378.4,65.3c0.2,0.2,0.2,0.4,0.3,0.7c0,0.2,0.1,0.5,0.1,0.7c0,0.2-0.3,0.2-0.3,0.1c0-0.2-0.1-0.4-0.2-0.6
				c-0.1-0.2-0.3-0.3-0.3-0.6C377.8,65.3,378.1,65.1,378.4,65.3L378.4,65.3z"/>
			<path class="st4" d="M376.6,59.4c0.2,0.3,0.2,0.6,0.3,1c0.1,0.3,0.1,0.6,0.1,0.9c0,0.2-0.2,0.2-0.3,0.1c-0.2-0.3-0.4-0.5-0.5-0.8
				c-0.2-0.3-0.4-0.5-0.4-0.8C375.7,59.3,376.3,59,376.6,59.4z"/>
			<path class="st4" d="M377.8,61.7c0.1,0.3,0.3,0.6,0.3,1c0.1,0.3,0.1,0.7,0.1,1c0,0.2-0.2,0.2-0.3,0c-0.2-0.7-0.4-1.3-0.4-2
				C377.6,61.7,377.8,61.6,377.8,61.7L377.8,61.7z"/>
			<path class="st4" d="M375.1,55.7c0.2,0.2,0.3,0.6,0.3,0.8c0,0.4,0.1,0.7,0.1,1.1c0,0.1-0.2,0.2-0.2,0c-0.1-0.4-0.2-0.7-0.3-1.1
				c-0.1-0.3-0.2-0.6,0-0.9C375,55.6,375.1,55.6,375.1,55.7L375.1,55.7z"/>
			<path class="st4" d="M373,51c0.4,0.1,0.6,0.6,0.7,1c0.1,0.5,0.2,0.9,0.3,1.4c0,0.2-0.2,0.2-0.2,0c-0.2-0.4-0.4-0.8-0.6-1.2
				c-0.2-0.3-0.5-0.7-0.3-1C372.9,51,372.9,51,373,51L373,51z"/>
			<path class="st4" d="M368.6,97.1c0.2,0.1,0.3,0.3,0.3,0.5c0.1,0.2,0.2,0.4,0.3,0.6c0.1,0.1-0.1,0.2-0.2,0.2
				c-0.4-0.2-0.9-0.7-0.8-1.2C368.3,97,368.4,97,368.6,97.1L368.6,97.1z"/>
			<path class="st4" d="M366.6,92.5c0.3,0.3,0.4,0.9,0.4,1.3c0.1,0.5,0.2,1,0.2,1.5c0,0.1-0.1,0.1-0.2,0c-0.2-0.5-0.4-1-0.5-1.5
				c-0.1-0.4-0.3-0.8-0.1-1.2C366.5,92.4,366.6,92.4,366.6,92.5z"/>
			<path class="st4" d="M367.8,93.7c0.2,0.5,0.2,1,0.2,1.5c0,0-0.1,0.1-0.1,0c-0.2-0.5-0.4-1-0.3-1.5
				C367.7,93.6,367.8,93.6,367.8,93.7L367.8,93.7z"/>
			<path class="st4" d="M367.3,88.6c0.2,0.6-0.1,1.4-0.2,1.9c0,0.1-0.2,0.1-0.2,0c-0.1-0.6-0.4-1.3-0.2-1.9
				C366.8,88.3,367.3,88.3,367.3,88.6L367.3,88.6z"/>
			<path class="st4" d="M365.6,87.9c0.3,0.2,0.4,0.6,0.4,0.9c0,0.4,0.1,0.8,0,1.3c0,0.2-0.3,0.2-0.3,0c0-0.4-0.1-0.8-0.3-1.1
				c-0.1-0.3-0.3-0.6-0.2-0.9C365.4,87.9,365.5,87.9,365.6,87.9L365.6,87.9z"/>
			<path class="st4" d="M365.6,83.6c0.1,0.1,0.3,0.2,0.3,0.4c0.1,0.2,0.1,0.4,0.1,0.6c0,0.4-0.1,0.8-0.1,1.2c0,0.1-0.3,0.2-0.3,0
				c-0.1-0.4-0.2-0.7-0.3-1.1c-0.1-0.2-0.1-0.4-0.1-0.5c0-0.2,0.1-0.3,0.1-0.4C365.3,83.5,365.5,83.5,365.6,83.6L365.6,83.6z"/>
			<path class="st4" d="M365.8,80.7c0.3,0.6,0.2,1.3,0.2,1.9c0,0.2-0.2,0.2-0.3,0c-0.2-0.6-0.4-1.3-0.3-1.9
				C365.5,80.7,365.7,80.6,365.8,80.7z"/>
			<path class="st4" d="M364.6,78.6c0.2,0.2,0.2,0.5,0.2,0.8c0,0.4,0.1,0.7,0.1,1.1c0,0.2-0.3,0.2-0.3,0.1c-0.1-0.3-0.1-0.7-0.2-1.1
				c0-0.3-0.1-0.6,0-0.8C364.4,78.6,364.5,78.5,364.6,78.6L364.6,78.6z"/>
			<path class="st4" d="M364.7,75c0.4,0.3,0.6,0.8,0.6,1.3c0,0.4,0,0.9-0.2,1.3c0,0.1-0.1,0.1-0.2,0.1c-0.3-0.2-0.5-0.7-0.7-1
				c-0.2-0.4-0.4-1-0.1-1.4C364.2,75,364.5,74.9,364.7,75L364.7,75z"/>
			<path class="st4" d="M364,71.9c0.2,0.2,0.3,0.5,0.4,0.8c0,0.3,0.1,0.7,0.1,1c0,0.1-0.2,0.1-0.2,0c-0.1-0.3-0.3-0.6-0.4-0.9
				c-0.1-0.3-0.2-0.6-0.1-0.9C363.8,71.9,363.9,71.8,364,71.9L364,71.9z"/>
			<path class="st4" d="M362.1,68.8c0.3,0.1,0.4,0.5,0.5,0.8c0.1,0.4,0.2,0.8,0.3,1.2c0,0.1-0.2,0.3-0.3,0.1
				c-0.2-0.4-0.3-0.7-0.5-1.1c-0.1-0.3-0.4-0.6-0.2-0.9C362,68.9,362,68.8,362.1,68.8z"/>
			<path class="st4" d="M362.2,65.9c0.4,0.3,0.5,0.9,0.6,1.4c0.1,0.3,0.3,0.9,0,1.2c0,0-0.1,0-0.1,0c-0.3-0.2-0.4-0.7-0.6-1
				c-0.2-0.4-0.5-0.9-0.5-1.3C361.6,65.8,362,65.7,362.2,65.9L362.2,65.9z"/>
			<path class="st4" d="M360.3,61.8c0.1,0.3,0.2,0.5,0.2,0.8c0,0.3,0.1,0.5,0.2,0.8c0,0.2-0.3,0.4-0.4,0.2c-0.1-0.2-0.2-0.5-0.4-0.7
				c-0.1-0.2-0.3-0.5-0.3-0.7C359.5,61.7,360.1,61.4,360.3,61.8L360.3,61.8z"/>
			<path class="st4" d="M358.7,57.5c0.3,0.5,0.4,1.3,0.4,1.9c0,0.1-0.1,0.2-0.2,0.1c-0.4-0.5-0.8-1.1-0.8-1.8
				C358,57.3,358.5,57.2,358.7,57.5L358.7,57.5z"/>
			<path class="st4" d="M361.6,63.6c0.2,0.4,0.2,0.7,0.3,1.1c0,0.1-0.1,0.1-0.2,0.1c-0.2-0.3-0.4-0.7-0.5-1.1
				C361,63.4,361.5,63.3,361.6,63.6z"/>
			<path class="st4" d="M360.3,64c0.4,0.5,0.5,1.1,0.5,1.8c0,0.1-0.2,0.2-0.2,0c-0.1-0.6-0.3-1.2-0.4-1.8
				C360.1,64,360.2,63.9,360.3,64L360.3,64z"/>
			<path class="st4" d="M357,54c0.1-0.1,0.2-0.1,0.2,0c0.3,0.2,0.2,0.7,0.3,1c0.1,0.4,0.1,0.8,0.2,1.2c0,0.1-0.1,0.2-0.2,0.1
				c-0.2-0.4-0.4-0.8-0.5-1.2C356.9,54.8,356.7,54.3,357,54L357,54z"/>
			<path class="st4" d="M363.1,73.9c0,0.3,0,0.7,0.1,1c0.1,0.2-0.2,0.3-0.3,0.1c-0.1-0.4-0.2-0.8,0-1.2
				C363,73.8,363.1,73.8,363.1,73.9L363.1,73.9z"/>
			<path class="st4" d="M365.5,102.4c0.5,0.2,0.9,0.7,1.3,1.1c0.2,0.2-0.1,0.5-0.3,0.3c-0.4-0.4-0.9-0.7-1.2-1.3
				C365.3,102.4,365.4,102.3,365.5,102.4z"/>
			<path class="st4" d="M363.6,99.4c0.2,0.2,0.4,0.5,0.6,0.7c0.2,0.3,0.4,0.6,0.7,0.8c0.1,0.1,0,0.2-0.1,0.2c-0.4-0.1-0.8-0.3-1-0.6
				c-0.3-0.3-0.4-0.6-0.4-1.1C363.4,99.4,363.5,99.3,363.6,99.4z"/>
			<path class="st4" d="M359.9,96.4c0.6,0.3,1,1.1,1.3,1.7c0,0.1,0,0.3-0.2,0.2c-0.6-0.4-1.3-0.7-1.7-1.2
				C359.1,96.6,359.6,96.2,359.9,96.4L359.9,96.4z"/>
			<path class="st4" d="M355.7,93.3c0.4-0.1,0.6,0.1,0.8,0.4c0.2,0.3,0.4,0.7,0.7,1.1c0,0.1-0.1,0.2-0.1,0.1c-0.3-0.3-0.7-0.5-1-0.8
				c-0.3-0.2-0.5-0.4-0.4-0.7C355.6,93.3,355.6,93.3,355.7,93.3L355.7,93.3z"/>
			<path class="st4" d="M361,99.7c0.5,0.1,0.9,0.5,1.1,0.9c0,0.1-0.1,0.2-0.1,0.1c-0.3-0.3-0.7-0.6-1-0.9
				C360.9,99.7,360.9,99.7,361,99.7L361,99.7z"/>
			<path class="st4" d="M357.2,96.7c0.6,0.2,1.1,0.6,1.5,1.1c0.1,0.1,0,0.3-0.1,0.2c-0.5-0.3-1.1-0.6-1.4-1.1
				C357,96.7,357.1,96.6,357.2,96.7L357.2,96.7z"/>
			<path class="st4" d="M353.9,93.8c0.5-0.1,0.8,0.3,1,0.7c0.1,0.1-0.1,0.3-0.2,0.2c-0.3-0.2-0.7-0.4-0.9-0.7
				C353.8,93.9,353.9,93.8,353.9,93.8L353.9,93.8z"/>
			<path class="st4" d="M350.9,89.6c0.3-0.1,0.5,0.1,0.8,0.3c0.3,0.2,0.6,0.4,0.8,0.6c0.1,0.1,0,0.2-0.1,0.2c-0.3-0.1-0.6-0.2-1-0.4
				c-0.3-0.1-0.5-0.2-0.6-0.5C350.8,89.7,350.9,89.6,350.9,89.6L350.9,89.6z"/>
			<path class="st4" d="M349.8,92.5c0.3-0.2,0.7,0,1,0.1c0.4,0.1,0.7,0.3,1,0.5c0.1,0.1,0,0.2-0.1,0.2c-0.4-0.2-0.7-0.3-1.1-0.4
				c-0.3-0.1-0.6,0-0.9-0.2C349.7,92.6,349.7,92.5,349.8,92.5L349.8,92.5z"/>
			<path class="st4" d="M349,90.6c0.4-0.1,0.6,0.1,0.9,0.3c0.4,0.2,0.8,0.5,1.2,0.7c0.1,0,0,0.2,0,0.1c-0.4-0.1-0.8-0.3-1.2-0.4
				c-0.3-0.1-0.8-0.2-1-0.6C348.9,90.7,348.9,90.6,349,90.6L349,90.6z"/>
			<path class="st4" d="M347.1,87.8c0.6,0.2,0.9,0.5,1.3,0.9c0,0.1,0,0.1-0.1,0.1c-0.4-0.2-0.9-0.3-1.4-0.4
				C346.6,88.3,346.8,87.7,347.1,87.8L347.1,87.8z"/>
			<path class="st4" d="M345.4,88.5c0.4,0.2,0.8,0.5,1.1,0.8c0.1,0.1,0,0.3-0.1,0.2c-0.4-0.2-0.9-0.3-1.3-0.5
				C344.8,88.8,345,88.3,345.4,88.5L345.4,88.5z"/>
			<path class="st4" d="M345.5,90c0.6-0.2,0.9,0.4,1.3,0.7c0.1,0.2,0,0.4-0.2,0.3c-0.4-0.2-0.9,0-1.2-0.4
				C345.1,90.4,345.2,90.1,345.5,90L345.5,90z"/>
			<path class="st4" d="M340.8,85.5c0.6-0.3,1.5,0,2,0.3c0.1,0.1,0.1,0.3-0.1,0.3c-0.4,0-0.7-0.1-1-0.1c-0.3-0.1-0.6-0.1-0.9-0.3
				C340.7,85.7,340.7,85.6,340.8,85.5L340.8,85.5z"/>
			<path class="st4" d="M340.9,87c0.5-0.3,1.4,0.2,1.9,0.5c0.1,0.1,0.1,0.3-0.1,0.3c-0.4,0-0.7,0-1.1-0.1c-0.3-0.1-0.6-0.1-0.8-0.4
				C340.8,87.1,340.8,87,340.9,87L340.9,87z"/>
			<path class="st4" d="M340.1,89c0.7,0,1.4,0.3,2,0.6c0.1,0,0,0.2,0,0.2c-0.7-0.1-1.5-0.1-2-0.5C339.9,89.2,340,89,340.1,89
				L340.1,89z"/>
			<path class="st4" d="M335.4,84.5c0.3-0.1,0.6,0.1,0.8,0.2c0.4,0.1,0.7,0.2,1.1,0.2c0.1,0,0.2,0.2,0,0.2c-0.4,0.1-0.8,0.1-1.2,0
				c-0.3,0-0.8-0.2-0.9-0.5C335.3,84.6,335.4,84.5,335.4,84.5L335.4,84.5z"/>
			<path class="st4" d="M337.5,86.1C337.5,86.1,337.5,86.1,337.5,86.1c0.1-0.1,0.1-0.2,0.2-0.2c0.2-0.1,0.3-0.1,0.5,0
				c0.3,0.1,0.5,0.3,0.5,0.6c0,0.2-0.2,0.2-0.3,0.1c-0.1-0.1-0.3-0.1-0.4-0.1c-0.1,0-0.2,0-0.2-0.1c0,0,0,0-0.1,0c0,0,0,0-0.1,0
				c-0.1-0.1-0.1-0.1,0,0C337.5,86.3,337.4,86.2,337.5,86.1C337.5,86.1,337.5,86.1,337.5,86.1L337.5,86.1z"/>
			<path class="st4" d="M335.3,86.6c0.8-0.2,1.7,0.4,2.3,0.9c0.1,0.1,0,0.2-0.1,0.2c-0.7-0.3-1.6-0.4-2.2-0.9
				C335.2,86.8,335.2,86.7,335.3,86.6L335.3,86.6z"/>
			<path class="st4" d="M330.4,84.1c0.2-0.2,0.5-0.2,0.8-0.2c0.3,0,0.6,0.1,0.9,0.2c0.1,0.1,0.1,0.2,0,0.2c-0.3,0.1-0.7,0.1-1,0.1
				c-0.3,0-0.6,0-0.8-0.3C330.4,84.2,330.4,84.1,330.4,84.1L330.4,84.1z"/>
			<path class="st4" d="M331.2,86.3c0.6-0.5,1.6,0,2.1,0.4c0.1,0.1,0,0.2-0.1,0.2c-0.6,0-1.6,0.1-2-0.3
				C331.2,86.4,331.2,86.3,331.2,86.3L331.2,86.3z"/>
			<path class="st4" d="M327.7,85.1c0.2,0,0.5,0,0.7,0c0.1,0,0.2,0.2,0,0.3c-0.2,0.1-0.4,0.1-0.6,0.2c-0.2,0-0.4,0.1-0.6,0
				c-0.1-0.1-0.1-0.1,0-0.2C327.3,85.1,327.5,85.1,327.7,85.1L327.7,85.1z"/>
			<path class="st4" d="M323.8,83.9c0.3-0.2,0.7-0.1,1-0.1c0.4,0.1,0.7,0.1,1,0.3c0.1,0.1,0.1,0.2,0,0.3c-0.3,0.1-0.6,0.2-1,0.3
				c-0.3,0.1-0.7,0.1-1-0.1C323.5,84.5,323.5,84.1,323.8,83.9L323.8,83.9z"/>
			<path class="st4" d="M318.2,85.3c0.3-0.1,0.6-0.3,0.8-0.5c0.1-0.1,0.2,0.1,0.1,0.2c-0.2,0.2-0.5,0.4-0.7,0.6
				c-0.2,0.2-0.5,0.4-0.8,0.3c-0.1-0.1-0.2-0.2-0.1-0.3C317.6,85.4,318,85.4,318.2,85.3L318.2,85.3z"/>
			<path class="st4" d="M313.1,88.4c0.2-0.2,0.5-0.5,0.7-0.7c0.1-0.1,0.3,0,0.2,0.2c-0.2,0.3-0.4,0.6-0.5,0.8
				c-0.2,0.3-0.3,0.5-0.6,0.6c-0.1,0.1-0.3,0-0.3-0.2C312.7,88.8,312.9,88.6,313.1,88.4L313.1,88.4z"/>
			<path class="st4" d="M310.9,91.6c0.1-0.1,0.3-0.1,0.2,0.1c-0.3,0.7-0.3,1.5-0.8,2.1c-0.1,0.1-0.2,0-0.3-0.1
				C309.9,93,310.5,92.3,310.9,91.6z"/>
			<path class="st4" d="M315.3,88.2c0.1-0.1,0.3,0,0.2,0.2c-0.4,0.8-0.8,1.7-1.6,2.3c-0.1,0.1-0.2,0-0.2-0.1
				C314,89.6,314.7,88.9,315.3,88.2z"/>
			<path class="st4" d="M309.8,91c0,0,0.1,0,0.1,0.1c0,0.3-0.1,0.7-0.3,1c-0.1,0.3-0.2,0.6-0.5,0.7c-0.1,0.1-0.2,0-0.2-0.1
				c0-0.3,0.1-0.6,0.3-0.9C309.4,91.5,309.6,91.2,309.8,91L309.8,91z"/>
			<path class="st4" d="M313.5,83.5c0.1-0.1,0.2,0,0.3,0.1c0.2,0.5,0.4,1.1,0.9,1.3c0.1,0,0.1,0.2,0,0.2c-0.4,0.1-0.9-0.1-1.1-0.4
				C313.3,84.4,313.2,83.9,313.5,83.5L313.5,83.5z"/>
			<path class="st4" d="M312.5,83.8c0.2,0.5,0.4,1,0.8,1.4c0.1,0.1,0,0.2-0.1,0.2c-0.6-0.3-1-0.9-0.9-1.5
				C312.2,83.8,312.4,83.7,312.5,83.8L312.5,83.8z"/>
			<path class="st4" d="M312.5,80.8c0.1,0.3,0.1,0.6,0.1,0.9c0,0.3-0.1,0.6-0.2,0.9c0,0.1-0.2,0.1-0.2,0c-0.1-0.6-0.2-1.4,0-1.9
				C312.3,80.7,312.4,80.7,312.5,80.8z"/>
			<path class="st4" d="M312.9,77.6c0.1-0.1,0.2,0,0.2,0.1c0.1,0.7-0.4,1.4-0.7,2c0,0.1-0.3,0-0.2-0.1
				C312.3,78.9,312.4,78.1,312.9,77.6L312.9,77.6z"/>
			<path class="st4" d="M307.1,89.4c0.2-0.1,0.5-0.1,0.7-0.1c0.3,0,0.6-0.1,0.9-0.1c0.2,0,0.3,0.2,0.1,0.3c-0.3,0.1-0.6,0.2-0.9,0.2
				c-0.3,0-0.6,0.1-0.8-0.2C307,89.5,307.1,89.4,307.1,89.4L307.1,89.4z"/>
			<path class="st4" d="M306.1,89.8c0.3,0,0.4,0.2,0.6,0.2c0.3,0.1,0.6,0.2,0.9,0.1c0.1,0,0.2,0.2,0,0.2c-0.3,0.1-0.7,0.2-1,0
				c-0.2-0.1-0.7-0.2-0.6-0.5C306,89.9,306.1,89.8,306.1,89.8L306.1,89.8z"/>
			<path class="st4" d="M305.3,91.7c0.3-0.1,0.6,0,0.9,0.1c0.4,0.1,0.7,0.2,1,0.4c0.1,0.1,0.1,0.3-0.1,0.2c-0.4,0-0.7-0.1-1-0.2
				c-0.3-0.1-0.6-0.1-0.9-0.4C305.1,91.8,305.2,91.7,305.3,91.7L305.3,91.7z"/>
			<path class="st4" d="M302.8,89.5c0.3-0.1,0.5,0.1,0.7,0.3c0.2,0.2,0.4,0.4,0.6,0.6c0.1,0.1,0,0.2-0.1,0.2
				c-0.3-0.1-0.5-0.2-0.7-0.3c-0.2-0.1-0.4-0.3-0.5-0.5C302.7,89.6,302.7,89.5,302.8,89.5z"/>
			<path class="st4" d="M301.7,87.5c0.1-0.2,0.3-0.3,0.4-0.5c0.1-0.1,0.3,0,0.2,0.1c-0.1,0.3-0.3,1.1-0.8,1c0,0-0.1-0.1-0.1-0.1
				C301.4,87.7,301.5,87.6,301.7,87.5L301.7,87.5z"/>
			<path class="st4" d="M300.3,90.2c0.1,0,0.2,0.1,0.1,0.2c-0.3,0.6-1,1.5-1.7,1.5c-0.1,0-0.2-0.1-0.1-0.2
				C298.7,91,299.7,90.4,300.3,90.2z"/>
			<path class="st4" d="M299,88.9c0.3-0.2,0.5-0.4,0.7-0.7c0.1-0.1,0.2,0,0.2,0.1c-0.3,0.5-0.7,1.2-1.3,1.2c-0.1,0-0.2-0.1-0.1-0.2
				C298.6,89.2,298.8,89.1,299,88.9L299,88.9z"/>
			<path class="st4" d="M309.3,94.5c0.1,0.8-0.1,1.7-0.7,2.3c-0.1,0.1-0.3,0-0.2-0.1c0.2-0.8,0.5-1.4,0.7-2.2
				C309.1,94.3,309.3,94.4,309.3,94.5z"/>
			<path class="st4" d="M295.5,91.3c0.2-0.2,0.5-0.3,0.8-0.5c0.3-0.2,0.6-0.4,0.8-0.6c0.1-0.1,0.3,0,0.2,0.2c-0.4,0.5-1,1.2-1.7,1.2
				C295.5,91.5,295.5,91.4,295.5,91.3L295.5,91.3z"/>
			<path class="st4" d="M294.2,93.7c0.3-0.2,0.5-0.3,0.8-0.4c0.3-0.2,0.5-0.4,0.7-0.6c0.1-0.1,0.2,0,0.2,0.1
				c-0.2,0.6-0.9,1.3-1.6,1.3C294.1,94,294.1,93.8,294.2,93.7L294.2,93.7z"/>
			<path class="st4" d="M288.5,96.3c0.1,0,0.1,0.1,0,0.2c-0.3,0.1-0.5,0.3-0.7,0.4c-0.2,0.2-0.4,0.3-0.7,0.2c-0.1,0-0.1-0.1-0.1-0.2
				C287.2,96.4,288,96.3,288.5,96.3L288.5,96.3z"/>
			<path class="st4" d="M286.7,95.3c0.3-0.3,0.7-0.3,1.1-0.3c0.1,0,0.2,0.2,0.1,0.3c-0.1,0.1-0.2,0.2-0.3,0.3s-0.2,0.3-0.3,0.3
				c-0.2,0.2-0.5,0.2-0.7,0c0,0,0-0.1-0.1-0.1C286.5,95.7,286.5,95.4,286.7,95.3L286.7,95.3z"/>
			<path class="st4" d="M371.7,120.4c0.2-0.3,0.4-0.5,0.7-0.8c0.1-0.1,0.3,0,0.3,0.2c-0.1,0.3-0.3,0.6-0.5,0.9
				c-0.1,0.2-0.3,0.5-0.6,0.5c-0.1,0-0.2,0-0.2-0.1C371.4,120.8,371.5,120.6,371.7,120.4L371.7,120.4z"/>
			<path class="st4" d="M370.5,123.5c0.3-0.3,0.7-0.5,1.1-0.7c0.1-0.1,0.4,0.1,0.3,0.3c-0.2,0.3-0.5,0.7-0.8,0.9
				c-0.3,0.3-0.6,0.5-0.9,0.5c-0.1,0-0.2-0.1-0.2-0.2C369.9,123.9,370.2,123.7,370.5,123.5L370.5,123.5z"/>
			<path class="st4" d="M366.5,121.6c0.4-0.1,0.7-0.1,1.1-0.1c0.1,0,0.2,0.2,0.1,0.2c-0.3,0.2-0.6,0.4-1,0.6c-0.3,0.2-0.7,0.3-1,0.1
				c-0.1-0.1-0.1-0.2-0.1-0.3C365.8,121.7,366.2,121.6,366.5,121.6L366.5,121.6z"/>
			<path class="st4" d="M366.6,124c0.3-0.1,0.7-0.2,1-0.3c0.1,0,0.2,0.2,0.1,0.2c-0.3,0.2-0.6,0.4-0.9,0.6c-0.3,0.1-0.7,0.3-1,0.2
				c-0.1,0-0.2-0.1-0.1-0.2C365.9,124.3,366.3,124.1,366.6,124L366.6,124z"/>
			<path class="st4" d="M363.4,123.5c0.2-0.1,0.4-0.1,0.6-0.1c0.1,0,0.1,0.1,0.1,0.1c-0.2,0.1-0.4,0.2-0.5,0.3
				c-0.2,0.1-0.4,0.2-0.5,0.1c0,0-0.1-0.1,0-0.1C363.1,123.6,363.3,123.6,363.4,123.5L363.4,123.5z"/>
			<path class="st4" d="M369,126.1c0.5-0.6,1.3-0.9,2-1.1c0.2,0,0.3,0.2,0.2,0.3c-0.6,0.6-1.3,1-2.1,1.1
				C368.9,126.4,368.9,126.2,369,126.1z"/>
			<path class="st4" d="M366.2,125.9c0.5-0.4,1.2-0.1,1.6,0.3c0.1,0.1,0,0.2-0.1,0.1c-0.2-0.1-0.5-0.1-0.8-0.1c-0.2,0-0.4,0.1-0.6,0
				C366.1,126.2,366.1,126,366.2,125.9L366.2,125.9z"/>
		</g>
	</g>
</g>
<g>
	<g>
		<path class="st5" d="M98.9,581.6l0,0.2l0.2,4.4l0.7,4.2l0.4,2.6c0.2,1,1,2.2,1.3,3.2l1.6,3c1,2.3-0.2,0.2,1.3,2.1l1.3,0.9
			c1.1,1.1,1.3,0.6,2.5,1.6l2.8,1.3c1.4,0.9,2.2,0.6,3.9,0.9l0.5,0.1c3.1,0.3,6.2-0.3,9.1-1.3l0.7-0.3c1.8-0.9,2.7-0.5,3.8-2.2
			l1.4-1l1.3-1.4c1.6-2.3,2.4-2.8,2.9-5.5c0.4-1.9,0.9-3.9,1.1-5.8c0-0.1-0.2-1.6-0.3-1.7c0.1-1.4,0-1.3-0.5-3l-0.4-2.6l-1.3-5v0
			c-1.3-5.9-3.2-9.8-8.1-13.5c-1-0.8-2.8-1.1-4-1.5c-0.2-0.1-2.7-0.4-2.9-0.3c-2.5,1.2-3.3,0.7-6,1.3c-2.2,0.3-1.5,0.5-4.7,0.5
			c-0.3,0-3.6,2.3-3.8,2.4c-2.6,2.2-4.3,5.5-4.8,8.8C98.4,577.4,98.5,577.8,98.9,581.6L98.9,581.6z"/>
		<g>
			<path class="st6" d="M119.1,590.3c0.1,0.4,0.4,0.4,0.5,0.7c-1-0.3-1.3-1.1-1.8-2c-0.1,0.3-0.1,0.6-0.2,0.8
				c-0.1,0.4-0.2,0.8-0.5,1.2c-0.1,0.1-0.1,0.1-0.3,0c-0.1,0-0.2,0-0.2,0.1c-0.4,0.3-0.8,0.6-1.3,1c-1.1,0.9-0.9,2.2,0.3,2.8
				c0.8,0.4,1.6,0.6,2.3,1c0.4,0.2,0.7,0.5,1,0.8c0.5-1,1.3-1.8,2.2-2.4c0.4-0.3,0.7-0.6,0.9-1.1c0.3-0.8,0-1.6-0.9-2
				C120.5,590.8,119.8,590.7,119.1,590.3L119.1,590.3z"/>
			<path class="st6" d="M115.1,582.7c0.1-0.1,0.1-0.3,0.2-0.4c0,0-0.1,0-0.1-0.1c-0.4,0.3-0.9,0.7-1.3,1c-1.1,0.9-0.9,2.2,0.4,2.9
				c0.2,0.1,0.5,0.2,0.7,0.3c1,0.3,2,0.7,2.6,1.8c0.3-1.3,1.1-2,2-2.6c0,0,0,0,0.1-0.1c1.4-1.1,1.2-2.8-0.5-3.3
				c-0.5-0.2-0.9-0.3-1.4-0.5c0.1,0.3,0.3,0.4,0.5,0.6c0,0,0.1,0,0.1,0.1c0,0-0.1,0-0.1,0c-1-0.3-1.3-1.2-1.8-2.1
				c-0.2,1-0.3,1.9-1.1,2.5C115.2,582.7,115.2,582.7,115.1,582.7C115.2,582.7,115.1,582.7,115.1,582.7L115.1,582.7z"/>
			<path class="st6" d="M111.2,587.5c0-0.2,0.1-0.3,0-0.6c-0.5,0.7-1.3,1.1-1.8,1.8c-0.6,0.8-0.3,1.8,0.5,2.4
				c0.3,0.2,0.7,0.4,1.1,0.5c0.7,0.3,1.5,0.5,2.1,1.1c0.2,0.1,0.3,0.1,0.3-0.1c0.3-0.8,0.9-1.4,1.5-1.9c0.3-0.3,0.6-0.5,0.9-0.8
				c0.2-0.2,0.4-0.4,0.5-0.7c0.3-0.6,0.1-1.1-0.5-1.3c-0.3-0.1-0.7-0.2-1.1-0.3c-1.3-0.3-2.3-1-2.8-2.3c-0.3,0.3-0.2,0.6-0.3,0.8
				C111.5,586.7,111.5,587.2,111.2,587.5C111.2,587.6,111.2,587.6,111.2,587.5C111.2,587.6,111.2,587.6,111.2,587.5z"/>
			<path class="st6" d="M123.4,585c-0.1,0.2,0.1,0.3,0,0.4c-0.6-0.4-0.7-1.2-1.2-1.7c-0.1,0.4-0.1,0.8-0.2,1.2
				c-0.3,1-1.1,1.6-1.9,2.1c-0.3,0.2-0.5,0.3-0.8,0.5c-0.6,0.5-0.6,1.2,0.1,1.6c0.6,0.3,1.2,0.6,1.7,0.9c0.7,0.3,1.5,0.7,2,1.3
				c0.1,0.2,0.2,0.1,0.3,0c0.5-0.7,1.2-1.3,1.8-1.8c1.6-1.3,1.4-2.6-0.4-3.5C124.3,585.6,123.9,585.4,123.4,585L123.4,585z"/>
			<path class="st6" d="M113.2,594.1c-0.4,0.7-0.3,1.4-0.6,2.1c0-0.2-0.1-0.3-0.1-0.6c-0.6,0.6-1.3,1.2-1.7,1.8
				c-0.5,0.7-0.4,1.6,0.3,2.2c0.4,0.4,0.9,0.7,1.5,0.8c0.8,0.2,1.6,0.3,2.3,0.5c0.2,0,0.3,0,0.4-0.2c0.4-0.7,1-1.1,1.6-1.6
				c0.5-0.4,0.9-0.9,1.1-1.5c0.2-0.5,0-0.7-0.5-0.8c-0.2,0-0.3,0-0.5,0C115,596.7,114,596,113.2,594.1L113.2,594.1z"/>
			<path class="st6" d="M125.1,594.4c-0.6-0.5-0.9-1.4-1.4-2c-0.1,0.2-0.1,0.4-0.1,0.6c-0.1,1.5-1,2.5-2.3,3.1
				c-0.3,0.2-0.7,0.3-1,0.5c-0.4,0.2-0.4,0.5-0.1,0.8c0.4,0.4,0.8,0.7,1.3,0.9c0.5,0.2,1.1,0.4,1.5,0.8c0.6,0.4,1.2,0.4,1.8,0.1
				c0.7-0.3,1.3-0.7,1.9-1.2c1.3-1.1,1.1-2.5-0.3-3.3c-0.4-0.3-0.8-0.5-1.3-0.7c-0.1-0.1-0.2-0.2-0.3-0.1c-0.1,0.1,0,0.2,0.1,0.3
				C125.1,594.3,125.2,594.3,125.1,594.4L125.1,594.4z"/>
			<path class="st6" d="M122.1,577c-0.6-0.5-0.8-1.1-1.2-1.7c0,0-0.1,0.1-0.1,0.1c-0.1,1.5-0.9,2.4-2.2,3c-0.2,0.1-0.3,0.2-0.5,0.3
				c-0.8,0.6-0.8,1.5,0.1,1.9c0.8,0.4,1.5,0.7,2.3,1.1c0.4,0.2,0.7,0.4,0.9,0.7c0.2,0.3,0.4,0.3,0.6,0c0.5-0.8,1.2-1.3,1.9-2
				c1.2-1.2,0.9-2.4-0.6-3.1c-0.4-0.2-0.7-0.3-1.1-0.5c-0.1,0-0.2-0.1-0.2,0.1c0.1,0,0.1,0.1,0.2,0.1c0,0,0.1,0.1,0.1,0.1l0.1,0.1
				c-0.1,0.1-0.1,0-0.2,0c0,0-0.1,0-0.1-0.1C122.2,577,122.1,577,122.1,577L122.1,577z"/>
			<path class="st6" d="M110.7,577c-0.5,0.6-0.3,1.5-0.8,2.1c-0.2-0.2,0.1-0.3-0.1-0.6c-0.5,0.5-1.1,0.9-1.5,1.5
				c-0.6,0.8-0.5,1.7,0.3,2.3c0.4,0.3,0.8,0.5,1.2,0.7c0.7,0.3,1.5,0.6,2,1.3c0.3-1.1,1.1-1.8,1.9-2.5c0.3-0.2,0.6-0.5,0.8-0.7
				c0.4-0.3,0.6-0.7,0.5-1.2c-0.1-0.5-0.5-0.8-1-0.9c-0.8-0.1-1.5-0.3-2.2-0.7c-0.5-0.3-0.9-0.6-0.9-1.2
				C110.8,577.2,110.8,577.1,110.7,577L110.7,577z"/>
			<path class="st6" d="M116.2,579.6c0.2-1,0.8-1.7,1.5-2.3c0.4-0.3,0.8-0.6,1.1-1c0.6-0.7,0.4-1.8-0.4-2.3
				c-0.6-0.3-1.2-0.5-1.8-0.6c0,0.3,0.3,0.2,0.3,0.5c-0.7-0.1-0.9-0.4-1.8-1.8c-0.1,0.5-0.2,1-0.4,1.4c-0.2,0.4-0.5,0.8-0.9,1.1
				c-0.1-0.3,0.2-0.3,0.1-0.6c-0.5,0.3-1.1,0.6-1.5,1.1c-0.6,0.7-0.4,1.6,0.3,2.2c0.3,0.3,0.7,0.4,1.1,0.5
				C114.8,578.1,115.7,578.6,116.2,579.6L116.2,579.6z"/>
			<path class="st6" d="M129,588.7c0,0.3,0.3,0.5,0.2,0.8c-0.6-0.6-0.8-1.4-1.3-2c-0.1,0-0.1,0-0.1,0c-0.2,2.1-1.5,3.2-3.3,3.9
				c-0.2,0.1-0.5,0.1-0.5,0.3c0,0.2,0.3,0.3,0.4,0.4c0.9,0.7,1.9,1.2,2.8,1.7c0.2,0.1,0.4,0.2,0.6,0.4c0.3,0.3,0.6,0.4,0.9,0.2
				c0.8-0.6,1.6-1.1,2.2-1.8c0.9-0.9,0.9-2.5-0.6-3.1C129.9,589.3,129.5,589,129,588.7L129,588.7z"/>
			<path class="st6" d="M107,592.5c0-0.1,0-0.2,0-0.4c-0.6,0.7-1.3,1.3-1.7,2c-0.4,0.7-0.1,1.6,0.6,2.1c1,0.7,2.1,1,3.3,1.3
				c0.2,0,0.3,0,0.4-0.2c0.3-0.7,0.9-1.2,1.5-1.8c0.6-0.6,1.1-1.2,1.5-2c-2.2-0.2-4.1-0.7-4.9-3c-0.4,0.7-0.4,1.4-0.6,2.1
				c0,0.1,0,0.1,0,0.2c0,0,0,0-0.1,0C107,592.7,107,592.6,107,592.5L107,592.5z"/>
			<path class="st6" d="M126.4,579.1c-0.2,2-1.5,3-3.2,3.5c-0.2,0.1-0.5,0.1-0.5,0.3c0,0.2,0.2,0.3,0.4,0.5c0.6,0.5,1.4,0.9,2.1,1.3
				c0.8,0.4,1.5,0.9,2.1,1.5c0.1,0.2,0.2,0.2,0.3,0c0.5-0.7,1.1-1.2,1.8-1.7c1.4-1.1,1.1-2.8-0.5-3.3c-0.3-0.1-0.5-0.3-0.7-0.4
				c-0.1,0-0.2-0.1-0.2,0.1c0,0.1,0.2,0.2,0,0.2c-0.1,0-0.2-0.1-0.2-0.2C127.2,580.3,126.8,579.7,126.4,579.1L126.4,579.1z"/>
			<path class="st6" d="M106.6,582.2c-0.5,0.8-0.6,1.8-1,2.5c-0.1-0.2,0-0.4-0.1-0.6c-0.6,0.6-1.2,1.1-1.6,1.8
				c-0.3,0.8,0,1.6,0.9,2.1c0.7,0.4,1.4,0.7,2,1c0.3,0.1,0.5,0.5,0.8,0.4c0.3-0.1,0.2-0.5,0.4-0.8c0.3-0.5,0.7-0.9,1-1.3
				c0.7-0.7,1.4-1.4,1.8-2.3c0.2-0.3,0.1-0.4-0.2-0.4c-0.3,0-0.6-0.1-0.9-0.1C108.4,584.4,107.1,584,106.6,582.2L106.6,582.2z"/>
			<path class="st6" d="M119.1,597.7c-0.2,1.3-0.9,2.1-1.9,2.7c-0.2,0.1-0.4,0.2-0.5,0.3c-0.9,0.7-0.9,1.7,0.2,2.2
				c0.4,0.2,0.8,0.3,1.2,0.5c0.7,0.2,1.4,0.4,1.9,0.9c0.1,0.1,0.2,0.1,0.3,0c0.5-0.8,1.3-1.3,2-1.8c0.4-0.3,0.8-0.7,0.9-1.1
				c0.2-0.7,0-1.2-0.6-1.5c-0.3-0.1-0.5-0.2-0.8-0.3C120.7,599.4,119.7,599,119.1,597.7L119.1,597.7z"/>
			<path class="st6" d="M106.6,581.1c0.3-1.2,1-1.9,1.8-2.6c0.6-0.5,1.1-1.1,1.5-1.8c0.2-0.3,0.2-0.4-0.2-0.4
				c-0.6,0-1.1-0.1-1.7-0.2c-1.1-0.2-2-0.7-2.2-2.1c-0.2,0.2-0.3,0.4-0.4,0.7c-0.3,0.8-0.8,1.5-1.4,2.1c-1,0.8-1,2,0.1,2.8
				c0.3,0.2,0.6,0.3,0.9,0.5C105.5,580.4,106,580.7,106.6,581.1L106.6,581.1z"/>
			<path class="st6" d="M124.3,600.2c0.7,0.7,1.4,1.1,2.2,1.5c0.6,0.3,1.3,0.5,1.8,1c0.1,0.1,0.3,0.1,0.4,0c0.5-0.5,1.1-0.8,1.6-1.2
				c0.8-0.6,1.4-1.2,1.5-2.2c0.1-0.7,0-0.8-0.7-1.1c-0.6-0.2-1-0.6-1.3-1c-0.3-0.4-0.5-0.7-0.9-1.2
				C128.5,598.8,126.5,599.6,124.3,600.2L124.3,600.2z"/>
			<path class="st6" d="M109.5,599.2c-0.2,0.3-0.3,0.7-0.4,1c-0.2,0.6-0.5,1.2-1.1,1.7c-0.4,0.3-0.5,0.7-0.3,1.3s0.6,0.9,1.1,1.2
				c0.9,0.5,2,0.6,2.9,1.1c0.2,0.1,0.3,0,0.3-0.2c0.3-0.6,0.8-0.9,1.2-1.3c0.7-0.6,1.2-1.3,1.7-2.2c-0.6,0-1.1,0-1.5,0
				c-0.7,0-1.3-0.2-1.9-0.4c-0.8-0.3-1.4-0.9-1.8-1.8C109.7,599.4,109.7,599.3,109.5,599.2L109.5,599.2z"/>
			<path class="st6" d="M119.3,567.8c0,1.1-0.5,1.8-1.5,2.2c-0.5,0.2-0.9,0.6-1.3,0.9c-0.6,0.5-0.5,1,0.2,1.3c0.5,0.2,1,0.4,1.5,0.6
				c0.7,0.3,1.4,0.6,1.9,1.3c0.1,0.2,0.3,0.2,0.4,0c0.5-0.7,1.1-1.2,1.8-1.7c0.5-0.4,0.8-0.8,0.6-1.5c-0.2-0.7-0.6-1.3-1.4-1.3
				c-0.7-0.1-1.3-0.4-1.6-1C119.7,568.2,119.5,568,119.3,567.8L119.3,567.8z"/>
			<path class="st6" d="M109.7,569.1c-0.3,0.8-0.6,1.6-0.9,2.4c-0.1-0.4-0.3-0.3-0.5-0.2c-0.3,0.2-0.5,0.5-0.8,0.7
				c-0.7,0.8-0.6,1.9,0.4,2.3c0.6,0.3,1.2,0.5,1.8,0.8c0.3,0.2,0.6,0.3,0.9,0.5c0.2-0.3,0.3-0.6,0.5-0.9c0.5-0.7,1.1-1.2,1.8-1.8
				c0.3-0.2,0.5-0.4,0.7-0.6c0.2-0.3,0.2-0.7-0.1-0.9c-0.6-0.4-1.3-0.7-2-0.6c-0.8,0-1.1-0.1-1.5-0.9
				C110,569.8,109.9,569.5,109.7,569.1L109.7,569.1z"/>
			<path class="st6" d="M125.9,577.9c0.6-0.8,1.3-1.4,1.9-2.1c0.8-1,0.3-2.5-1-2.7c-0.1,0-0.2,0-0.3-0.1c-0.3-0.4-0.2,0-0.3,0.1
				c-0.6-0.6-0.9-1.4-1.6-1.9c-0.1,1.9-1.3,2.7-2.9,3.2c-0.2,0-0.5,0-0.5,0.2c0,0.2,0.2,0.3,0.4,0.5c0.5,0.5,1.1,0.7,1.8,1
				C124.3,576.5,125.3,576.9,125.9,577.9L125.9,577.9z"/>
			<path class="st6" d="M102.7,587.6c-0.2,0.7-0.6,1.3-1,1.8c-0.3,0.4-0.6,0.8-0.8,1.3c-0.3,0.7-0.2,1.4,0.4,2
				c0.7,0.8,1.6,1.1,2.6,1.5c0.2,0.1,0.3,0,0.3-0.1c0.4-0.9,1.2-1.6,1.8-2.4c0.3-0.4,0.6-0.8,0.9-1.2c0.1-0.1,0.2-0.2,0.1-0.3
				c-0.1-0.1-0.2-0.1-0.3-0.1c-0.3,0-0.5,0-0.8,0c-1.3-0.1-2.2-0.8-2.8-1.9c-0.1-0.1-0.1-0.2-0.1-0.3
				C102.8,587.7,102.8,587.7,102.7,587.6L102.7,587.6z"/>
			<path class="st6" d="M128.1,586.7c1,0.8,2,1.4,3.1,2c0.3,0.2,0.5,0.3,0.7,0.6c0.2,0.3,0.4,0.3,0.7,0.1c0.6-0.5,1.2-1,1.6-1.6
				c0.6-1,0.5-2-0.3-2.8c-0.3-0.3-0.6-0.5-1-0.9l0.1,0.7c-0.4-0.4-0.5-0.8-0.7-1.1c-0.2-0.3-0.4-0.7-0.8-1.1
				C131.6,585.1,130.2,586.1,128.1,586.7L128.1,586.7z"/>
			<path class="st6" d="M104,595.7c-0.3,0.5-0.4,1.2-0.6,1.7c-0.1,0.2-0.1,0.3-0.2,0.4c-0.4,0.2-0.4,0.5-0.4,0.9
				c0,1.6,1.5,3,3.1,3.1c0.4,0,0.8-0.1,1.1-0.5c0.7-0.9,1.4-1.7,2-2.7c0.2-0.3,0.2-0.4-0.2-0.4c-0.3,0-0.6,0-0.9,0
				c-1.5-0.1-2.6-0.8-3.3-2.1C104.2,596.1,104.1,595.9,104,595.7C104.1,595.8,104,595.8,104,595.7L104,595.7z"/>
			<path class="st6" d="M134.4,592.8c-0.1,0.3,0.1,0.4,0,0.7c-0.4-0.8-0.8-1.7-1.6-2.4c-0.3,2.4-1.8,3.6-4.1,4
				c1.1,0.9,2.1,1.8,3.4,2.5c0.3,0.2,0.6,0.1,0.9,0c1.5-0.5,2.5-2.6,1.8-4.1C134.8,593.2,134.7,593,134.4,592.8L134.4,592.8z"/>
			<path class="st6" d="M115.5,566.5c0.2,0.1,0.3,0.2,0.4,0.2c-1,0-1.5-0.6-1.9-1.3c-0.2,0.6-0.3,1.2-0.8,1.5
				c-0.1,0.1-0.3,0.5-0.6,0c0-0.1-0.2,0-0.3,0c-0.4,0.2-0.8,0.5-1.1,0.9c-0.4,0.6-0.3,1.2,0.3,1.5c0.4,0.2,0.8,0.4,1.2,0.5
				c0.4,0.2,0.8,0.3,1.1,0.5c0.3,0.2,0.6,0.5,0.9,0.9c0.4-1.2,1.4-1.9,2.3-2.7c0.7-0.5,0.5-1.5-0.3-1.9
				C116.6,566.5,116.2,566.5,115.5,566.5L115.5,566.5z"/>
			<path class="st6" d="M102,579.4c-0.3,0.4-0.4,0.9-0.5,1.3c-0.1,0.3-0.2,0.5-0.5,0.7c-1.1,0.6-1.3,2.5-0.4,3.4
				c0.5,0.5,1.2,0.8,1.9,1.2c0.2,0.1,0.3,0,0.4-0.1c0.4-1.1,1.3-1.9,2-2.7c0.3-0.3,0.6-0.7,0.9-1c0.3-0.4,0.2-0.5-0.2-0.5
				c-0.5-0.1-1-0.1-1.5-0.2c-0.9-0.2-1.6-0.7-1.9-1.7C102.1,579.6,102,579.5,102,579.4L102,579.4z"/>
			<path class="st6" d="M129.7,574.9c0.1,1.5-0.6,2.3-1.8,2.8c-0.4,0.2-0.9,0.4-1.4,0.7c0.9,0.6,1.8,1.1,2.7,1.6
				c0.6,0.4,1.3,0.7,1.8,1.3c0.1,0.2,0.3,0.2,0.4,0c0.4-0.4,0.8-0.9,1.2-1.3c0.6-0.8,0.6-1.7,0-2.5c-0.3-0.4-0.8-0.8-1.2-1
				c-0.2,0.2,0.1,0.3,0,0.5C130.6,576.4,130.4,575.6,129.7,574.9L129.7,574.9z"/>
			<path class="st6" d="M128.6,569.5c-0.4-0.7-1-1.2-1.4-1.8c-0.2,0.1-0.1,0.2-0.1,0.3c-0.1,1.1-0.7,1.8-1.6,2.4
				c-0.3,0.2-0.3,0.3,0,0.5c0.7,0.5,1.4,0.9,2.1,1.3c0.6,0.3,1.1,0.7,1.5,1.3c0.2,0.2,0.3,0.3,0.6,0.1c0.7-0.6,1.2-1.3,1.1-2.3
				c-0.1-1-0.9-1.6-1.7-2C128.7,569.1,128.7,569.1,128.6,569.5L128.6,569.5z"/>
			<path class="st6" d="M99.9,576.1c0.1,0.5,0.3,0.8,0.6,1.2c0.3,0.3,0.7,0.4,1,0.6c0.3,0.2,0.5,0.2,0.6-0.2c0.3-0.8,0.7-1.4,1.3-2
				c0.4-0.4,0.8-0.9,1.2-1.4c0.3-0.5,0.2-0.7-0.3-0.8c-0.9-0.2-1.5-0.6-1.8-1.5c-0.1-0.2-0.2-0.2-0.2,0c-0.4,0.8-1.2,1.4-1.7,2.1
				C100.1,574.7,99.8,575.3,99.9,576.1L99.9,576.1z"/>
			<path class="st6" d="M106.1,566.8c-0.4,1.2-1.3,2-2,2.8c-0.5,0.5-0.5,1.2-0.4,1.9c0,0.3,0.3,0.5,0.6,0.6c0.4,0.2,0.9,0.4,1.2,0.7
				c0.2,0.2,0.2,0.1,0.3-0.1c0.3-0.8,0.8-1.3,1.4-1.8c0.6-0.5,1.2-1.1,1.5-1.8c0.1-0.2,0.1-0.3-0.2-0.4
				C107.4,568.6,106.4,568.2,106.1,566.8L106.1,566.8z"/>
			<path class="st6" d="M123.6,566.1c-0.5-0.6-1-1.2-1.6-1.9c0.2,1.7-1,2.3-2.1,2.9c0.4,0.4,0.8,0.7,1.3,0.9c1,0.5,2,0.9,2.9,1.7
				c0.1,0.1,0.3,0.2,0.4,0c0.5-0.5,0.9-0.9,1.1-1.6c0.1-0.8-0.2-1.5-1-1.8c-0.2-0.1-0.4-0.2-0.6-0.4
				C123.7,565.7,123.7,566,123.6,566.1L123.6,566.1z"/>
			<path class="st6" d="M117.1,562c0.2,1-0.3,1.6-1,2c-0.3,0.2-0.6,0.4-0.8,0.6c-0.3,0.3-0.3,0.5,0.1,0.6c0.4,0.1,0.7,0.2,1.1,0.3
				c0.7,0.2,1.3,0.4,1.8,0.8c0.3,0.3,0.5,0.2,0.8-0.1c0.4-0.4,0.8-0.7,1.1-1.1c0.6-0.7,0.5-1.3-0.3-1.7c-0.3-0.1-0.6-0.3-1-0.3
				c-0.3,0-0.6-0.2-0.9-0.5c-0.3-0.3-0.6-0.6-0.8-0.9C117.2,562,117.1,562,117.1,562L117.1,562z"/>
			<path class="st6" d="M109.9,563.2c-0.3,0.1-0.3,0.3-0.4,0.5c-0.3,0.7-0.8,1.3-1.5,1.6c-0.5,0.2-0.7,0.7-0.7,1.1
				c0,0.3,0.1,0.5,0.4,0.6c0.6,0.3,1.2,0.6,1.8,0.8c0.3,0.1,0.7,0.1,0.8-0.2c0.4-0.8,1.3-1.2,2-1.7c0.2-0.1,0.5-0.2,0.4-0.5
				c0-0.3-0.3-0.3-0.5-0.4c0,0-0.1,0-0.1,0C111.2,564.7,110.1,564.4,109.9,563.2L109.9,563.2z"/>
			<path class="st6" d="M135.5,585.5c0.8-2.5,0.1-4.7-1.1-6.8c-0.1,0.3-0.1,0.6-0.2,0.8c-0.2,1.3-0.9,2-2.2,2.3
				c-0.1,0-0.3,0-0.3,0.2s0.1,0.2,0.2,0.3c0.8,0.5,1.6,1,2.3,1.6C134.7,584.3,135.1,584.8,135.5,585.5L135.5,585.5z"/>
			<path class="st6" d="M99.7,591c0.3-1.7,1.7-2.9,2.5-4.4c-1.7,0.2-2.9-0.5-3.3-2.2C98,585.6,98.5,589.8,99.7,591L99.7,591z"/>
			<path class="st6" d="M130.1,574.2c1.2,1.2,2.8,1.9,3.7,3.3c0.3-0.3,0.3-0.7,0.3-1c0-1.8-0.6-3.5-1.8-4.8c0,0-0.1-0.1-0.2-0.1
				c-0.1,0.6-0.1,1.2-0.5,1.8S130.8,574,130.1,574.2L130.1,574.2z"/>
			<path class="st6" d="M98.7,577c-1.1,0.7-1,5.1,0.2,6.1c0.4-1.5,1.5-2.5,2.2-3.8c0.2-0.3,0.2-0.4-0.2-0.5
				C99.7,578.7,99,578.1,98.7,577L98.7,577z"/>
			<path class="st6" d="M135.6,592.8c1-2,1-4,0.2-6c-0.2,1.8-1.1,3-3,3.4C133.8,590.9,134.9,591.5,135.6,592.8z"/>
			<path class="st6" d="M103.7,594.8c-1.8,0.2-2.9-0.7-3.7-2.2c0,1.7,0.3,3.2,1.2,4.5c0.2,0.3,0.4,0.7,0.7,0.7
				c0.3,0,0.3-0.5,0.4-0.8c0.3-0.6,0.7-1.1,1.1-1.7C103.4,595.3,103.6,595.1,103.7,594.8L103.7,594.8z"/>
			<path class="st6" d="M113.8,564.5c0.1,0,0.2-0.1,0.2-0.2c0.4-0.6,0.9-1.1,1.5-1.5c0.2-0.1,0.4-0.3,0.3-0.5c0-0.3-0.3-0.3-0.5-0.4
				c-0.4-0.1-0.8-0.1-1.2-0.2c-0.1,0-0.2,0-0.3,0c-0.4-0.4-0.7-0.1-1,0.1c-0.4,0.3-0.9,0.5-1.3,0.8c-0.4,0.3-0.4,0.5,0.1,0.7
				c0.7,0.3,1.5,0.6,2.1,1.1C113.7,564.4,113.7,564.4,113.8,564.5L113.8,564.5z"/>
			<path class="st6" d="M127.6,564.9c0.2,0.8,0.2,1.4-0.1,2c-0.1,0.2,0.1,0.3,0.3,0.4c0.4,0.3,0.9,0.5,1.3,0.8
				c0.8,0.5,1.5,0.9,2,1.7C131.5,568.3,129.9,566.2,127.6,564.9L127.6,564.9z"/>
			<path class="st6" d="M100.9,569.1c-1.3,1.8-2.5,3.6-1.8,5.9c0.5-1.4,1.4-2.3,2.3-3.4c0.3-0.3,0.3-0.6-0.1-0.9
				C100.9,570.3,100.9,569.7,100.9,569.1z"/>
			<path class="st6" d="M102.6,570c0.4-1.3,1.4-2.1,2.3-2.9c0.3-0.3,0.3-0.5-0.1-0.7c-0.4-0.2-0.7-0.4-0.8-0.9
				c0-0.1-0.1-0.2-0.2-0.1c-1.5,0.7-2.2,3.1-1.3,4.5C102.5,569.9,102.6,569.9,102.6,570L102.6,570z"/>
			<path class="st6" d="M126.1,566.3c0.5-1.7-0.1-3.1-2.7-4c0.1,0.6-0.2,1.1-0.6,1.4c-0.2,0.2-0.2,0.3,0.1,0.5
				c0.2,0.1,0.4,0.2,0.6,0.3C124.5,564.9,125.4,565.4,126.1,566.3z"/>
			<path class="st6" d="M117.6,561.5c0.6,0.4,1.2,0.5,1.7,0.7c0.6,0.2,1.3,0.4,1.8,0.9c0.1,0.1,0.2,0.1,0.3,0c0.3-0.3,0.5-0.6,0.4-1
				c-0.2-0.5-0.5-0.9-0.9-0.8c-0.4,0-0.6-0.2-0.9-0.3c-0.4-0.2-0.7-0.2-1,0.2c-0.2,0.2-0.3,0.2-0.6,0.2
				C118.2,561.4,118,561.4,117.6,561.5L117.6,561.5z"/>
			<path class="st6" d="M109.1,562.9c-0.3,0.1-0.5,0.1-0.7,0.2c-0.2,0-0.5,0.1-0.6,0c-0.3-0.3-0.6-0.1-0.8,0.1
				c-0.4,0.3-0.9,0.6-1.2,1c-0.3,0.4-0.2,1.2,0.3,1.5c0.1,0.1,0.3,0.1,0.3-0.1c0.6-0.9,1.5-1.5,2.3-2.1
				C108.8,563.3,109,563.2,109.1,562.9L109.1,562.9z"/>
			<path class="st6" d="M132.3,599.8c0.5-0.4,0.9-0.9,1.2-1.5c-0.7,0-1,0.1-1,0.8C132.4,599.3,132.2,599.5,132.3,599.8L132.3,599.8
				L132.3,599.8z"/>
			<path class="st6" d="M107.1,603.6c-0.1-0.2-0.2-0.4-0.3-0.6c-0.3-0.6-0.5-0.7-1.2-0.3C106.1,603.1,106.6,603.4,107.1,603.6
				L107.1,603.6L107.1,603.6z"/>
			<path class="st6" d="M115.3,582.2C115.3,582.2,115.4,582.2,115.3,582.2C115.4,582.1,115.3,582.2,115.3,582.2
				C115.3,582.2,115.3,582.2,115.3,582.2z"/>
			<path class="st6" d="M115.4,606.7c-0.7-0.2-1.4-0.3-2.1-0.6c-0.6-0.3-0.6-0.4-0.2-0.8c0.8-0.8,1.8-1.3,2.4-2.2
				c0.4,0.5,0.9,0.8,1.4,1c0.7,0.3,1.4,0.5,2,0.8c0.2,0.1,0.4,0.1,0.4,0.4c0,0.2-0.2,0.3-0.3,0.4c-0.3,0.2-0.7,0.4-1.1,0.7
				 M122.9,605.4c-0.5-0.1-0.9-0.2-1.4-0.3c-0.2,0-0.4,0-0.5-0.3c-0.1-0.2,0.2-0.3,0.3-0.5c0.9-0.8,2-1.5,2.7-2.5
				c0.1-0.1,0.1-0.2,0.3-0.1c0.8,0.5,1.7,0.7,2.5,1.1c0.8,0.4,0.8,0.6,0.1,1.1c-0.5,0.4-1,0.7-1.5,1"/>
		</g>
	</g>
	<g>
		<path class="st0" d="M109.4,544.2c-2-4.2-4.6-8.5-8.6-11c0.6,2.3,1.6,4.5,2.5,6.8c0.6,1.4,1.2,2.9,2.2,4.1l0.1,0.1
			c0.1,0.1,0.3,0.3,0.5,0.4c0.1,0.2,0.3,0.5,0.3,0.7c1.9,2.3,3.7,4.8,5.5,7.1C111.7,549.4,110.3,546.9,109.4,544.2L109.4,544.2z"/>
		<path class="st0" d="M121.2,535.2c-1.3,1.7-1.5,3.9-2.4,5.8c-1.1,2-1.4,4.3-1.9,6.5c-0.5,2.9-1.3,5.8-1,8.8
			c0.6-0.7,1.2-1.5,1.8-2.1c0.5-4,1.8-7.9,4.3-11.2c0.8-1.1,1.9-1.9,2.7-3c0.3-0.7,0.5-1.4,0.7-2.1c-2.1,1.3-3.7,3.2-5.1,5.2
			C120.6,540.5,121,537.9,121.2,535.2L121.2,535.2z"/>
		<path class="st5" d="M108.8,531c-0.1,0.4-0.2,0.8-0.2,1.2c-0.1,4,0.3,8,0.8,11.9c0.9,2.7,2.4,5.3,2.4,8.2l0.1,0.1
			c0.3-2.3,0.9-4.7,1.6-6.9c-0.2-2.5-0.9-5-1.5-7.5C111.2,535.6,110.3,533.1,108.8,531L108.8,531z"/>
		<path class="st5" d="M101.4,546.1c-2.2-1.6-4.8-2.8-7.5-3.2c0.8,1.2,1.8,2,2.7,3.1c1.4,1.5,2.7,3.1,4.1,4.7
			c0.6,0.7,1.3,1.3,1.8,2.1c1.7,0.6,3.4,1.3,5,2.2C105.4,552,103.6,548.9,101.4,546.1z"/>
		<path class="st5" d="M125.9,539.4c-0.4,0.2-0.8,0.4-1.3,0.6c-0.8,1.1-1.9,1.9-2.7,3c-2.4,3.2-3.7,7.2-4.3,11.2
			c1.3-1.5,2.8-2.9,4.3-4.2c0.2-1.4,0.9-2.6,1.3-3.9C124,543.8,125.3,541.8,125.9,539.4L125.9,539.4z"/>
		<path class="st7" d="M103.2,557.7c0.8,0.6,2,1.3,2.9,1.8c-3.3-0.2-6.6-0.1-9.8,0.5c1.3,0.8,2.8,1.3,4.2,1.8c2,0.7,4.1,1.5,6.2,1.6
			c2.3,0.2,4.7-0.3,7-0.6c2.8-0.5,5.7-0.8,8.3-2.2c0.6-0.3,1.5-1.2,2.2-1.3 M124.3,559.4c2-1.3,3.9-2.9,5.4-4.8
			c-2.9,0.3-5.7,1.1-8.3,2.4c2.6-3.7,5.1-7.3,7.3-11.2c-2.4,1-4.6,2.6-6.7,4.2c-1.5,1.3-2.9,2.7-4.3,4.2c-0.7,0.7-1.2,1.4-1.8,2.1
			c-0.3-3,0.6-5.9,1-8.8c0.5-2.2,0.8-4.5,1.9-6.5c0.9-1.9,1.1-4.1,2.4-5.8c0.2-0.7,0.3-1.5,0.3-2.2c-4.3,2.9-6.7,7.7-8.2,12.5
			c-0.7,2.3-1.3,4.6-1.6,6.9l-0.1-0.1c-1.8-2.3-3.6-4.8-5.5-7.1c-0.1-0.2-0.3-0.5-0.3-0.7c-0.1-0.1-0.3-0.3-0.5-0.4l-0.1-0.1
			c-3.4-3.2-7-6.5-11.4-8.2c2.5,3.4,5.1,6.7,7.5,10.2c2.1,2.9,3.9,5.9,6,8.8c-1.6-0.8-3.3-1.6-5-2.2c-2.8-1-5.6-1.7-8.6-1.9
			c1.1,1,2.3,1.8,3.5,2.7c1.9,1.4,3.8,2.9,5.8,4.1"/>
	</g>
</g>
</svg>
