<?xml version="1.0" encoding="UTF-8"?>
<svg xmlns="http://www.w3.org/2000/svg" viewBox="0 0 813.12 314.49">
  <defs>
    <style>
      .cls-1 {
        stroke-linecap: round;
        stroke-width: .5px;
      }

      .cls-1, .cls-2, .cls-3, .cls-4, .cls-5, .cls-6, .cls-7, .cls-8 {
        stroke-miterlimit: 10;
      }

      .cls-1, .cls-2, .cls-4, .cls-5, .cls-6, .cls-7 {
        stroke: #000;
      }

      .cls-1, .cls-4, .cls-6, .cls-7, .cls-8 {
        fill: none;
      }

      .cls-2 {
        fill: #f2f2f2;
      }

      .cls-2, .cls-5 {
        stroke-width: .75px;
      }

      .cls-9 {
        font-family: Merriweather-Regular, Merriweather;
        font-size: 18px;
      }

      .cls-10 {
        font-family: MontserratItalic-Light, Montserrat;
        font-size: 10px;
        font-variation-settings: 'wght' 300;
      }

      .cls-10, .cls-11 {
        font-weight: 300;
      }

      .cls-3 {
        stroke: #fff;
      }

      .cls-3, .cls-4, .cls-6, .cls-7 {
        stroke-width: .25px;
      }

      .cls-4 {
        stroke-dasharray: .99 .99;
      }

      .cls-12 {
        letter-spacing: 0em;
      }

      .cls-13, .cls-5 {
        fill: #fff;
      }

      .cls-14 {
        letter-spacing: 0em;
      }

      .cls-11 {
        font-family: Merriweather-LightItalic, Merriweather;
      }

      .cls-11, .cls-15 {
        font-style: italic;
      }

      .cls-11, .cls-15, .cls-16 {
        font-size: 14px;
      }

      .cls-15 {
        font-family: Merriweather-Italic, Merriweather;
      }

      .cls-17 {
        opacity: .25;
      }

      .cls-7 {
        stroke-dasharray: 1 1;
      }

      .cls-18 {
        letter-spacing: -.02em;
      }

      .cls-19 {
        letter-spacing: -.02em;
      }

      .cls-20 {
        letter-spacing: -.02em;
      }

      .cls-21 {
        letter-spacing: -.02em;
      }

      .cls-22 {
        letter-spacing: -.01em;
      }

      .cls-23 {
        letter-spacing: -.01em;
      }

      .cls-24 {
        letter-spacing: -.05em;
      }

      .cls-16 {
        font-family: MontserratRoman-Regular, Montserrat;
        font-variation-settings: 'wght' 400;
      }

      .cls-25 {
        letter-spacing: 0em;
      }

      .cls-26 {
        letter-spacing: 0em;
      }

      .cls-27 {
        letter-spacing: 0em;
      }

      .cls-28 {
        fill: #999;
      }

      .cls-8 {
        stroke: #999;
        stroke-linecap: square;
        stroke-width: 6px;
      }
    </style>
  </defs>
  <g id="lines">
    <g class="cls-17">
      <rect class="cls-13" x="54.12" y="47.9" width="756" height="81"/>
      <rect class="cls-13" x=".12" y="182.9" width="810" height="81"/>
    </g>
    <g>
      <g>
        <polyline class="cls-6" points="810.12 128.4 810.12 128.9 809.62 128.9"/>
        <line class="cls-7" x1="808.62" y1="128.9" x2="55.12" y2="128.9"/>
        <polyline class="cls-6" points="54.62 128.9 54.12 128.9 54.12 128.4"/>
        <line class="cls-4" x1="54.12" y1="127.41" x2="54.12" y2="48.89"/>
        <polyline class="cls-6" points="54.12 48.4 54.12 47.9 54.62 47.9"/>
        <line class="cls-7" x1="55.62" y1="47.9" x2="809.12" y2="47.9"/>
        <polyline class="cls-6" points="809.62 47.9 810.12 47.9 810.12 48.4"/>
        <line class="cls-4" x1="810.12" y1="49.39" x2="810.12" y2="127.91"/>
      </g>
      <g>
        <polyline class="cls-6" points="810.12 263.4 810.12 263.9 809.62 263.9"/>
        <line class="cls-7" x1="808.62" y1="263.9" x2="1.12" y2="263.9"/>
        <polyline class="cls-6" points=".62 263.9 .12 263.9 .12 263.4"/>
        <line class="cls-4" x1=".12" y1="262.41" x2=".12" y2="183.89"/>
        <polyline class="cls-6" points=".12 183.4 .12 182.9 .62 182.9"/>
        <line class="cls-7" x1="1.62" y1="182.9" x2="809.12" y2="182.9"/>
        <polyline class="cls-6" points="809.62 182.9 810.12 182.9 810.12 183.4"/>
        <line class="cls-4" x1="810.12" y1="184.39" x2="810.12" y2="262.91"/>
      </g>
    </g>
    <text transform="translate(136.17 71.9)"><tspan class="cls-15"><tspan x="0" y="0">10:30</tspan></tspan><tspan class="cls-9"><tspan x="-69.69" y="21.6">CEREMONY</tspan></tspan><tspan class="cls-11"><tspan x="-60.19" y="38.4">Optional Event</tspan></tspan></text>
    <text id="RECEPTION_Main_Event" transform="translate(83.26 206.9)"><tspan class="cls-15"><tspan x="0" y="0">15:30</tspan></tspan><tspan class="cls-9"><tspan x="-72.77" y="21.6">RECEPTION</tspan></tspan><tspan class="cls-11"><tspan x="-39.75" y="38.4">Main Event</tspan></tspan></text>
    <g>
      <polygon class="cls-28" points="207.74 112.36 203.64 107.96 225.32 87.82 203.64 67.68 207.74 63.28 234.12 87.82 207.74 112.36"/>
      <line class="cls-8" x1="234.12" y1="88.4" x2="738.12" y2="88.4"/>
      <polygon class="cls-28" points="763.84 118.32 764.06 112.32 793.62 113.4 792.54 83.83 798.54 83.62 799.85 119.63 763.84 118.32"/>
      <path class="cls-8" d="M738.12,223.53c39.8,0,72-30.22,72-67.57s-32.2-67.57-72-67.57"/>
      <line class="cls-8" x1="162.12" y1="223.53" x2="738.12" y2="223.53"/>
      <polygon class="cls-28" points="179.51 199.15 183.61 203.54 161.93 223.68 183.61 243.83 179.51 248.22 153.12 223.68 179.51 199.15"/>
    </g>
  </g>
  <g id="text">
    <g>
      <text transform="translate(704.13 11.9)"><tspan class="cls-16"><tspan x="0" y="0">TOUR</tspan></tspan><tspan class="cls-10"><tspan x="-23.55" y="12">Buddha Museum</tspan></tspan></text>
      <g>
        <line class="cls-1" x1="724.63" y1="65.9" x2="724.63" y2="30.79"/>
        <path d="M725.57,30.84c0-.52-.42-.94-.94-.94s-.94.42-.94.94.42.94.94.94.94-.42.94-.94Z"/>
      </g>
    </g>
    <g>
      <text transform="translate(461.36 11.9)"><tspan class="cls-16"><tspan x="0" y="0">TRANSFER</tspan></tspan><tspan class="cls-10"><tspan x="-5.78" y="12">Buddha Museum</tspan></tspan></text>
      <g>
        <line class="cls-1" x1="499.63" y1="65.9" x2="499.63" y2="30.79"/>
        <path d="M500.57,30.84c0-.52-.42-.94-.94-.94s-.94.42-.94.94.42.94.94.94.94-.42.94-.94Z"/>
      </g>
    </g>
    <g>
      <text transform="translate(243.34 11.9)"><tspan class="cls-16"><tspan x="0" y="0">ARRIVAL</tspan></tspan><tspan class="cls-10"><tspan x="-19.32" y="12">Bodhisa</tspan><tspan class="cls-20" x="22.02" y="12">t</tspan><tspan class="cls-26" x="25.82" y="12">t</tspan><tspan class="cls-19" x="29.7" y="12">v</tspan><tspan x="34.83" y="12">a Ga</tspan><tspan class="cls-22" x="58.63" y="12">r</tspan><tspan x="62.43" y="12">den</tspan></tspan></text>
      <g>
        <line class="cls-1" x1="274.62" y1="65.9" x2="274.62" y2="30.79"/>
        <path d="M275.56,30.84c0-.52-.42-.94-.94-.94s-.94.42-.94.94.42.94.94.94.94-.42.94-.94Z"/>
      </g>
    </g>
    <g>
      <text transform="translate(586.04 11.9)"><tspan class="cls-16"><tspan x="0" y="0">LUNCH</tspan></tspan><tspan class="cls-10"><tspan class="cls-24" x="-26.74" y="12">V</tspan><tspan x="-20.42" y="12">ege</tspan><tspan class="cls-21" x="-1.64" y="12">t</tspan><tspan x="2.15" y="12">a</tspan><tspan class="cls-25" x="8.9" y="12">r</tspan><tspan class="cls-12" x="12.75" y="12">ian Dim Sum</tspan></tspan></text>
      <g>
        <line class="cls-1" x1="612.13" y1="30.79" x2="612.13" y2="65.9"/>
        <path d="M611.19,30.84c0-.52.42-.94.94-.94s.94.42.94.94-.42.94-.94.94-.94-.42-.94-.94Z"/>
      </g>
    </g>
    <g>
      <text transform="translate(344.97 11.9)"><tspan class="cls-16"><tspan x="0" y="0">CEREMONY</tspan></tspan><tspan class="cls-10"><tspan x="-12.09" y="12">Blessing &amp; Medi</tspan><tspan class="cls-21" x="66.33" y="12">t</tspan><tspan x="70.12" y="12">ation</tspan></tspan></text>
      <g>
        <line class="cls-1" x1="387.12" y1="30.79" x2="387.12" y2="65.9"/>
        <path d="M386.18,30.84c0-.52.42-.94.94-.94s.94.42.94.94-.42.94-.94.94-.94-.42-.94-.94Z"/>
      </g>
    </g>
    <g>
      <g>
        <g>
          <line class="cls-1" x1="436.63" y1="281.01" x2="436.63" y2="245.9"/>
          <circle cx="436.63" cy="280.96" r=".94"/>
        </g>
        <text transform="translate(407.6 299.9)"><tspan class="cls-16"><tspan x="0" y="0">DINNER</tspan></tspan><tspan class="cls-10"><tspan class="cls-24" x="-15.39" y="12">T</tspan><tspan x="-10.31" y="12">ai</tspan><tspan class="cls-19" x="-.95" y="12">w</tspan><tspan x="7.51" y="12">anese </tspan><tspan class="cls-21" x="40.3" y="12">F</tspan><tspan x="46.42" y="12">usion</tspan></tspan></text>
      </g>
      <g>
        <text transform="translate(515.65 299.9)"><tspan class="cls-16"><tspan x="0" y="0">LESSON</tspan></tspan><tspan class="cls-10"><tspan x="-23.67" y="12">Int</tspan><tspan class="cls-22" x="-10.01" y="12">r</tspan><tspan x="-6.21" y="12">o </tspan><tspan class="cls-21" x="2.56" y="12">t</tspan><tspan x="6.35" y="12">o </tspan><tspan class="cls-26" x="15.12" y="12">S</tspan><tspan x="21.11" y="12">wing Dan</tspan><tspan class="cls-25" x="70.19" y="12">c</tspan><tspan class="cls-14" x="75.65" y="12">e</tspan></tspan></text>
        <g>
          <line class="cls-1" x1="544.62" y1="245.9" x2="544.62" y2="281.01"/>
          <circle cx="544.62" cy="280.96" r=".94"/>
        </g>
      </g>
      <g>
        <g>
          <line class="cls-1" x1="328.62" y1="245.9" x2="328.62" y2="281.01"/>
          <circle cx="328.62" cy="280.96" r=".94"/>
        </g>
        <text transform="translate(305.06 299.9)"><tspan class="cls-16"><tspan x="0" y="0">PARTY</tspan></tspan><tspan class="cls-10"><tspan x="-25.64" y="12">Dan</tspan><tspan class="cls-25" x="-3.9" y="12">c</tspan><tspan class="cls-14" x="1.56" y="12">ing &amp; D</tspan><tspan class="cls-25" x="37.67" y="12">r</tspan><tspan class="cls-12" x="41.52" y="12">inking</tspan></tspan></text>
      </g>
      <g>
        <text transform="translate(610.44 299.9)"><tspan class="cls-16"><tspan x="0" y="0">RECEPTION</tspan></tspan><tspan class="cls-10"><tspan class="cls-18" x="-3.53" y="12">C</tspan><tspan x="3.39" y="12">o</tspan><tspan class="cls-25" x="9.59" y="12">c</tspan><tspan x="15.05" y="12">k</tspan><tspan class="cls-21" x="20.81" y="12">t</tspan><tspan x="24.6" y="12">ails &amp; Pho</tspan><tspan class="cls-21" x="73.12" y="12">t</tspan><tspan class="cls-12" x="76.91" y="12">os</tspan></tspan></text>
        <g>
          <line class="cls-1" x1="652.62" y1="281.01" x2="652.62" y2="245.9"/>
          <circle cx="652.62" cy="280.96" r=".94"/>
        </g>
      </g>
      <g>
        <g>
          <line class="cls-1" x1="220.62" y1="281.01" x2="220.62" y2="245.9"/>
          <circle cx="220.62" cy="280.96" r=".94"/>
        </g>
        <text transform="translate(175.75 299.9)"><tspan class="cls-16"><tspan x="0" y="0">DEPARTURE</tspan></tspan><tspan class="cls-10"><tspan x="-1.77" y="12">G</tspan><tspan class="cls-23" x="5.96" y="12">r</tspan><tspan x="9.76" y="12">and Hi-</tspan><tspan class="cls-25" x="47.12" y="12">L</tspan><tspan x="52.88" y="12">ai Ho</tspan><tspan class="cls-21" x="79.15" y="12">t</tspan><tspan x="82.94" y="12">el</tspan></tspan></text>
      </g>
      <g>
        <text transform="translate(722.36 299.9)"><tspan class="cls-16"><tspan x="0" y="0">TRANSFER</tspan></tspan><tspan class="cls-10"><tspan x="-1.34" y="12">Hsin</tspan><tspan class="cls-27" x="20.92" y="12">Y</tspan><tspan x="27.1" y="12">i Golf Club</tspan></tspan></text>
        <g>
          <line class="cls-1" x1="760.62" y1="281.01" x2="760.62" y2="245.9"/>
          <circle cx="760.62" cy="280.96" r=".94"/>
        </g>
      </g>
    </g>
  </g>
  <g id="icons">
    <g>
      <circle class="cls-2" cx="387.12" cy="88.4" r="31.5"/>
      <circle class="cls-2" cx="274.62" cy="88.4" r="31.5"/>
    </g>
    <g>
      <g>
        <path d="M391.5,68.13l-.09.11c-.21.26-.17.64.09.85.11.09.24.14.38.14.18,0,.36-.08.47-.23l.09-.12c.2-.27.14-.65-.13-.85-.25-.19-.61-.15-.82.09h0Z"/>
        <path d="M397.57,76.32l1.81-3.93h1.69l-1.7,1.72c-.22.25-.2.63.05.86.23.21.58.2.81,0l2.71-2.75h0s.04-.04.05-.06l.02-.02s.04-.06.05-.1c0,0,0-.02.01-.03,0-.02.02-.05.02-.08,0-.01,0-.03,0-.04s0-.05,0-.08h0s0-.03,0-.04c0-.02,0-.05,0-.07,0-.02,0-.03-.01-.05,0-.02-.01-.04-.02-.06s-.01-.03-.02-.05c0-.02-.02-.04-.03-.05,0-.02-.02-.03-.03-.05,0,0,0-.01-.01-.02l-3.74-4.66c-.12-.14-.29-.23-.47-.23h-5.69c-.34,0-.61.27-.61.61s.27.61.61.61h1.19l-.96,1.87c-.15.3-.04.66.26.82.3.15.66.04.82-.26h0l1.25-2.43h.58l2.1,4.07-2.04,4.43c-.12,0-.23,0-.35,0s-.23,0-.35,0l-1.77-3.86h2.73c.33.01.62-.25.63-.58.01-.33-.25-.62-.58-.63-.02,0-.03,0-.05,0h-5.93l.58-.72c.21-.26.17-.64-.09-.85-.26-.21-.64-.17-.85.09h0l-1.37,1.71s0,.01-.01.02c-.01.02-.02.03-.03.05-.01.02-.02.03-.03.05,0,.02-.01.03-.02.05s-.01.04-.02.06,0,.03-.01.05,0,.05,0,.07,0,.02,0,.03h0s0,.06,0,.09c0,.01,0,.03,0,.04,0,.03.01.05.02.08,0,.01,0,.02.01.03.01.03.03.07.05.1,0,0,.01.02.02.02.02.02.03.04.05.06h0l4.21,4.27c-2.12.37-4.14,1.17-5.94,2.35-2.62-1.73-5.68-2.65-8.82-2.65-8.84,0-16.04,7.2-16.04,16.04s7.2,16.04,16.04,16.04c4.37,0,8.55-1.78,11.57-4.94,6.12,3.31,13.76,1.04,17.08-5.08,3.31-6.12,1.04-13.76-5.08-17.08-3.73-2.02-8.23-2.03-11.97-.02-.53-.56-1.11-1.08-1.72-1.56,2.32-1.41,4.98-2.16,7.69-2.15,8.16,0,14.8,6.64,14.8,14.8s-6.64,14.8-14.8,14.8c-2.13,0-4.24-.45-6.17-1.35-.31-.13-.66.01-.8.32-.12.3,0,.64.29.78,2.09.96,4.37,1.46,6.68,1.46,8.83,0,16.02-7.18,16.02-16.02,0-8.28-6.31-15.11-14.37-15.93ZM397.57,67.74h.9l2.76,3.44h-1.88l-1.78-3.44ZM395.92,80.87c6.29,0,11.39,5.1,11.39,11.38s-5.1,11.39-11.38,11.39c-1.8,0-3.57-.43-5.17-1.24,4.85-5.89,4.86-14.39.03-20.3,1.59-.81,3.36-1.23,5.14-1.23ZM393.18,92.23c0,8.18-6.65,14.83-14.83,14.83s-14.83-6.65-14.83-14.83,6.65-14.83,14.83-14.83,14.83,6.65,14.83,14.83ZM393.94,75.59l-3.15-3.2h1.69l1.47,3.2Z"/>
        <path d="M377.75,80.22c0,.33.27.61.61.61,2.98,0,5.85,1.17,7.98,3.27-3.42,4.01-3.97,9.73-1.4,14.32.16.29.53.4.83.23.29-.16.4-.53.23-.83-2.3-4.11-1.83-9.21,1.17-12.83,4,4.85,3.31,12.03-1.54,16.03-.33.27-.67.52-1.03.76-4.15-4.93-4.63-11.98-1.19-17.42.17-.29.08-.66-.21-.83-.28-.17-.64-.08-.82.18-3.68,5.83-3.21,13.35,1.15,18.68-5.61,2.87-12.48.64-15.34-4.97-2.59-5.06-1.05-11.26,3.61-14.52.27-.2.33-.58.13-.85-.19-.26-.56-.32-.83-.14-5.7,4.01-7.07,11.88-3.06,17.58,4.01,5.7,11.88,7.07,17.58,3.06,5.7-4.01,7.07-11.88,3.06-17.58-2.36-3.36-6.21-5.36-10.32-5.36-.33,0-.61.27-.61.61h0Z"/>
        <path d="M375.09,81.28c.06,0,.11,0,.16-.02.11-.03.21-.06.32-.09.32-.09.51-.43.41-.75-.09-.3-.4-.49-.71-.42-.12.03-.24.06-.36.1-.32.09-.51.43-.42.75.07.26.31.44.58.44h0Z"/>
      </g>
      <g>
        <g>
          <path d="M258.52,97.27c0-2.47,2.01-4.47,4.47-4.47s4.47,2.01,4.47,4.47-2.01,4.47-4.47,4.47-4.47-2.01-4.47-4.47ZM259.76,97.27c0,1.78,1.45,3.23,3.23,3.23s3.23-1.45,3.23-3.23-1.45-3.23-3.23-3.23-3.23,1.45-3.23,3.23Z"/>
          <path d="M260.73,97.25c0-1.1.79-2.07,1.87-2.28.34-.06.67.15.73.49.06.34-.15.67-.49.73-.51.1-.87.55-.87,1.06,0,.6.49,1.08,1.08,1.08.46,0,.87-.29,1.02-.72.12-.32.48-.49.8-.37s.49.48.37.8c-.34.94-1.22,1.55-2.2,1.55-1.29,0-2.34-1.04-2.32-2.34Z"/>
          <path d="M263.9,96.6s-.02-.03-.03-.04c-.22-.27-.19-.66.07-.88.27-.22.66-.19.88.07.02.03.05.06.07.1.21.28.16.66-.12.87-.12.09-.25.13-.38.13-.19,0-.37-.08-.5-.24Z"/>
        </g>
        <g>
          <path d="M278.73,97.27c0-2.47,2.01-4.47,4.47-4.47s4.47,2.01,4.47,4.47-2.01,4.47-4.47,4.47-4.47-2.01-4.47-4.47ZM279.97,97.27c0,1.78,1.45,3.23,3.23,3.23s3.23-1.45,3.23-3.23-1.44-3.23-3.23-3.23-3.23,1.45-3.23,3.23Z"/>
          <path d="M280.94,97.25c0-1.1.79-2.07,1.87-2.28.34-.06.67.15.73.49.06.34-.15.67-.49.73-.51.1-.87.55-.87,1.06,0,.6.49,1.08,1.08,1.08.46,0,.87-.29,1.02-.72.12-.32.48-.49.8-.37s.49.48.37.8c-.34.94-1.22,1.55-2.2,1.55-1.29,0-2.34-1.04-2.32-2.34Z"/>
          <path d="M284.1,96.6s-.02-.03-.03-.04c-.22-.27-.19-.66.07-.88.27-.22.66-.19.88.07.02.03.05.06.07.1.21.28.16.66-.12.87-.11.09-.24.13-.37.13-.19,0-.38-.08-.51-.24Z"/>
        </g>
        <g>
          <path d="M266.34,96.78c0,.35.29.63.63.63h10.04c.35,0,.63-.29.63-.63,0-.35-.29-.63-.63-.63h-.35v-7.05c0-1.21-.99-2.2-2.2-2.2h-2.72c-1.21,0-2.2.99-2.2,2.2v5.41c0,.35.29.63.63.63s.63-.29.63-.63v-5.41c0-.52.43-.95.95-.95h2.72c.52,0,.95.43.95.95v7.05h-8.44c-.34,0-.63.28-.63.63Z"/>
          <path d="M249.14,77.91v14.06c0,3.01,2.44,5.45,5.45,5.45h2.2c.35,0,.63-.29.63-.63,0-.35-.29-.63-.63-.63h-2.2c-2.33,0-4.21-1.89-4.21-4.21v-3.8h.47c.71,0,1.3.58,1.3,1.3v1.62c0,.34-.14.67-.38.91s-.24.64,0,.88c.12.12.28.18.44.18s.32-.06.44-.18c.48-.48.74-1.12.74-1.8v-1.62c0-1.4-1.14-2.54-2.54-2.54h-.47v-8.99c0-.89.72-1.61,1.62-1.61h3.08v6.49c0,.35.29.63.63.63s.63-.29.63-.63v-6.49h7.03v7.96h-7.71c-1.21,0-2.4-.4-3.36-1.15-.27-.21-.66-.17-.87.11-.21.27-.17.66.11.87,1.18.91,2.63,1.41,4.12,1.41h22.42c.35,0,.63-.29.63-.63,0-.35-.29-.63-.63-.63h-5.17v-7.98h7.03v8.57c0,.35.29.63.63.63h6.17c.51,0,1.01.07,1.48.22v8.79c0,.35.28.63.63.63s.63-.29.63-.63v-8.2c.57.37,1.07.86,1.46,1.46l.69,1.05c1.36,2.07,3.64,3.32,6.13,3.32h.84c-.78,2.34-2.98,4.03-5.57,4.03h-5.95c-.35,0-.63.29-.63.63,0,.35.29.63.63.63h5.96c3.45,0,6.34-2.49,6.98-5.76h0c.09-.45.13-.89.13-1.35v-8.04c0-.35-.28-.63-.63-.63s-.63.29-.63.63v8.04c0,.2-.01.4-.03.61h-1.09c-2.06,0-3.96-1.03-5.09-2.75l-.69-1.05c-1.16-1.76-3.11-2.83-5.23-2.83h-5.56v-7.97h7.03v6.49c0,.35.28.63.63.63s.63-.29.63-.63v-6.49h4.37c1.02,0,2,.3,2.84.87.28.2.67.13.86-.16.2-.28.13-.67-.16-.86-1.05-.71-2.27-1.08-3.54-1.08h-41.84c-1.57,0-2.86,1.29-2.85,2.86ZM264.63,76.3h7.03v7.96h-7.03v-7.96Z"/>
          <path d="M299.66,79.01c-.05-.14-.12-.27-.18-.4-.15-.31-.52-.44-.83-.29-.31.15-.44.52-.29.83.04.11.1.21.14.32.1.24.33.39.57.39.09,0,.16-.01.23-.04.32-.13.48-.5.35-.81Z"/>
          <path d="M284.58,89.9c0,.35.29.63.63.63h.9c.35,0,.63-.29.63-.63,0-.35-.29-.63-.63-.63h-.9c-.34,0-.62.28-.63.63Z"/>
          <path d="M257.14,88.38h2.75c.35,0,.63-.29.63-.63s-.29-.63-.63-.63h-2.75c-.35,0-.63.29-.63.63s.28.62.63.63Z"/>
          <path d="M257.14,90.41h1.38c.35,0,.63-.29.63-.63s-.29-.63-.63-.63h-1.38c-.35,0-.63.29-.63.63,0,.35.28.63.63.63Z"/>
        </g>
      </g>
    </g>
    <g>
      <circle class="cls-2" cx="724.62" cy="88.4" r="31.5"/>
      <circle class="cls-2" cx="499.62" cy="88.32" r="31.5"/>
      <circle class="cls-2" cx="612.12" cy="88.4" r="31.5"/>
    </g>
    <g>
      <path d="M741.72,93.09c-.1-.56-.52-1-1.08-1.12-1.42-.29-3.97-1.05-5.14-2.82-.04-.06-.08-.1-.13-.15v-3.78c.69-.06,1.34-.21,1.9-.5.54-.27.81-.84.71-1.43-.11-.6-.58-1.05-1.18-1.12-1.58-.2-2.73-.64-3.23-1.26-.01-.02-.04-.02-.05-.04v-3.73c.71-.07,1.39-.22,1.97-.53.53-.28.8-.84.7-1.43-.11-.6-.56-1.04-1.16-1.12-2.02-.28-5.43-1.18-7.9-3.86.77-.27,1.34-.98,1.34-1.85,0-1.06-.84-1.9-1.88-1.96-.06-1.04-.9-1.88-1.96-1.88s-1.9.84-1.96,1.88c-1.04.05-1.88.9-1.88,1.96,0,.86.56,1.58,1.34,1.85-2.46,2.69-5.87,3.58-7.89,3.86-.6.08-1.05.52-1.16,1.12-.11.59.17,1.15.7,1.44.58.31,1.25.46,1.97.53v3.73s-.04.02-.05.04c-.5.62-1.64,1.06-3.23,1.26-.6.07-1.07.53-1.18,1.12-.11.6.17,1.16.71,1.43.56.29,1.21.43,1.9.5v3.78c-.04.05-.09.1-.13.15-1.17,1.77-3.72,2.53-5.14,2.82-.56.12-.99.55-1.08,1.12-.09.56.16,1.1.64,1.39.64.38,1.32.61,2.02.7v10.52c0,.32.26.59.59.59h3.49s.04.01.06.01.04,0,.06-.01h2.91s.04.01.06.01.04,0,.06-.01h14.44s.04.01.06.01.04,0,.06-.01h2.87s.04.01.06.01.04,0,.06-.01h3.49c.32,0,.59-.26.59-.59v-10.52c.7-.08,1.38-.31,2.02-.7.48-.29.74-.84.64-1.39h0ZM727.06,88.33v-1.03c0-.1.08-.18.18-.18h2.17c.1,0,.18.08.18.18v1.03c0,.1-.08.18-.18.18h-2.17c-.1,0-.18-.08-.18-.18ZM729.41,85.96h-2.17c-.74,0-1.35.6-1.35,1.35v1.03c0,.06.03.12.04.18h-2.59c0-.06.04-.11.04-.18v-1.03c0-.74-.6-1.35-1.35-1.35h-2.17c-.74,0-1.35.6-1.35,1.35v1.03c0,.06.03.12.04.18h-3.48v-3.22h19.13v3.22h-3.48c0-.06.04-.11.04-.18v-1.03c0-.74-.6-1.35-1.35-1.35h0ZM719.68,88.33v-1.03c0-.1.08-.18.18-.18h2.17c.1,0,.18.08.18.18v1.03c0,.1-.08.18-.18.18h-2.17c-.1,0-.18-.08-.18-.18ZM727.06,80.24v-1.03c0-.1.08-.18.18-.18h2.17c.1,0,.18.08.18.18v1.03c0,.1-.08.18-.18.18h-2.17c-.1,0-.18-.08-.18-.18ZM729.41,77.87h-2.17c-.74,0-1.35.6-1.35,1.35v1.03c0,.06.03.12.04.18h-2.59c0-.06.04-.11.04-.18v-1.03c0-.74-.6-1.35-1.35-1.35h-2.17c-.74,0-1.35.6-1.35,1.35v1.03c0,.06.03.12.04.18h-1.63v-3.22h15.44v3.22h-1.63c0-.06.04-.11.04-.18v-1.03c0-.74-.6-1.35-1.35-1.35h0ZM719.68,80.24v-1.03c0-.1.08-.18.18-.18h2.17c.1,0,.18.08.18.18v1.03c0,.1-.08.18-.18.18h-2.17c-.1,0-.18-.08-.18-.18ZM724.02,69.78c.23-.17.43-.36.61-.54.18.18.38.37.61.54.12.17.2.32.2.41,0,.45-.36.81-.81.81s-.81-.36-.81-.81c0-.09.08-.24.2-.41h0ZM727.3,68.33c0,.45-.36.81-.8.81-.06,0-.15-.04-.25-.1-.15-.21-.31-.4-.44-.63-.04-.07-.12-.1-.17-.16.15-.16.31-.33.45-.52.17-.12.32-.2.41-.2.44,0,.8.36.8.81h0ZM724.63,65.67c.45,0,.81.36.81.81,0,.09-.08.24-.2.41-.23.17-.43.36-.61.54-.18-.18-.38-.37-.61-.54-.12-.17-.2-.32-.2-.41,0-.45.36-.81.81-.81h0ZM722.77,69.14c-.45,0-.81-.36-.81-.81s.36-.81.81-.81c.09,0,.24.08.42.2.14.19.3.37.45.52-.05.06-.13.09-.18.16-.13.23-.29.42-.44.63-.1.06-.19.1-.25.1h0ZM714.23,75.37c0-.05.04-.14.17-.16,2.17-.3,5.8-1.26,8.49-4.12.33.64.98,1.09,1.74,1.09s1.41-.45,1.74-1.09c2.7,2.86,6.33,3.82,8.49,4.12.12.02.16.11.17.16.02.09-.02.15-.1.2-.57.3-1.24.46-2,.46h-16.61c-.76,0-1.43-.15-2-.46-.08-.04-.11-.11-.09-.2h0ZM712.44,83.49c0-.05.04-.15.17-.16,1.94-.24,3.29-.81,4.12-1.74h15.81l.12.05c.71.88,2.05,1.45,4,1.69.12.02.16.11.17.16.02.09-.01.15-.09.19-.56.29-1.22.43-1.95.43h-20.3c-.74,0-1.39-.14-1.95-.43-.07-.04-.1-.1-.09-.19h0ZM711.37,95.21h2.38v9.9h-2.38v-9.9ZM716.78,95.21v9.9h-1.86v-9.9h1.86ZM731.34,95.21v9.9h-2.47c0-.06.04-.11.04-.18v-6.99c0-.74-.6-1.35-1.35-1.35h-5.86c-.74,0-1.35.6-1.35,1.35v6.99c0,.06.03.12.04.18h-2.43v-9.9h13.39ZM734.33,95.21v9.9h-1.82v-9.9h1.82ZM721.7,105.11c-.1,0-.18-.08-.18-.18v-6.99c0-.1.08-.18.18-.18h5.86c.1,0,.18.08.18.18v6.99c0,.1-.08.18-.18.18h-5.86ZM737.89,105.11h-2.38v-9.9h2.38v9.9ZM740.48,93.47c-.64.38-1.31.57-2.01.57h-27.69c-.69,0-1.37-.19-2.01-.57-.07-.04-.1-.11-.09-.19,0-.05.04-.14.16-.17,1.95-.4,4.55-1.3,5.89-3.32.02-.04.09-.12.18-.12h19.42c.09,0,.16.09.18.12,1.33,2.02,3.94,2.92,5.89,3.32.12.03.15.12.16.17.01.08-.02.15-.09.19h0Z"/>
      <g>
        <g>
          <path d="M483.52,97.19c0-2.47,2.01-4.47,4.47-4.47s4.47,2.01,4.47,4.47-2.01,4.47-4.47,4.47-4.47-2.01-4.47-4.47ZM484.76,97.19c0,1.78,1.45,3.23,3.23,3.23s3.23-1.45,3.23-3.23-1.45-3.23-3.23-3.23-3.23,1.45-3.23,3.23Z"/>
          <path d="M485.73,97.17c0-1.1.79-2.07,1.87-2.28.34-.06.67.15.73.49.06.34-.15.67-.49.73-.51.1-.87.55-.87,1.06,0,.6.49,1.08,1.08,1.08.46,0,.87-.29,1.02-.72.12-.32.48-.49.8-.37s.49.48.37.8c-.34.94-1.22,1.55-2.2,1.55-1.29,0-2.34-1.04-2.32-2.34Z"/>
          <path d="M488.9,96.52s-.02-.03-.03-.04c-.22-.27-.19-.66.07-.88.27-.22.66-.19.88.07.02.03.05.06.07.1.21.28.16.66-.12.87-.12.09-.25.13-.38.13-.19,0-.37-.08-.5-.24Z"/>
        </g>
        <g>
          <path d="M503.73,97.19c0-2.47,2.01-4.47,4.47-4.47s4.47,2.01,4.47,4.47-2.01,4.47-4.47,4.47-4.47-2.01-4.47-4.47ZM504.97,97.19c0,1.78,1.45,3.23,3.23,3.23s3.23-1.45,3.23-3.23-1.44-3.23-3.23-3.23-3.23,1.45-3.23,3.23Z"/>
          <path d="M505.94,97.17c0-1.1.79-2.07,1.87-2.28.34-.06.67.15.73.49.06.34-.15.67-.49.73-.51.1-.87.55-.87,1.06,0,.6.49,1.08,1.08,1.08.46,0,.87-.29,1.02-.72.12-.32.48-.49.8-.37s.49.48.37.8c-.34.94-1.22,1.55-2.2,1.55-1.29,0-2.34-1.04-2.32-2.34Z"/>
          <path d="M509.1,96.52s-.02-.03-.03-.04c-.22-.27-.19-.66.07-.88.27-.22.66-.19.88.07.02.03.05.06.07.1.21.28.16.66-.12.87-.11.09-.24.13-.37.13-.19,0-.38-.08-.51-.24Z"/>
        </g>
        <g>
          <path d="M491.34,96.71c0,.35.29.63.63.63h10.04c.35,0,.63-.29.63-.63,0-.35-.29-.63-.63-.63h-.35v-7.05c0-1.21-.99-2.2-2.2-2.2h-2.72c-1.21,0-2.2.99-2.2,2.2v5.41c0,.35.29.63.63.63s.63-.29.63-.63v-5.41c0-.52.43-.95.95-.95h2.72c.52,0,.95.43.95.95v7.05h-8.44c-.34,0-.63.28-.63.63Z"/>
          <path d="M474.14,77.84v14.06c0,3.01,2.44,5.45,5.45,5.45h2.2c.35,0,.63-.29.63-.63,0-.35-.29-.63-.63-.63h-2.2c-2.33,0-4.21-1.89-4.21-4.21v-3.8h.47c.71,0,1.3.58,1.3,1.3v1.62c0,.34-.14.67-.38.91s-.24.64,0,.88c.12.12.28.18.44.18s.32-.06.44-.18c.48-.48.74-1.12.74-1.8v-1.62c0-1.4-1.14-2.54-2.54-2.54h-.47v-8.99c0-.89.72-1.61,1.62-1.61h3.08v6.49c0,.35.29.63.63.63s.63-.29.63-.63v-6.49h7.03v7.96h-7.71c-1.21,0-2.4-.4-3.36-1.15-.27-.21-.66-.17-.87.11-.21.27-.17.66.11.87,1.18.91,2.63,1.41,4.12,1.41h22.42c.35,0,.63-.29.63-.63s-.29-.63-.63-.63h-5.17v-7.98h7.03v8.57c0,.35.29.63.63.63h6.17c.51,0,1.01.07,1.48.22v8.79c0,.35.28.63.63.63s.63-.29.63-.63v-8.2c.57.37,1.07.86,1.46,1.46l.69,1.05c1.36,2.07,3.64,3.32,6.13,3.32h.84c-.78,2.34-2.98,4.03-5.57,4.03h-5.95c-.35,0-.63.29-.63.63,0,.35.29.63.63.63h5.96c3.45,0,6.34-2.49,6.98-5.76h0c.09-.45.13-.89.13-1.35v-8.04c0-.35-.28-.63-.63-.63s-.63.29-.63.63v8.04c0,.2-.01.4-.03.61h-1.09c-2.06,0-3.96-1.03-5.09-2.75l-.69-1.05c-1.16-1.76-3.11-2.83-5.23-2.83h-5.56v-7.97h7.03v6.49c0,.35.28.63.63.63s.63-.29.63-.63v-6.49h4.37c1.02,0,2,.3,2.84.87.28.2.67.13.86-.16.2-.28.13-.67-.16-.86-1.05-.71-2.27-1.08-3.54-1.08h-41.84c-1.57,0-2.86,1.29-2.85,2.86ZM489.63,76.22h7.03v7.96h-7.03v-7.96Z"/>
          <path d="M524.66,78.93c-.05-.14-.12-.27-.18-.4-.15-.31-.52-.44-.83-.29-.31.15-.44.52-.29.83.04.11.1.21.14.32.1.24.33.39.57.39.09,0,.16-.01.23-.04.32-.13.48-.5.35-.81Z"/>
          <path d="M509.58,89.82c0,.35.29.63.63.63h.9c.35,0,.63-.29.63-.63,0-.35-.29-.63-.63-.63h-.9c-.34,0-.62.28-.63.63Z"/>
          <path d="M482.14,88.3h2.75c.35,0,.63-.29.63-.63,0-.35-.29-.63-.63-.63h-2.75c-.35,0-.63.29-.63.63,0,.34.28.62.63.63Z"/>
          <path d="M482.14,90.33h1.38c.35,0,.63-.29.63-.63,0-.35-.29-.63-.63-.63h-1.38c-.35,0-.63.29-.63.63,0,.35.28.63.63.63Z"/>
        </g>
      </g>
      <path d="M602.52,81.11c0,.22-.18.4-.4.4s-.4-.18-.4-.4.18-.4.4-.4.4.18.4.4ZM627.99,88.4c0,8.57-6.97,15.53-15.53,15.53s-15.53-6.97-15.53-15.53,6.97-15.53,15.53-15.53,15.53,6.97,15.53,15.53ZM627.13,88.4c0-8.09-6.58-14.67-14.67-14.67s-14.67,6.58-14.67,14.67,6.58,14.67,14.67,14.67,14.67-6.58,14.67-14.67ZM630.95,88.4c0,10.2-8.3,18.49-18.49,18.49s-18.49-8.3-18.49-18.49,8.3-18.49,18.49-18.49,18.49,8.3,18.49,18.49ZM630.09,88.4c0-9.72-7.91-17.63-17.63-17.63s-17.63,7.91-17.63,17.63,7.91,17.63,17.63,17.63,17.63-7.91,17.63-17.63ZM610.99,76.15c.24-.03.41-.24.38-.48-.03-.24-.25-.41-.48-.38-3.03.36-5.87,1.78-7.99,4-.16.17-.16.44.01.61.08.08.19.12.3.12s.23-.04.31-.13c1.98-2.08,4.63-3.4,7.46-3.74h0ZM601.32,82.13c-.21-.11-.47-.03-.58.18-.61,1.17-1.04,2.42-1.27,3.71-.04.23.11.46.35.5.03,0,.05,0,.08,0,.2,0,.39-.15.42-.35.22-1.21.62-2.38,1.19-3.47.11-.21.03-.47-.18-.58h0ZM637.68,72.44v31.04c0,1.1-.89,1.99-1.99,1.99s-1.99-.89-1.99-1.99v-14.93c-.29-.61-1.63-3.82-.91-10.07.5-4.38,2.02-6.21,3.21-6.97.34-.22.75-.23,1.1-.04.35.19.58.56.58.97h0ZM636.82,72.44c0-.13-.09-.19-.13-.21-.02-.01-.06-.03-.11-.03-.04,0-.08,0-.12.04-.84.54-2.33,2.09-2.82,6.35-.75,6.53.85,9.64.87,9.67.03.06.05.13.05.2v15.03c0,.62.51,1.13,1.13,1.13s1.13-.51,1.13-1.13v-31.04ZM593.8,72.91v7.65c0,3.62-1.09,4.88-1.62,5.28v17.63c0,1.1-.89,1.99-1.99,1.99s-1.99-.89-1.99-1.99v-17.63c-.53-.39-1.63-1.65-1.63-5.28v-7.65c0-.8.65-1.45,1.45-1.45h.11c.4,0,.76.16,1.02.42.26-.26.63-.42,1.02-.42s.76.16,1.02.42c.26-.26.63-.42,1.02-.42h.11c.8,0,1.45.65,1.45,1.45h0ZM592.94,72.91c0-.33-.27-.59-.59-.59h-.11c-.33,0-.59.27-.59.59v7.76c0,.24-.19.43-.43.43s-.43-.19-.43-.43v-7.76c0-.33-.27-.59-.59-.59s-.59.27-.59.59v7.76c0,.24-.19.43-.43.43s-.43-.19-.43-.43v-7.76c0-.33-.27-.59-.59-.59h-.11c-.33,0-.59.27-.59.59v7.65c0,3.94,1.36,4.65,1.37,4.65.15.07.25.23.25.39v17.87c0,.62.51,1.13,1.13,1.13s1.13-.51,1.13-1.13v-17.81c-.03-.19.07-.37.25-.45.04-.02,1.37-.76,1.37-4.65v-7.65h0ZM619.97,82.6c.98.98,1.53,2.3,1.53,3.69s-.54,2.71-1.53,3.69l-7.21,7.21c-.08.08-.19.13-.3.13s-.22-.04-.3-.13l-7.21-7.21c-2.03-2.04-2.03-5.35,0-7.38.99-.99,2.29-1.53,3.69-1.53s2.71.54,3.69,1.53l.13.13.13-.13c.99-.99,2.29-1.53,3.69-1.53s2.71.54,3.69,1.53h0ZM620.63,86.29c0-1.16-.45-2.26-1.28-3.08-.82-.82-1.92-1.28-3.08-1.28s-2.26.45-3.08,1.28l-.43.43c-.17.17-.44.17-.61,0l-.43-.43c-.82-.82-1.92-1.28-3.08-1.28s-2.26.45-3.08,1.28c-1.7,1.7-1.7,4.46,0,6.16l6.9,6.9,6.9-6.9c.82-.82,1.28-1.92,1.28-3.08h0Z"/>
    </g>
    <g>
      <circle class="cls-5" cx="652.62" cy="223.55" r="31.5"/>
      <circle class="cls-5" cx="436.62" cy="223.55" r="31.5"/>
      <circle class="cls-5" cx="328.62" cy="223.55" r="31.5"/>
      <circle class="cls-5" cx="544.62" cy="223.4" r="31.5"/>
      <circle class="cls-5" cx="760.62" cy="223.55" r="31.5"/>
      <circle class="cls-5" cx="220.62" cy="223.55" r="31.5"/>
    </g>
    <g>
      <g>
        <path d="M639.49,217.2c.49,0,.98-.05,1.47-.13,1.59-.26,3.21-.37,4.82-.35.33.01.61-.25.62-.58,0,0,0,0,0-.01,0-.33-.26-.61-.59-.62,0,0,0,0,0,0-1.69-.03-3.37.1-5.04.36-.42.07-.85.11-1.28.12h-.05c-1.24.02-2.46-.25-3.57-.78-.3-.15-.66-.02-.81.28-.15.3-.02.66.28.81,1.28.61,2.68.92,4.1.9h.06Z"/>
        <path d="M646.5,198.04s-.05.05-.07.08c-.22.25-.19.64.07.85.25.22.64.19.85-.07l.05-.05c.22-.26.18-.64-.07-.85-.24-.21-.61-.19-.83.04h0Z"/>
        <path d="M659.38,201.94c.82-1.82.01-3.96-1.8-4.78-1.03-.46-2.21-.42-3.2.11-.65.36-1.24.83-1.73,1.38-.5-.55-1.08-1.02-1.73-1.38-.6-.33-1.28-.49-1.97-.44-.33.02-.59.31-.56.65.02.33.31.59.65.56.45-.03.9.07,1.3.3.72.4,1.33.96,1.81,1.62.11.17.3.28.51.28h0c.21,0,.4-.11.51-.28.47-.67,1.09-1.22,1.81-1.63,1.1-.6,2.14-.21,2.75.35s1.09,1.59.57,2.75c-.77,1.71-2.37,3.94-5.64,4.96-3.51-1.03-4.89-3.32-5.63-4.96-.09-.19-.15-.39-.19-.59-.04-.33-.35-.57-.68-.52s-.57.35-.52.68c0,.02,0,.04.01.06.06.3.15.59.27.87,1.33,2.96,3.49,4.82,6.58,5.68.05.01.11.02.16.02.06,0,.12,0,.17-.02,3.82-1.12,5.68-3.7,6.57-5.67Z"/>
        <path d="M649.51,211.11l-11.67-5.15c-.95-.42-2.06.01-2.49.96l-2.49,5.66c-1.66,3.81-.25,8.25,3.3,10.41.23.14.33.42.22.67l-5.21,11.73-2.42-1.07c-.3-.15-.66-.02-.81.28-.15.3-.02.66.28.81.01,0,.03.01.04.02l5.81,2.56c.3.15.66.02.81-.28.15-.3.02-.66-.28-.81-.01,0-.03-.01-.04-.02l-2.28-1.01,5.21-11.73c.35-.8.05-1.74-.7-2.2-3.03-1.84-4.24-5.63-2.82-8.88l2.5-5.65c.15-.34.55-.49.89-.34l11.67,5.15c.34.15.49.55.34.89l-2.49,5.65c-1.14,2.59-3.8,4.25-6.78,4.2-.23-.01-.46-.03-.69-.07-.33-.06-.65.15-.71.48-.06.33.15.65.48.71.01,0,.03,0,.05,0,.28.05.57.08.85.09,3.46.05,6.56-1.88,7.9-4.92l2.49-5.65c.42-.95,0-2.06-.96-2.49Z"/>
        <path d="M676.49,234.32l-2.42,1.07-5.21-11.73c-.11-.25-.01-.53.22-.67,3.55-2.15,4.97-6.63,3.3-10.41l-2.49-5.65c-.42-.95-1.53-1.39-2.49-.97l-11.67,5.15c-.95.42-1.38,1.53-.96,2.49l2.49,5.65c1.32,3,4.36,4.92,7.77,4.92h.13c.28-.01.57-.04.85-.09.33-.04.57-.34.54-.67-.04-.33-.34-.57-.67-.54-.02,0-.03,0-.05,0-.23.04-.46.06-.69.07h-.11c-2.93,0-5.53-1.64-6.66-4.2l-2.49-5.65c-.15-.34,0-.74.34-.89l11.67-5.15c.34-.15.74,0,.89.34,0,0,0,0,0,0l2.49,5.65c1.42,3.25.22,7.04-2.81,8.88-.75.45-1.05,1.39-.7,2.2l5.21,11.73-2.28,1.01c-.31.12-.46.48-.34.79s.48.46.79.34c.01,0,.03-.01.04-.02l5.81-2.56c.31-.12.46-.48.34-.79s-.48-.46-.79-.34c-.01,0-.03.01-.04.02h0Z"/>
        <path d="M670.19,215.48c-.15-.3-.51-.43-.81-.28-1.13.54-2.37.81-3.62.78-.43,0-.85-.05-1.27-.12-1.67-.27-3.35-.39-5.04-.36-.33.02-.59.3-.58.64.02.32.27.57.59.58h.01c1.61-.02,3.22.09,4.82.35.48.08.98.13,1.47.13h.06c1.42.02,2.82-.29,4.1-.9.3-.15.42-.51.28-.81Z"/>
      </g>
      <path d="M427.02,216.26c0,.22-.18.4-.4.4s-.4-.18-.4-.4.18-.4.4-.4.4.18.4.4ZM452.49,223.55c0,8.57-6.97,15.53-15.53,15.53s-15.53-6.97-15.53-15.53,6.97-15.53,15.53-15.53,15.53,6.97,15.53,15.53ZM451.63,223.55c0-8.09-6.58-14.67-14.67-14.67s-14.67,6.58-14.67,14.67,6.58,14.67,14.67,14.67,14.67-6.58,14.67-14.67ZM455.45,223.55c0,10.2-8.3,18.49-18.49,18.49s-18.49-8.3-18.49-18.49,8.3-18.49,18.49-18.49,18.49,8.3,18.49,18.49ZM454.59,223.55c0-9.72-7.91-17.63-17.63-17.63s-17.63,7.91-17.63,17.63,7.91,17.63,17.63,17.63,17.63-7.91,17.63-17.63ZM435.49,211.3c.24-.03.41-.24.38-.48-.03-.24-.25-.41-.48-.38-3.03.36-5.87,1.78-7.99,4-.16.17-.16.44.01.61.08.08.19.12.3.12s.23-.04.31-.13c1.98-2.08,4.63-3.4,7.46-3.74h0ZM425.82,217.28c-.21-.11-.47-.03-.58.18-.61,1.17-1.04,2.42-1.27,3.71-.04.23.11.46.35.5.03,0,.05,0,.08,0,.2,0,.39-.15.42-.35.22-1.21.62-2.38,1.19-3.47.11-.21.03-.47-.18-.58h0ZM462.18,207.59v31.04c0,1.1-.89,1.99-1.99,1.99s-1.99-.89-1.99-1.99v-14.93c-.29-.61-1.63-3.82-.91-10.07.5-4.38,2.02-6.21,3.21-6.97.34-.22.75-.23,1.1-.04.35.19.58.56.58.97h0ZM461.32,207.59c0-.13-.09-.19-.13-.21-.02-.01-.06-.03-.11-.03-.04,0-.08,0-.12.04-.84.54-2.33,2.09-2.82,6.35-.75,6.53.85,9.64.87,9.67.03.06.05.13.05.2v15.03c0,.62.51,1.13,1.13,1.13s1.13-.51,1.13-1.13v-31.04ZM418.3,208.07v7.65c0,3.62-1.09,4.88-1.62,5.28v17.63c0,1.1-.89,1.99-1.99,1.99s-1.99-.89-1.99-1.99v-17.63c-.53-.39-1.63-1.65-1.63-5.28v-7.65c0-.8.65-1.45,1.45-1.45h.11c.4,0,.76.16,1.02.42.26-.26.63-.42,1.02-.42s.76.16,1.02.42c.26-.26.63-.42,1.02-.42h.11c.8,0,1.45.65,1.45,1.45h0ZM417.44,208.07c0-.33-.27-.59-.59-.59h-.11c-.33,0-.59.27-.59.59v7.76c0,.24-.19.43-.43.43s-.43-.19-.43-.43v-7.76c0-.33-.27-.59-.59-.59s-.59.27-.59.59v7.76c0,.24-.19.43-.43.43s-.43-.19-.43-.43v-7.76c0-.33-.27-.59-.59-.59h-.11c-.33,0-.59.27-.59.59v7.65c0,3.94,1.36,4.65,1.37,4.65.15.07.25.23.25.39v17.87c0,.62.51,1.13,1.13,1.13s1.13-.51,1.13-1.13v-17.81c-.03-.19.07-.37.25-.45.04-.02,1.37-.76,1.37-4.65v-7.65h0ZM444.47,217.76c.98.98,1.53,2.3,1.53,3.69s-.54,2.71-1.53,3.69l-7.21,7.21c-.08.08-.19.13-.3.13s-.22-.04-.3-.13l-7.21-7.21c-2.03-2.04-2.03-5.35,0-7.38.99-.99,2.29-1.53,3.69-1.53s2.71.54,3.69,1.53l.13.13.13-.13c.99-.99,2.29-1.53,3.69-1.53s2.71.54,3.69,1.53h0ZM445.13,221.45c0-1.16-.45-2.26-1.28-3.08-.82-.82-1.92-1.28-3.08-1.28s-2.26.45-3.08,1.28l-.43.43c-.17.17-.44.17-.61,0l-.43-.43c-.82-.82-1.92-1.28-3.08-1.28s-2.26.45-3.08,1.28c-1.7,1.7-1.7,4.46,0,6.16l6.9,6.9,6.9-6.9c.82-.82,1.28-1.92,1.28-3.08h0Z"/>
      <g>
        <path d="M345.79,229.45l-.45-1.53c-.13-.51-.96-.51-1.08,0l-.45,1.53c-.38,1.34-1.47,2.42-2.8,2.8l-1.53.45c-.25.06-.45.32-.45.57s.19.45.45.57l1.59.45c1.34.38,2.42,1.47,2.8,2.8l.45,1.53c.06.25.32.45.57.45s.45-.19.57-.45l.45-1.53c.38-1.34,1.47-2.42,2.8-2.8l1.59-.45c.25-.06.45-.32.45-.57s-.19-.45-.45-.57l-1.59-.45c-1.46-.32-2.55-1.4-2.93-2.81h0ZM344.83,236.33c-.51-1.47-1.66-2.55-3.12-3.12,1.47-.51,2.55-1.66,3.12-3.12.51,1.47,1.66,2.55,3.12,3.12-1.46.57-2.61,1.72-3.12,3.12Z"/>
        <path d="M320.86,218.48l-.38-1.34c-.13-.51-.96-.51-1.08,0l-.38,1.34c-.32,1.15-1.21,2.04-2.36,2.36l-1.34.38c-.25.06-.45.32-.45.57s.19.45.45.57l1.34.38c1.15.32,2.04,1.21,2.36,2.36l.38,1.34c.06.25.32.45.57.45s.45-.19.57-.45l.38-1.34c.32-1.15,1.21-2.04,2.36-2.36l1.34-.38c.25-.06.45-.32.45-.57s-.19-.45-.45-.57l-1.34-.38c-1.21-.32-2.1-1.21-2.42-2.36h0ZM319.97,224.22c-.45-1.08-1.34-1.98-2.42-2.42,1.08-.45,1.98-1.34,2.42-2.42.45,1.08,1.34,1.98,2.42,2.42-1.08.45-1.98,1.27-2.42,2.42Z"/>
        <path d="M308.94,242.58l1.02.25c.83.25,1.53.89,1.72,1.72l.25,1.02c.06.25.32.45.57.45s.45-.19.57-.45l.25-1.02c.25-.83.89-1.53,1.72-1.72l1.02-.25c.25-.06.45-.32.45-.57s-.19-.45-.45-.57l-1.02-.25c-.82-.19-1.46-.83-1.72-1.72l-.26-1.02c-.13-.51-.96-.51-1.08,0l-.32,1.02c-.25.83-.89,1.53-1.72,1.72l-1.02.25c-.25.06-.45.32-.45.57s.19.51.45.58h0ZM312.51,240.48c.32.7.89,1.28,1.59,1.59-.7.32-1.27.89-1.59,1.59-.32-.7-.89-1.27-1.59-1.59.7-.38,1.27-.89,1.59-1.59Z"/>
        <path d="M309.13,211.41l.96.25c.76.19,1.4.83,1.59,1.59l.25.96c.06.25.32.45.57.45s.45-.19.57-.45l.25-.96c.19-.76.83-1.4,1.59-1.59l.96-.25c.25-.06.45-.32.45-.57,0-.26-.19-.45-.44-.51l-.96-.25c-.76-.19-1.4-.83-1.59-1.59l-.25-.96c-.13-.51-.96-.51-1.08,0l-.26.96c-.19.76-.83,1.4-1.59,1.59l-1.02.25c-.25.06-.45.32-.45.57s.25.45.45.51h0ZM312.51,209.5c.32.57.83,1.08,1.4,1.4-.57.32-1.08.83-1.4,1.4-.32-.57-.83-1.08-1.4-1.4.64-.32,1.08-.83,1.4-1.4Z"/>
        <path d="M339.48,210.32c-.19.06-.38.32-.38.58s.19.45.45.57l1.21.32c1.02.25,1.85,1.08,2.1,2.1l.32,1.21c.06.25.32.45.57.45s.45-.19.57-.45l.32-1.21c.25-1.02,1.08-1.85,2.1-2.1l1.21-.32c.25-.06.45-.32.45-.57s-.19-.45-.45-.57l-1.21-.32c-1.02-.25-1.85-1.08-2.1-2.1l-.32-1.21c-.06-.25-.32-.45-.57-.45s-.45.19-.57.45l-.32,1.21c-.25,1.02-1.08,1.85-2.1,2.1l-1.27.32ZM343.68,208.79c.38.96,1.15,1.66,2.1,2.1-.96.38-1.66,1.15-2.1,2.1-.38-.96-1.15-1.66-2.1-2.1.96-.45,1.72-1.15,2.1-2.1Z"/>
        <path d="M342.67,237.86c.19-.25.13-.57-.13-.76-.25-.19-.57-.13-.76.13-2.23,3-5.35,5.1-8.86,6.06,2.3-1.91,4.08-5.29,5.04-9.63.06-.13.06-.25.06-.32.06-.38.13-.76.19-1.15.25-1.53.38-3.12.38-4.72,0-1.79-.13-3.51-.45-5.16h5.99c.38,1.15.64,2.42.76,3.63,0,.32.32.51.64.51s.51-.32.51-.64c-.13-1.47-.45-2.87-.96-4.27-1.66-4.46-5.04-7.97-9.18-9.88v-2.1c0-1.27-.89-2.42-2.1-2.74-.96-.25-1.91-.38-2.87-.51v-10.65c0-.32-.25-.57-.57-.57h-3.57c-.32,0-.57.25-.57.57v10.65c-.96.13-1.91.25-2.87.51-1.21.32-2.1,1.47-2.1,2.74v2.1c-4.14,1.91-7.52,5.42-9.12,9.88-.7,1.91-1.02,3.89-1.02,5.93s.32,4.02,1.02,5.93c2.42,6.82,8.92,11.41,16,11.6h.83c5.48-.13,10.52-2.74,13.71-7.14h0ZM337.12,232.06c0,.19-.06.45-.13.64h-7.84v-10.39h7.84c.32,1.66.45,3.38.45,5.16,0,1.59-.06,3.12-.32,4.59h0ZM329.15,221.22v-10.07c3.31.38,6.31,4.34,7.58,10.01h-7.58v.07ZM343.68,221.22h-5.74c-.89-4.21-2.68-7.58-4.97-9.44,4.78,1.28,8.74,4.78,10.71,9.44h0ZM327.37,196.24h2.42v9.95c-.83-.06-1.66-.06-2.42,0v-9.95ZM313.47,233.78h5.74c.89,4.21,2.68,7.58,4.97,9.44-4.72-1.27-8.74-4.78-10.71-9.44h0ZM328,243.86c-3.31-.38-6.31-4.34-7.58-10.01h7.58v10.01ZM328,221.22h-1.34c-.32,0-.57.25-.57.57s.25.57.57.57h1.34v10.33h-7.84c-.25-1.4-.45-2.87-.45-4.4,0-.32-.25-.57-.57-.57s-.57.25-.57.57c.06,1.47.19,2.93.45,4.34h-5.99c-.57-1.66-.83-3.38-.83-5.16s.32-3.51.83-5.16h.19c.32,0,.57-.25.57-.57,0-.25-.13-.45-.32-.51,1.98-4.72,5.99-8.22,10.77-9.5-1.15.96-2.17,2.23-3.06,3.89-.13.25-.06.64.25.76.25.13.64.06.76-.25,1.53-2.93,3.63-4.72,5.8-4.97v10.07ZM328.58,210c-2.17,0-4.27.38-6.18,1.15v-1.66c0-.76.51-1.47,1.28-1.66,3.19-.83,6.69-.83,9.82,0,.76.19,1.27.89,1.27,1.66v1.66c-1.79-.7-3.76-1.08-5.74-1.15h-.45,0ZM329.15,243.86v-10.07h7.58c-1.27,5.68-4.27,9.63-7.58,10.07Z"/>
      </g>
      <g>
        <path class="cls-3" d="M546.46,239.37c-.14,0-.27,0-.39,0,0-1.02-.12-1.84-.26-1.84s-.26.83-.26,1.88c-.39.05-.65.13-.65.21,0,.09.26.17.65.21.02.92.13,1.62.26,1.62.13,0,.23-.68.26-1.58.13,0,.26,0,.4,0,.87,0,1.57-.12,1.57-.26,0-.13-.7-.25-1.57-.25Z"/>
        <path class="cls-3" d="M525.3,210.16v.11c0,1.85.12,3.36.26,3.36s.26-1.51.26-3.36v-.11c.87-.02,1.54-.13,1.54-.26,0-.13-.67-.24-1.54-.26-.02-1.55-.13-2.72-.26-2.72s-.23,1.17-.26,2.72c-.91.02-1.61.13-1.61.26-.01.14.69.25,1.59.26Z"/>
        <path class="cls-3" d="M564.31,204.48c.59-.78.98-1.48.87-1.57s-.69.47-1.29,1.24c-.59.78-.98,1.48-.87,1.57s.69-.47,1.29-1.25Z"/>
        <path class="cls-3" d="M565.21,206.24c-1.02-.15-1.83.16-1.79.3.03.14.8.09,1.72.23.92.11,1.61.4,1.69.29.09-.12-.6-.69-1.63-.82Z"/>
        <path class="cls-3" d="M532.87,213.52c-.07.14.42.49.89,1.02.49.53.79,1.03.94.98.14-.04.02-.73-.55-1.34-.56-.61-1.23-.79-1.28-.67Z"/>
        <path class="cls-3" d="M562.99,223.54c-.15.02-.14.86-.49,1.8-.34.94-.91,1.57-.8,1.68.07.12.9-.41,1.3-1.49.41-1.09.14-2.03,0-1.99Z"/>
        <path class="cls-3" d="M542.59,215.85c-.52.14-.94.43-1.28.67l-2.39,1.7-.85-.71c-.18-2.25-.83-4.4-2.71-5.98-.42-.35-.91-.63-1.44-.83.09-.02.19-.07.28-.12.12.11.25.22.4.3.26.15.55.22.83.22.32,0,.63-.1.88-.29.34-.26.49-.62.57-.88.12-.35.19-.73.2-1.11.29-.24.5-.6.59-1.01.04-.25.05-.48.03-.7.25,0,.5,0,.75,0s.91-.05,1.32-.6c.5-.68.16-1.52.04-1.85-.41-1.04-.84-2.03-1.49-2.9-1.52-2.02-4.14-2.38-6.38-.88-1.58,1.06-2.89,3.26-3.17,5.35-.36,2.6,2.08,3.58,3.55,4.15-.2,0-.41,0-.61,0-1.11.1-2.08.6-2.75,1.4-.04.04-.05.1-.08.14-.54.14-1,.54-1.38.88-1.75,1.56-3.14,2.93-4.39,4.33-.53.59-.75,1.18-.69,1.76.1.88.82,1.51,1.51,2.01.66.48,2.76,1.53,4.09,2.17-.08,1.33-.16,3.06.34,4.3.36.91.62,1.61.89,2.32.56,1.49,1.1,2.9,2.42,6.02.13.29.12.64-.02.94-.87,1.89-1.45,3.48-2.2,5.7-.64.89-.31,2.89-.13,3.34.45,1.13,1.57,1.71,3.34,1.71.37,0,.77-.02,1.19-.07l.18-.02c.61-.06,1.76-.17,2.1-1.22.15-.46.1-.92-.15-1.28-.3-.45-.87-.76-1.54-.82-.26-.02-.34-.11-.41-.2-.09-.11-.17-.29-.26-.46-.08-.16-.16-.33-.27-.5.41-.63.76-1.24,1.12-1.88.49-.86.99-1.75,1.72-2.85.41-.61.58-1.33.48-2.06l-.73-5.57c.13.15.26.31.38.46.52.63,1.03,1.26,1.48,1.8.25.29.38.66.35,1.03-.02.41-.04.84-.08,1.3-.24,3.94-.59,9.89,4.15,10.85.1.02.21.03.3.03.34,0,.55-.13.69-.26.29-.27.39-.65.27-1.14-.08-.34-.19-.71-.31-1.11-.29-.99-.61-2.11-.53-2.88.34-3.33.27-6.18.14-8.76-.02-.3-.03-.65-.15-1-.16-.48-.47-.85-.71-1.15-.39-.47-.82-.93-1.28-1.42-1.4-1.48-2.84-3.03-2.8-4.88,0-.34.02-.71.04-1.08.32.16.61.24.88.24.65,0,1.22-.41,1.94-.97l.1-.08c.34-.27.71-.52,1.06-.77.64-.44,1.3-.9,1.89-1.48.27-.27.6-.64.77-1.13.21-.61.11-1.27-.27-1.72-.4-.49-1.12-.69-1.81-.51ZM536.22,207.53c-.02.09-.06.16-.04.16-.37.08-.62.43-.58.8.04.33,0,.67-.1.98-.04.1-.06.15-.06.17-.02,0-.05,0-.09-.03-.14-.08-.28-.26-.4-.43.02-.08.03-.15.04-.23.06-.38.08-.75.1-1.11.02-.43.05-.83.14-1.2.32.11.64.2.96.27.04.22.08.44.04.62ZM530.23,206.43c.23-1.68,1.3-3.49,2.54-4.33,1.31-.88,3.17-1.05,4.37.54.55.73.91,1.59,1.3,2.57.08.21.11.33.12.4-.04,0-.1.02-.2.02-.91.05-1.84-.08-2.69-.4-.24-.09-.74-.27-1.23.02-.43.26-.55.71-.61.93-.14.53-.17,1.07-.2,1.57-.02.34-.04.66-.09.95-.02.11-.05.34-.1.5h0c-.08-.02-.16-.06-.27-.1l-.28-.11c-1.67-.64-2.84-1.21-2.65-2.57ZM523.89,218.74c-.02-.2.19-.47.32-.61,1.21-1.35,2.57-2.68,4.27-4.21.43-.38.61-.55.77-.55.13,0,.24.1.43.29.41.4.35.66.33.77-.05.22-.23.47-.5.73-.1.09-.29.25-.52.45-1.89,1.55-2.65,2.33-2.53,3.1.24,1.34,1.59,1.83,2.78,2.27,1.07.39,1.78.68,1.78,1.17,0,.11-.02.13-.05.14-.23.15-.93.1-1.36-.1-.12-.05-.29-.14-.49-.23,0,0-.02,0-.02-.02-1.24-.59-3.7-1.81-4.3-2.24-.58-.41-.88-.74-.91-.97ZM534.29,245.44c.25.02.41.12.43.18-.04.13-.65.19-.84.21l-.2.02c-1.18.14-2.65.13-2.98-.7-.14-.35-.2-1.53-.08-1.9.32-.15,1.24-.08,1.46.12.14.14.24.34.36.58.11.22.23.48.41.71.36.46.83.71,1.44.77ZM539.87,241.27c.14.02.28.03.41.03.35,0,.7-.05,1.05-.14.06.88.34,1.83.59,2.69.04.14.08.29.12.43-1.21-.49-1.85-1.57-2.17-3.02ZM539.74,229.24c.43.46.85.91,1.21,1.34.19.22.38.46.45.68.05.17.07.38.08.6.12,2.3.18,4.83-.06,7.71-.59.24-1.12.29-1.76.17-.1-1.36-.04-2.94.05-4.6.03-.46.05-.91.08-1.33.03-.74-.22-1.46-.7-2.04-.45-.53-.96-1.16-1.48-1.79-.74-.9-1.48-1.81-2.03-2.44-.21-.25-.56-.33-.86-.19-.3.14-.47.45-.43.77l1.07,8.08c.04.37-.04.73-.25,1.04-.77,1.15-1.31,2.1-1.79,2.95-.32.57-.65,1.12-1,1.67-.34-.11-.73-.17-1.11-.17.56-1.63,1.07-2.94,1.76-4.44.32-.68.32-1.45.04-2.13-1.31-3.09-1.84-4.48-2.39-5.95-.27-.7-.53-1.43-.9-2.34-.32-.81-.32-2.05-.26-3.14.32.09.68.16,1.06.16.45,0,.9-.09,1.27-.33.47-.3.72-.8.71-1.39,0-1.55-1.53-2.11-2.75-2.55-.79-.28-1.6-.59-1.79-1.01.29-.45,1.5-1.44,1.97-1.83.28-.23.5-.41.61-.53.49-.47.79-.95.92-1.46.13-.54.11-1.35-.74-2.17-.08-.08-.17-.16-.26-.22.46-.36.98-.49,1.38-.53.91-.08,1.89.22,2.58.8,2.47,2.09,2.32,5.72,2.17,8.92-.02.6-.05,1.19-.06,1.74-.05,2.46,1.68,4.3,3.2,5.92ZM543.29,217.59c-.08.21-.26.42-.42.58-.49.49-1.07.89-1.68,1.31-.38.26-.77.53-1.14.83l-.1.08c-1.05.83-1.06.83-1.84.15.02-.34.02-.69.02-1.03.12.1.33.26.64.3.43.05.73-.17.89-.28l2.51-1.79c.26-.19.53-.38.78-.44.16-.04.31,0,.34.04.02.03.04.14,0,.27Z"/>
        <path class="cls-3" d="M564.88,213.75c-.57-1.58-2.74-6.68-6.79-6.29-.56.05-1.07.24-1.52.51.27-.3.51-.58.7-.83.06.02.13.07.19.08.16.05.31.06.46.06.43,0,.81-.17,1.12-.48,1.13-1.18.76-4.15.59-4.71-.19-.62-.45-1.11-.8-1.49-1.69-1.82-4.82-1.21-6.23-.63l-.08.04c-.56.22-1.14.46-1.69.54-.51.07-.94.41-1.13.89-.18.47-.1.99.22,1.38.56.68,1.35,1.17,2.22,1.43,0,.48-.11.97-.35,1.43-.15.29-.41.79-.21,1.33.1.29.38.49.7.49h.43l.05,1.26c.03.82.53,1.07.74,1.12.08.02.17.04.26.04.49,0,1.09-.36,1.67-.85-.33.55-.52,1.19-.51,1.9,0,1.36.51,2.57.99,3.74.18.44.34.87.49,1.3-.14-.08-.26-.15-.4-.23-.97-.58-1.97-1.17-3-1.17-1.35-.02-2.03.76-2.23,1.49-.28,1.02.25,2.14,1.28,2.72.89.5,1.81.91,2.72,1.31-.02.23-.03.47-.04.7-.02.86-.05,1.6-.52,2.04-.42.39-.88.78-1.36,1.19-2.65,2.26-5.94,5.07-4.36,9.25.7,1.85,1.36,3.61,2.2,5.39.1.22.19.42.24.61-.07.12-.12.26-.11.41,0,.07.03.14.05.19-.15.49-.46,1.08-.7,1.52-.16.29-.31.56-.41.8-.53,1.19.04,1.7.3,1.87,1,.62,2.9-.44,3.41-1.04.73-.87,1.64-2.36,1.79-3.7.05-.45-.06-.85-.15-1.18-.49-1.88-1.36-3.38-2.26-4.96l-.05-.07c-.22-.38-.42-.77-.41-1.12.02-.54.56-1.05,1.1-1.52.66-.57,1.36-1.19,2.07-1.81.29-.25.57-.49.85-.74-.04.73-.13,1.48-.22,2.27-.29,2.43-.58,4.94.65,7.07l2.24,3.84c.37.63.73,1.44,1.02,2.27-.36.39-.73.77-1.13,1.12-.24.22-.31.56-.18.85.31.7,1.04,1.19,1.9,1.29.11.01.22.01.33.01.49,0,1.02-.12,1.62-.37,1.09-.44,1.95-1.01,2.64-1.73.21-.22.27-.55.14-.82-.27-.57-.82-1.52-1.47-2.62-1.15-1.97-3.29-5.64-3.24-6.55.02-.44.28-.91.52-1.36.42-.78.93-1.58,1.48-2.44,1.22-1.93,2.49-3.92,2.95-6.01.44-2.03.4-4.24.32-5.39-.12-2.06-.5-3.97-1.1-5.65ZM553.09,201.39l.08-.04c1.31-.53,3.6-.8,4.59.27.19.21.34.5.46.91.18.61.23,2.77-.24,3.26-.03.03-.04.05-.14.02-.02,0-.03-.02-.05-.02-.05-.1-.12-.19-.21-.26-.09-.07-.19-.11-.29-.13-.49-.48-1.15-1.3-1.58-2.02-.07-.12-.26-.44-.66-.55-.08-.02-.17-.03-.25-.03-.17,0-.31.04-.39.07l.22.71.26.69s-.02,0-.04,0l-.22-.7-.22-.71h0c-.44.14-.92.16-1.39.09-.02,0-.05,0-.07-.01-.69-.12-1.34-.44-1.8-.93.7-.11,1.32-.36,1.93-.61ZM554.21,208.19l-.04-1.06c0-.15-.02-.55-.35-.85-.19-.17-.4-.22-.56-.24.22-.5.33-1.05.35-1.6.33,0,.67-.04.99-.11.26.39.83,1.24,1.49,1.92-.57.67-1.34,1.5-1.88,1.93ZM552.2,216.51c.1-.35.49-.41.76-.41.65-.02,1.48.48,2.29.97.55.33,1.12.67,1.67.86.17.06.46.16.82.08.3-.08.81-.34.93-1.27.04-.32.02-.79,0-1.43-.05-1.16-.15-3.59.44-4.14.05-.04.09-.08.23-.06.1,0,.22.04.34.2.54.67.65,2.44.34,5.27l-.02.18c-.02.21-.04.47-.05.74-.05.86-.14,2.3-.61,2.72-.07.06-.16.11-.38.1h-.02c-.57-.05-1.32-.44-1.99-.79-.34-.18-.68-.35-.97-.48l-.21-.09c-1.01-.43-2.04-.88-2.98-1.42-.49-.28-.67-.74-.58-1.05ZM552.34,242.12c-.19.22-.78.53-1.2.65.08-.19.2-.4.32-.63.3-.55.63-1.18.82-1.81.47-.1.94-.26,1.36-.49-.25.8-.79,1.67-1.3,2.28ZM562.09,244.97c-.49.2-.89.29-1.23.25-.12-.02-.24-.05-.34-.09.29-.28.56-.58.82-.88.58.14,1.16.22,1.75.22-.3.18-.64.34-1,.49ZM564.22,224.47c-.41,1.83-1.6,3.71-2.75,5.53-.56.88-1.08,1.7-1.53,2.53-.29.54-.65,1.21-.7,1.98-.07,1.25,1.38,3.85,3.44,7.37.22.39.44.76.64,1.09-.63.02-1.26-.05-1.87-.22-.31-.86-.68-1.68-1.07-2.35l-2.25-3.84c-.99-1.7-.73-3.87-.46-6.16.16-1.36.33-2.77.22-4.11-.02-.28-.2-.52-.46-.62-.26-.1-.56-.06-.77.13-.66.57-1.36,1.19-2.07,1.81-.7.61-1.4,1.23-2.06,1.8-.76.66-1.57,1.45-1.61,2.59-.02.73.3,1.36.61,1.91l.05.07c.81,1.42,1.51,2.67,1.96,4.14-.35.31-.77.55-1.21.69-.08-.26-.18-.51-.29-.73-.82-1.72-1.47-3.44-2.16-5.29-1.2-3.18,1.42-5.42,3.95-7.58.49-.42.97-.82,1.4-1.23.93-.86.96-2.04.99-3.08v-.07s.04.02.06.03c.78.41,1.67.87,2.54.95h.05c.05,0,.11,0,.17,0,.49,0,.92-.16,1.28-.47.94-.83,1.04-2.52,1.12-3.75.02-.26.03-.48.05-.67l.02-.18c.25-2.27.4-5.05-.67-6.36-.34-.43-.81-.69-1.34-.74s-1.02.11-1.4.46c-.77.72-.94,2.12-.94,3.75-.4-.97-.74-1.91-.75-2.87,0-1.12.73-1.94,1.84-2.05,3.06-.29,4.91,4.38,5.26,5.32.56,1.55.9,3.32,1.02,5.25.12,1.85.01,3.62-.29,4.98Z"/>
      </g>
      <g>
        <g>
          <path d="M772.26,236.9c-2.47,0-4.47-2.01-4.47-4.47s2.01-4.47,4.47-4.47,4.47,2.01,4.47,4.47c0,2.47-2.01,4.47-4.47,4.47ZM772.26,229.2c-1.78,0-3.23,1.45-3.23,3.23s1.45,3.23,3.23,3.23,3.23-1.45,3.23-3.23-1.46-3.23-3.23-3.23Z"/>
          <path d="M772.21,234.74c-.98,0-1.86-.62-2.2-1.55-.12-.32.05-.68.37-.8s.68.05.8.37c.15.44.56.72,1.02.72.6,0,1.08-.49,1.08-1.08,0-.51-.36-.97-.87-1.06-.34-.06-.55-.39-.49-.73.06-.34.39-.55.73-.49,1.08.21,1.87,1.18,1.87,2.28.02,1.3-1.03,2.34-2.32,2.34Z"/>
          <path d="M770.85,232c-.13,0-.27-.04-.38-.13-.28-.21-.33-.6-.12-.87.02-.03.05-.06.07-.1.22-.27.62-.3.88-.07.27.22.3.62.07.88-.01.01-.02.03-.03.04-.13.16-.31.24-.5.24Z"/>
        </g>
        <g>
          <path d="M752.05,236.9c-2.46,0-4.47-2.01-4.47-4.47s2.01-4.47,4.47-4.47,4.47,2.01,4.47,4.47c0,2.47-2.01,4.47-4.47,4.47ZM752.05,229.2c-1.79,0-3.23,1.45-3.23,3.23s1.45,3.23,3.23,3.23,3.23-1.45,3.23-3.23-1.44-3.23-3.23-3.23Z"/>
          <path d="M752,234.74c-.98,0-1.86-.62-2.2-1.55-.12-.32.05-.68.37-.8s.68.05.8.37c.15.44.56.72,1.02.72.6,0,1.08-.49,1.08-1.08,0-.51-.36-.97-.87-1.06-.34-.06-.55-.39-.49-.73.06-.34.39-.55.73-.49,1.08.21,1.87,1.18,1.87,2.28.02,1.3-1.03,2.34-2.32,2.34Z"/>
          <path d="M750.64,232c-.13,0-.27-.04-.37-.13-.28-.21-.33-.6-.12-.87.02-.03.05-.06.07-.1.22-.27.62-.3.88-.07.27.22.3.62.07.88-.01.01-.02.03-.03.04-.13.16-.32.24-.51.24Z"/>
        </g>
        <g>
          <path d="M768.29,231.31h-8.44v-7.05c0-.52.42-.95.95-.95h2.72c.52,0,.95.42.95.95v5.41c0,.34.28.63.63.63s.63-.28.63-.63v-5.41c0-1.21-.99-2.2-2.2-2.2h-2.72c-1.21,0-2.2.99-2.2,2.2v7.05h-.35c-.34,0-.63.28-.63.63s.28.63.63.63h10.04c.34,0,.63-.28.63-.63,0-.35-.29-.63-.63-.63Z"/>
          <path d="M783.27,210.21h-41.84c-1.26,0-2.49.37-3.54,1.08-.29.19-.36.58-.16.86.19.29.58.36.86.16.84-.57,1.82-.87,2.84-.87h4.37s0,6.49,0,6.49c0,.34.28.63.63.63s.63-.28.63-.63v-6.49h7.03v7.97h-5.56c-2.11,0-4.07,1.06-5.23,2.83l-.69,1.05c-1.13,1.72-3.03,2.75-5.09,2.75h-1.09c-.02-.2-.03-.4-.03-.61v-8.04c0-.34-.28-.63-.63-.63s-.63.28-.63.63v8.04c0,.46.04.9.13,1.34h0c.64,3.28,3.53,5.77,6.98,5.77h5.96c.34,0,.63-.28.63-.63s-.28-.63-.63-.63h-5.95c-2.59,0-4.79-1.69-5.57-4.03h.84c2.49,0,4.77-1.24,6.13-3.32l.69-1.05c.38-.6.88-1.08,1.46-1.46v8.2c0,.34.28.63.63.63s.63-.28.63-.63v-8.79c.47-.15.97-.22,1.48-.22h6.17c.34,0,.63-.28.63-.63v-8.57h7.03v7.98h-5.17c-.34,0-.63.28-.63.63s.28.63.63.63h22.42c1.49,0,2.94-.5,4.12-1.41.28-.21.32-.61.11-.87-.21-.28-.61-.32-.87-.11-.96.74-2.15,1.15-3.36,1.15h-7.71s0-7.96,0-7.96h7.03s0,6.49,0,6.49c0,.34.28.63.63.63s.63-.28.63-.63v-6.49h3.08c.89,0,1.62.72,1.62,1.61v8.99h-.47c-1.4,0-2.54,1.14-2.54,2.54v1.62c0,.68.27,1.32.74,1.8.12.12.28.18.44.18s.32-.06.44-.18c.24-.24.24-.64,0-.88s-.38-.57-.38-.91v-1.62c0-.71.58-1.3,1.3-1.3h.47v3.8c0,2.32-1.88,4.21-4.21,4.21h-2.2c-.34,0-.63.28-.63.63s.28.63.63.63h2.2c3.01,0,5.45-2.44,5.45-5.45v-14.06c.01-1.57-1.28-2.86-2.85-2.86ZM770.62,219.41h-7.03s0-7.96,0-7.96h7.03s0,7.96,0,7.96Z"/>
          <path d="M735.94,214.97c.07.03.15.04.23.04.24,0,.48-.15.57-.39.04-.11.1-.21.14-.32.15-.31.02-.68-.29-.83-.31-.15-.68-.02-.83.29-.06.14-.13.27-.18.4-.13.31.03.68.35.81Z"/>
          <path d="M750.04,224.43h-.9c-.34,0-.63.28-.63.63s.28.63.63.63h.9c.34,0,.63-.28.63-.63-.01-.35-.29-.63-.63-.63Z"/>
          <path d="M778.74,222.91c0-.34-.28-.63-.63-.63h-2.75c-.34,0-.63.28-.63.63s.28.63.63.63h2.75c.35-.01.63-.29.63-.63Z"/>
          <path d="M778.74,224.94c0-.34-.28-.63-.63-.63h-1.38c-.34,0-.63.28-.63.63s.28.63.63.63h1.38c.35,0,.63-.28.63-.63Z"/>
        </g>
      </g>
      <g>
        <g>
          <path d="M232.26,236.9c-2.47,0-4.47-2.01-4.47-4.47s2.01-4.47,4.47-4.47,4.47,2.01,4.47,4.47-2.01,4.47-4.47,4.47ZM232.26,229.2c-1.78,0-3.23,1.45-3.23,3.23s1.45,3.23,3.23,3.23,3.23-1.45,3.23-3.23-1.46-3.23-3.23-3.23Z"/>
          <path d="M232.21,234.74c-.98,0-1.86-.62-2.2-1.55-.12-.32.05-.68.37-.8s.68.05.8.37c.15.44.56.72,1.02.72.6,0,1.08-.49,1.08-1.08,0-.51-.36-.97-.87-1.06-.34-.06-.55-.39-.49-.73.06-.34.39-.55.73-.49,1.08.21,1.87,1.18,1.87,2.28.02,1.3-1.03,2.34-2.32,2.34Z"/>
          <path d="M230.85,232c-.13,0-.27-.04-.38-.13-.28-.21-.33-.6-.12-.87.02-.03.05-.06.07-.1.22-.27.62-.3.88-.07.27.22.3.62.07.88-.01.01-.02.03-.03.04-.13.16-.31.24-.5.24Z"/>
        </g>
        <g>
          <path d="M212.05,236.9c-2.46,0-4.47-2.01-4.47-4.47s2.01-4.47,4.47-4.47,4.47,2.01,4.47,4.47c0,2.47-2.01,4.47-4.47,4.47ZM212.05,229.2c-1.79,0-3.23,1.45-3.23,3.23s1.45,3.23,3.23,3.23,3.23-1.45,3.23-3.23-1.44-3.23-3.23-3.23Z"/>
          <path d="M212,234.74c-.98,0-1.86-.62-2.2-1.55-.12-.32.05-.68.37-.8s.68.05.8.37c.15.44.56.72,1.02.72.6,0,1.08-.49,1.08-1.08,0-.51-.36-.97-.87-1.06-.34-.06-.55-.39-.49-.73.06-.34.39-.55.73-.49,1.08.21,1.87,1.18,1.87,2.28.02,1.3-1.03,2.34-2.32,2.34Z"/>
          <path d="M210.64,232c-.13,0-.27-.04-.37-.13-.28-.21-.33-.6-.12-.87.02-.03.05-.06.07-.1.22-.27.62-.3.88-.07.27.22.3.62.07.88-.01.01-.02.03-.03.04-.13.16-.32.24-.51.24Z"/>
        </g>
        <g>
          <path d="M228.29,231.31h-8.44v-7.05c0-.52.42-.95.95-.95h2.72c.52,0,.95.42.95.95v5.41c0,.34.28.63.63.63s.63-.28.63-.63v-5.41c0-1.21-.99-2.2-2.2-2.2h-2.72c-1.21,0-2.2.99-2.2,2.2v7.05h-.35c-.34,0-.63.28-.63.63s.28.63.63.63h10.04c.34,0,.63-.28.63-.63,0-.35-.29-.63-.63-.63Z"/>
          <path d="M243.27,210.21h-41.84c-1.26,0-2.49.37-3.54,1.08-.29.19-.36.58-.16.86.19.29.58.36.86.16.84-.57,1.82-.87,2.84-.87h4.37s0,6.49,0,6.49c0,.34.28.63.63.63s.63-.28.63-.63v-6.49h7.03v7.97h-5.56c-2.11,0-4.07,1.06-5.23,2.83l-.69,1.05c-1.13,1.72-3.03,2.75-5.09,2.75h-1.09c-.02-.2-.03-.4-.03-.61v-8.04c0-.34-.28-.63-.63-.63s-.63.28-.63.63v8.04c0,.46.04.9.13,1.34h0c.64,3.28,3.53,5.77,6.98,5.77h5.96c.34,0,.63-.28.63-.63s-.28-.63-.63-.63h-5.95c-2.59,0-4.79-1.69-5.57-4.03h.84c2.49,0,4.77-1.24,6.13-3.32l.69-1.05c.38-.6.88-1.08,1.46-1.46v8.2c0,.34.28.63.63.63s.63-.28.63-.63v-8.79c.47-.15.97-.22,1.48-.22h6.17c.34,0,.63-.28.63-.63v-8.57h7.03v7.98h-5.17c-.34,0-.63.28-.63.63,0,.34.28.63.63.63h22.42c1.49,0,2.94-.5,4.12-1.41.28-.21.32-.61.11-.87-.21-.28-.61-.32-.87-.11-.96.74-2.15,1.15-3.36,1.15h-7.71s0-7.96,0-7.96h7.03s0,6.49,0,6.49c0,.34.28.63.63.63s.63-.28.63-.63v-6.49s3.08,0,3.08,0c.89,0,1.62.72,1.62,1.61v8.99h-.47c-1.4,0-2.54,1.14-2.54,2.54v1.62c0,.68.27,1.32.74,1.8.12.12.28.18.44.18s.32-.06.44-.18c.24-.24.24-.64,0-.88s-.38-.57-.38-.91v-1.62c0-.71.58-1.3,1.3-1.3h.47v3.8c0,2.32-1.88,4.21-4.21,4.21h-2.2c-.34,0-.63.28-.63.63s.28.63.63.63h2.2c3.01,0,5.45-2.44,5.45-5.45v-14.06c.01-1.57-1.28-2.86-2.85-2.86ZM230.62,219.41h-7.03s0-7.96,0-7.96h7.03s0,7.96,0,7.96Z"/>
          <path d="M195.94,214.97c.07.03.15.04.23.04.24,0,.48-.15.57-.39.04-.11.1-.21.14-.32.15-.31.02-.68-.29-.83-.31-.15-.68-.02-.83.29-.06.14-.13.27-.18.4-.13.31.03.68.35.81Z"/>
          <path d="M210.04,224.43h-.9c-.34,0-.63.28-.63.63,0,.34.28.63.63.63h.9c.34,0,.63-.28.63-.63-.01-.35-.29-.63-.63-.63Z"/>
          <path d="M238.74,222.91c0-.34-.28-.63-.63-.63h-2.75c-.34,0-.63.28-.63.63s.28.63.63.63h2.75c.35-.01.63-.29.63-.63Z"/>
          <path d="M238.74,224.94c0-.34-.28-.63-.63-.63h-1.38c-.34,0-.63.28-.63.63s.28.63.63.63h1.38c.35,0,.63-.28.63-.63Z"/>
        </g>
      </g>
    </g>
  </g>
</svg>